<?xml version="1.0" encoding="UTF-8"?>
<svg id="cloud-monitoring" xmlns="http://www.w3.org/2000/svg" viewBox="0 0 100 100">
  <defs>
    <style>
      .cls-1 {
        fill: none;
        stroke: #01A0C8;
        stroke-linecap: round;
        stroke-linejoin: round;
        stroke-width: 7.77px;
      }
    </style>
  </defs>
  <path class="cls-1" d="M93.82,53.78c0,11.01-8.93,19.94-19.94,19.94-.07,0-.15,0-.21,0h0s-54.64,0-54.64,0c-7.09,0-12.84-5.75-12.84-12.83s5.75-12.84,12.84-12.84c1.35,0,2.67.21,3.9.6-1.73-3.5-2.7-7.44-2.7-11.6,0-14.51,11.76-26.27,26.27-26.27,13.45,0,24.54,10.1,26.09,23.12.43-.04.86-.05,1.3-.05,11.01,0,19.94,8.93,19.94,19.94Z"/>
  <g>
    <line class="cls-1" x1="73.04" y1="89.22" x2="71.3" y2="89.22"/>
    <line class="cls-1" x1="58.13" y1="89.22" x2="13.03" y2="89.22"/>
    <line class="cls-1" x1="86.97" y1="89.22" x2="85.23" y2="89.22"/>
  </g>
</svg>