<?xml version="1.0" encoding="UTF-8"?>
<svg id="website-monitoring" xmlns="http://www.w3.org/2000/svg" viewBox="0 0 100 100">
  <defs>
    <style>
      .cls-1 {
        fill: none;
        stroke: #01A0C8;
        stroke-linecap: round;
        stroke-linejoin: round;
        stroke-width: 7.77px;
      }
    </style>
  </defs>
  <g>
    <path class="cls-1" d="M52.28,25.07c0-8.35-6.77-15.13-15.13-15.13-7.86,0-14.31,6-15.05,13.66-6.03.91-10.64,6.11-10.64,12.4,0,1.12.14,2.22.43,3.26-2.99,3.06-4.83,7.23-4.83,11.84,0,5.48,2.6,10.34,6.64,13.43-.33,1.11-.5,2.29-.5,3.5,0,6.94,5.62,12.56,12.56,12.56M52.28,25.07"/>
    <path class="cls-1" d="M52.28,25.78v48.84c0,7.96-6.45,12.31-14.41,12.31-5.57,0-9.7-1.71-12.1-6.34"/>
    <path class="cls-1" d="M31.38,28.96s5.01,1.59,8.73,6.35"/>
    <path class="cls-1" d="M23.95,61.72s6.33-.9,9.41-3.44"/>
    <path class="cls-1" d="M30.92,45.27s-5.36-3.49-9.34-3.62"/>
    <path class="cls-1" d="M33.44,74.22s7.67-4.15,9.4-10.32"/>
  </g>
  <g>
    <polyline class="cls-1" points="52.28 65.49 61.67 65.49 78.63 82.45"/>
    <line class="cls-1" x1="87.52" y1="91.29" x2="86.44" y2="90.01"/>
  </g>
  <g>
    <polyline class="cls-1" points="52.28 34.35 61.67 34.35 79.02 17"/>
    <line class="cls-1" x1="86.78" y1="9.76" x2="88.09" y2="8.71"/>
  </g>
  <g>
    <line class="cls-1" x1="52.28" y1="50.14" x2="80.3" y2="50.14"/>
    <line class="cls-1" x1="92.93" y1="49.86" x2="91.25" y2="49.89"/>
  </g>
</svg>