<svg width="571" height="453" viewBox="0 0 571 453" fill="none" xmlns="http://www.w3.org/2000/svg">
<g opacity="0.9">
<path d="M493.416 369.967L59.8947 357.746C39.7193 357.171 23.1288 341.997 21.1279 322.23L0.202162 118.815C-2.13218 95.7665 16.0423 75.671 39.5525 75.3429L522.095 68.7812C546.439 68.4531 565.53 89.3687 562.529 113.155L534.433 335.435C531.849 355.613 514.091 370.623 493.416 369.967Z" fill="#EAF9F3"/>
<mask id="mask0_552_51301" style="mask-type:alpha" maskUnits="userSpaceOnUse" x="0" y="68" width="563" height="302">
<path d="M493.416 369.967L59.8947 357.746C39.7193 357.171 23.1288 341.997 21.1279 322.23L0.202162 118.815C-2.13218 95.7665 16.0423 75.671 39.5525 75.3429L522.095 68.7812C546.439 68.4531 565.53 89.3687 562.529 113.155L534.433 335.435C531.849 355.613 514.091 370.623 493.416 369.967Z" fill="#EAF9F3"/>
</mask>
<g mask="url(#mask0_552_51301)">
<path d="M139.595 406.96H-206.805C-213.725 406.96 -219.311 401.465 -219.311 394.657V201.331C-219.311 194.523 -213.725 189.027 -206.805 189.027H139.595C146.515 189.027 152.1 194.523 152.1 201.331V394.575C152.1 401.383 146.515 406.96 139.595 406.96Z" stroke="url(#paint0_linear_552_51301)" stroke-width="1.8" stroke-miterlimit="10" stroke-linecap="round" stroke-linejoin="round"/>
<path d="M597.377 393.919H247.976C241.056 393.919 235.471 388.424 235.471 381.616V99.2135C235.471 92.4056 241.056 86.9102 247.976 86.9102H597.377C604.297 86.9102 609.883 92.4056 609.883 99.2135V381.616C609.883 388.424 604.297 393.919 597.377 393.919Z" stroke="url(#paint1_linear_552_51301)" stroke-width="1.8" stroke-miterlimit="10" stroke-linecap="round" stroke-linejoin="round"/>
<path d="M43.8853 189.025H26.9613C25.1271 189.025 23.6265 187.713 23.3764 185.908L22.0425 174.097C21.7923 172.047 23.4597 170.16 25.6273 170.16H45.2192C47.3868 170.16 48.9708 171.965 48.804 174.097L47.4701 185.908C47.22 187.713 45.7194 189.025 43.8853 189.025Z" stroke="url(#paint2_linear_552_51301)" stroke-width="1.8" stroke-miterlimit="10" stroke-linecap="round" stroke-linejoin="round"/>
<path d="M33.3804 170.245C33.3804 170.245 26.7109 169.588 25.377 160.73C25.377 160.73 31.3796 162.452 33.297 166.636C33.297 166.636 34.1307 157.285 38.6327 156.383C38.6327 156.383 40.6336 163.355 37.4655 166.8C37.4655 166.8 39.8832 162.863 46.0526 162.945C46.0526 162.945 44.4686 168.522 38.3826 170.163" fill="url(#paint3_linear_552_51301)"/>
<path d="M137.011 229.794H61.8121C59.8946 229.794 58.3105 228.235 58.3105 226.349V203.875C58.3105 201.988 59.8946 200.43 61.8121 200.43H137.011C138.929 200.43 140.513 201.988 140.513 203.875V226.349C140.513 228.235 138.929 229.794 137.011 229.794Z" stroke="url(#paint4_linear_552_51301)" stroke-width="1.8" stroke-miterlimit="10" stroke-linecap="round" stroke-linejoin="round"/>
<path d="M108 208.386H90.6587C89.9918 208.386 89.4082 207.812 89.4082 207.156C89.4082 206.5 89.9918 205.926 90.6587 205.926H108C108.667 205.926 109.25 206.5 109.25 207.156C109.25 207.812 108.75 208.386 108 208.386Z" fill="url(#paint5_linear_552_51301)"/>
<path d="M137.011 267.36H61.8121C59.8946 267.36 58.3105 265.802 58.3105 263.915V241.441C58.3105 239.555 59.8946 237.996 61.8121 237.996H137.011C138.929 237.996 140.513 239.555 140.513 241.441V263.915C140.513 265.802 138.929 267.36 137.011 267.36Z" stroke="url(#paint6_linear_552_51301)" stroke-width="1.8" stroke-miterlimit="10" stroke-linecap="round" stroke-linejoin="round"/>
<path d="M108 245.953H90.6587C89.9918 245.953 89.4082 245.379 89.4082 244.723C89.4082 244.066 89.9918 243.492 90.6587 243.492H108C108.667 243.492 109.25 244.066 109.25 244.723C109.25 245.379 108.75 245.953 108 245.953Z" fill="url(#paint7_linear_552_51301)"/>
<path d="M523.097 293.934H447.898C445.981 293.934 444.396 292.376 444.396 290.489V268.015C444.396 266.129 445.981 264.57 447.898 264.57H523.097C525.015 264.57 526.599 266.129 526.599 268.015V290.489C526.682 292.376 525.098 293.934 523.097 293.934Z" stroke="url(#paint8_linear_552_51301)" stroke-width="1.8" stroke-miterlimit="10" stroke-linecap="round" stroke-linejoin="round"/>
<path d="M494.168 272.445H476.827C476.16 272.445 475.576 271.871 475.576 271.215C475.576 270.559 476.16 269.984 476.827 269.984H494.168C494.834 269.984 495.418 270.559 495.418 271.215C495.418 271.953 494.834 272.445 494.168 272.445Z" fill="url(#paint9_linear_552_51301)"/>
<path d="M426.552 293.934H351.353C349.436 293.934 347.852 292.376 347.852 290.489V268.015C347.852 266.129 349.436 264.57 351.353 264.57H426.552C428.47 264.57 430.054 266.129 430.054 268.015V290.489C430.137 292.376 428.553 293.934 426.552 293.934Z" stroke="url(#paint10_linear_552_51301)" stroke-width="1.8" stroke-miterlimit="10" stroke-linecap="round" stroke-linejoin="round"/>
<path d="M397.623 272.445H380.282C379.615 272.445 379.031 271.871 379.031 271.215C379.031 270.559 379.615 269.984 380.282 269.984H397.623C398.29 269.984 398.873 270.559 398.873 271.215C398.873 271.953 398.29 272.445 397.623 272.445Z" fill="url(#paint11_linear_552_51301)"/>
<path d="M41.1343 229.794H-34.0649C-35.9824 229.794 -37.5664 228.235 -37.5664 226.349V203.875C-37.5664 201.988 -35.9824 200.43 -34.0649 200.43H41.1343C43.0518 200.43 44.6359 201.988 44.6359 203.875V226.349C44.6359 228.235 43.0518 229.794 41.1343 229.794Z" stroke="url(#paint12_linear_552_51301)" stroke-width="1.8" stroke-miterlimit="10" stroke-linecap="round" stroke-linejoin="round"/>
<path d="M12.1226 208.386H-5.21821C-5.88516 208.386 -6.46875 207.812 -6.46875 207.156C-6.46875 206.5 -5.88516 205.926 -5.21821 205.926H12.1226C12.7896 205.926 13.3732 206.5 13.3732 207.156C13.3732 207.812 12.873 208.386 12.1226 208.386Z" fill="url(#paint13_linear_552_51301)"/>
<path d="M41.1343 267.36H-34.0649C-35.9824 267.36 -37.5664 265.802 -37.5664 263.915V241.441C-37.5664 239.555 -35.9824 237.996 -34.0649 237.996H41.1343C43.0518 237.996 44.6359 239.555 44.6359 241.441V263.915C44.6359 265.802 43.0518 267.36 41.1343 267.36Z" stroke="url(#paint14_linear_552_51301)" stroke-width="1.8" stroke-miterlimit="10" stroke-linecap="round" stroke-linejoin="round"/>
<path d="M12.1226 245.953H-5.21821C-5.88516 245.953 -6.46875 245.379 -6.46875 244.723C-6.46875 244.066 -5.88516 243.492 -5.21821 243.492H12.1226C12.7896 243.492 13.3732 244.066 13.3732 244.723C13.3732 245.379 12.873 245.953 12.1226 245.953Z" fill="url(#paint15_linear_552_51301)"/>
<path d="M632.642 172.953H253.312C251.227 172.953 249.477 171.23 249.477 169.18V103.808C249.477 101.758 251.227 100.035 253.312 100.035H632.642C634.727 100.035 636.477 101.758 636.477 103.808V169.18C636.477 171.23 634.727 172.953 632.642 172.953Z" stroke="url(#paint16_linear_552_51301)" stroke-width="1.8" stroke-miterlimit="10" stroke-linecap="round" stroke-linejoin="round"/>
<path d="M632.642 254.07H253.312C251.227 254.07 249.477 252.348 249.477 250.297V184.925C249.477 182.875 251.227 181.152 253.312 181.152H632.642C634.727 181.152 636.477 182.875 636.477 184.925V250.297C636.477 252.348 634.727 254.07 632.642 254.07Z" stroke="url(#paint17_linear_552_51301)" stroke-width="1.8" stroke-miterlimit="10" stroke-linecap="round" stroke-linejoin="round"/>
<path d="M283.238 131.695H274.984V172.952H283.238V131.695Z" stroke="url(#paint18_linear_552_51301)" stroke-width="1.8" stroke-miterlimit="10" stroke-linecap="round" stroke-linejoin="round"/>
<path d="M291.745 142.93H283.158V172.95H291.745V142.93Z" stroke="url(#paint19_linear_552_51301)" stroke-width="1.8" stroke-miterlimit="10" stroke-linecap="round" stroke-linejoin="round"/>
<path d="M532.015 212.734H523.762V253.992H532.015V212.734Z" stroke="url(#paint20_linear_552_51301)" stroke-width="1.8" stroke-miterlimit="10" stroke-linecap="round" stroke-linejoin="round"/>
<path d="M540.519 223.969H531.932V253.989H540.519V223.969Z" stroke="url(#paint21_linear_552_51301)" stroke-width="1.8" stroke-miterlimit="10" stroke-linecap="round" stroke-linejoin="round"/>
<path d="M515.175 212.734H506.922V253.992H515.175V212.734Z" stroke="url(#paint22_linear_552_51301)" stroke-width="1.8" stroke-miterlimit="10" stroke-linecap="round" stroke-linejoin="round"/>
<path d="M507.033 214.261L499.162 211.816L486.536 251.159L494.406 253.604L507.033 214.261Z" stroke="url(#paint23_linear_552_51301)" stroke-width="1.8" stroke-miterlimit="10" stroke-linecap="round" stroke-linejoin="round"/>
<path d="M523.761 223.969H515.174V253.989H523.761V223.969Z" stroke="url(#paint24_linear_552_51301)" stroke-width="1.8" stroke-miterlimit="10" stroke-linecap="round" stroke-linejoin="round"/>
<path d="M420.632 131.695H412.379V172.952H420.632V131.695Z" stroke="url(#paint25_linear_552_51301)" stroke-width="1.8" stroke-miterlimit="10" stroke-linecap="round" stroke-linejoin="round"/>
<path d="M429.222 142.93H420.635V172.95H429.222V142.93Z" stroke="url(#paint26_linear_552_51301)" stroke-width="1.8" stroke-miterlimit="10" stroke-linecap="round" stroke-linejoin="round"/>
<path d="M339.181 131.695H330.928V172.952H339.181V131.695Z" stroke="url(#paint27_linear_552_51301)" stroke-width="1.8" stroke-miterlimit="10" stroke-linecap="round" stroke-linejoin="round"/>
<path d="M331.058 133.156L323.188 130.711L310.561 170.054L318.432 172.499L331.058 133.156Z" stroke="url(#paint28_linear_552_51301)" stroke-width="1.8" stroke-miterlimit="10" stroke-linecap="round" stroke-linejoin="round"/>
<path d="M347.685 142.93H339.098V172.95H347.685V142.93Z" stroke="url(#paint29_linear_552_51301)" stroke-width="1.8" stroke-miterlimit="10" stroke-linecap="round" stroke-linejoin="round"/>
<path d="M531.851 137.026L532.768 124.805C532.851 123.984 532.184 123.328 531.35 123.328H527.765H524.181C523.347 123.328 522.763 123.984 522.763 124.805L523.68 137.026C523.68 137.026 516.177 141.783 516.26 145.72C516.344 148.755 518.178 163.273 519.012 169.671C519.262 171.475 520.762 172.788 522.597 172.788H527.765H532.934C534.768 172.788 536.269 171.475 536.519 169.671C537.353 163.273 539.187 148.755 539.27 145.72C539.354 141.783 531.851 137.026 531.851 137.026Z" fill="url(#paint30_linear_552_51301)"/>
<path d="M498.667 137.026L499.584 124.805C499.667 123.984 499 123.328 498.167 123.328H494.582H490.997C490.163 123.328 489.58 123.984 489.58 124.805L490.497 137.026C490.497 137.026 482.993 141.783 483.077 145.72C483.16 148.755 484.994 163.273 485.828 169.671C486.078 171.475 487.579 172.788 489.413 172.788H494.582H499.751C501.585 172.788 503.086 171.475 503.336 169.671C504.169 163.273 506.003 148.755 506.087 145.72C506.17 141.783 498.667 137.026 498.667 137.026Z" fill="url(#paint31_linear_552_51301)"/>
<path d="M-0.964844 331.5H795.88" stroke="url(#paint32_linear_552_51301)" stroke-width="1.8" stroke-miterlimit="10" stroke-linecap="round" stroke-linejoin="round"/>
</g>
<path d="M82.5693 260.879L71.9814 406.55C71.8981 407.781 72.8985 408.847 74.149 408.847C75.3162 408.847 76.2333 408.027 76.3166 406.878L89.0722 260.879H82.5693Z" fill="url(#paint33_linear_552_51301)"/>
<path d="M511.171 260.879L521.759 406.55C521.842 407.781 520.842 408.847 519.591 408.847C518.424 408.847 517.507 408.027 517.423 406.878L504.668 260.879H511.171Z" fill="url(#paint34_linear_552_51301)"/>
<path d="M427.974 104.378L315.759 99.8666C313.341 99.7846 311.674 97.57 312.007 94.8632L321.178 28.5072C321.511 25.8825 323.846 23.7499 326.263 23.5859L438.479 19.0747C441.563 18.9106 443.731 21.2073 443.397 24.1601L434.227 99.0464C433.893 102.163 431.059 104.542 427.974 104.378Z" fill="#F8AB5D"/>
<path d="M426.054 102.983L313.839 98.4721C311.421 98.39 309.754 96.1754 310.087 93.4687L319.258 27.1127C319.591 24.488 321.926 22.3554 324.344 22.1914L436.559 17.6801C439.643 17.5161 441.811 19.8127 441.478 22.7655L432.307 97.6518C431.973 100.769 429.139 103.065 426.054 102.983Z" fill="#01A0C8"/>
<path d="M336.928 60.168H366.607" stroke="#F8AB5D" stroke-width="1.8" stroke-miterlimit="10" stroke-linecap="round" stroke-linejoin="round"/>
<path d="M363.441 84.2018L347.434 83.7917C344.933 83.7096 343.266 81.5771 343.599 79.0344L348.685 41.3862C349.018 38.8435 351.269 36.7109 353.77 36.6289L369.777 36.2188" stroke="#F8AB5D" stroke-width="1.8" stroke-miterlimit="10" stroke-linecap="round" stroke-linejoin="round"/>
<path d="M387.287 40.5653L368.696 40.8934C367.612 40.8934 366.945 40.0732 367.028 39.0069L367.779 33.5114C367.946 32.4451 368.863 31.5429 369.946 31.5429L388.538 30.9688C389.622 30.9688 390.372 31.789 390.289 32.8553L389.538 38.4328C389.371 39.6631 388.371 40.5653 387.287 40.5653Z" fill="#A6F4C5"/>
<path d="M419.299 65.0887L399.374 65.0067C398.29 65.0067 397.456 64.1045 397.623 62.9562L398.373 57.2146C398.54 56.0663 399.54 55.1641 400.624 55.1641L420.549 55.082C421.717 55.082 422.55 55.9843 422.384 57.1326L421.633 62.9562C421.55 64.1865 420.466 65.0887 419.299 65.0887Z" fill="#A6F4C5"/>
<path d="M381.031 89.4494L362.44 88.9573C361.356 88.9573 360.689 88.055 360.773 86.9887L361.523 81.4112C361.69 80.3449 362.607 79.4427 363.691 79.5247L382.282 79.8528C383.366 79.8528 384.116 80.755 384.033 81.9034L383.282 87.5629C383.116 88.6292 382.115 89.4494 381.031 89.4494Z" fill="#A6F4C5"/>
<path d="M386.781 60.0859H398.036" stroke="#F8AB5D" stroke-width="1.8" stroke-miterlimit="10" stroke-linecap="round" stroke-linejoin="round"/>
<path d="M384.201 64.9247L365.61 64.8427C364.526 64.8427 363.859 63.9405 363.943 62.8742L364.693 57.3787C364.86 56.3124 365.777 55.4102 366.86 55.4102L385.452 55.3281C386.536 55.3281 387.286 56.2304 387.203 57.2967L386.452 62.9562C386.286 64.0225 385.285 64.9247 384.201 64.9247Z" fill="#F4C2C9"/>
<path d="M336.928 60.1713C337.345 57.1365 335.344 54.7578 332.51 54.7578C329.675 54.7578 327.091 57.2185 326.674 60.1713C326.257 63.1241 328.175 65.5847 331.009 65.5847C333.844 65.5847 336.512 63.2061 336.928 60.1713Z" fill="#A6F4C5"/>
<path d="M416.954 303.937V309.515C416.954 313.124 398.529 316.077 375.686 316.077C352.926 316.077 334.418 313.124 334.418 309.515V303.937H353.843C360.179 303.281 367.682 302.953 375.686 302.953C383.689 302.953 391.193 303.281 397.529 303.937H416.954Z" fill="#22272E"/>
<path d="M375.686 310.499C398.477 310.499 416.954 307.561 416.954 303.937C416.954 300.313 398.477 297.375 375.686 297.375C352.894 297.375 334.418 300.313 334.418 303.937C334.418 307.561 352.894 310.499 375.686 310.499Z" fill="#63737A"/>
<path d="M375.689 376.77C374.605 376.77 373.771 375.95 373.771 374.884V310.578H377.69V374.884C377.69 375.95 376.773 376.77 375.689 376.77Z" fill="#22272E"/>
<path d="M375.688 374.719C375.688 374.719 353.012 376.359 345.842 391.205" stroke="#22272E" stroke-width="4" stroke-miterlimit="10" stroke-linecap="round" stroke-linejoin="round"/>
<path d="M405.617 391.205C398.364 376.359 375.771 374.719 375.771 374.719C375.771 374.719 372.02 377.589 370.436 394.568" stroke="#22272E" stroke-width="4" stroke-miterlimit="10" stroke-linecap="round" stroke-linejoin="round"/>
<path d="M371.747 402.235C375.018 401.475 377.044 398.251 376.272 395.032C375.499 391.814 372.221 389.821 368.95 390.581C365.679 391.341 363.654 394.566 364.426 397.784C365.198 401.002 368.476 402.995 371.747 402.235Z" fill="#A6F4C5"/>
<path d="M409.885 396.656C412.261 394.317 412.261 390.526 409.885 388.188C407.508 385.85 403.655 385.85 401.278 388.188C398.901 390.526 398.901 394.317 401.278 396.656C403.655 398.994 407.508 398.994 409.885 396.656Z" fill="#A6F4C5"/>
<path d="M347.236 398.216C350.507 397.456 352.532 394.231 351.76 391.013C350.987 387.794 347.71 385.802 344.438 386.562C341.167 387.321 339.142 390.546 339.914 393.765C340.687 396.983 343.964 398.976 347.236 398.216Z" stroke="#22272E" stroke-width="1.8" stroke-miterlimit="10" stroke-linecap="round" stroke-linejoin="round"/>
<path d="M235.051 275.07L239.887 386.292C239.97 387.523 239.053 388.589 237.886 388.589C236.886 388.589 235.969 387.687 235.885 386.539L227.465 274.988H235.051V275.07Z" fill="url(#paint35_linear_552_51301)"/>
<path d="M245.472 262.027L250.057 367.836C250.141 369.066 249.224 370.051 248.14 370.051C247.139 370.051 246.306 369.23 246.222 368.164L238.219 262.027H245.472Z" fill="url(#paint36_linear_552_51301)"/>
<path d="M159.269 275.152L144.096 385.472C143.929 386.703 144.762 387.851 145.846 387.933C146.847 388.015 147.847 387.195 148.014 386.128L166.772 275.809L159.269 275.152Z" fill="url(#paint37_linear_552_51301)"/>
<path d="M260.48 157.119C260.48 157.119 265.399 159.334 261.147 178.773C256.895 198.212 249.058 223.967 250.142 253.085C251.143 282.203 231.801 294.26 200.037 292.046C168.273 289.831 218.128 201.575 218.128 201.575C218.128 201.575 253.894 149.163 260.48 157.119Z" fill="url(#paint38_linear_552_51301)"/>
<path d="M175.274 163.028C176.108 159.419 177.858 153.595 184.445 151.216C191.031 148.838 260.227 149.986 261.145 158.434C261.978 166.801 243.97 206.253 244.054 234.469C244.137 262.603 249.223 286.061 215.458 290.736C181.693 295.412 145.511 288.522 149.179 277.203C152.848 265.966 164.019 250.709 167.437 219.623C170.855 188.537 172.189 176.971 175.274 163.028Z" fill="white"/>
<path d="M186.938 80.5926C186.938 80.5926 194.358 95.4386 199.694 108.808C205.029 122.178 205.946 134.563 200.777 137.188C193.524 140.879 185.437 141.125 176.1 123.736C166.763 106.348 173.766 67.0589 186.938 80.5926Z" fill="#22272E"/>
<path d="M147.005 351.758C147.089 352.742 144.088 369.393 144.254 370.623C144.504 371.853 131.499 375.052 125.246 369.557C125.246 369.557 126.163 347.821 126.163 344.54C126.163 341.341 146.422 342.572 147.005 351.758Z" fill="#F4C2C9"/>
<path d="M144.506 367.671C144.506 367.671 145.923 373.822 148.007 377.595C150.092 381.368 161.596 391.949 160.346 395.558C159.095 399.167 148.507 399.495 140.337 399.167C132.167 398.839 128.499 396.05 125.247 390.309C121.913 384.567 124.164 380.712 124.58 369.557C124.58 369.557 124.831 367.671 125.331 367.343C125.331 367.343 126.998 370.213 128.916 370.459C130.833 370.623 132.751 366.112 137.419 365.62C142.088 365.21 142.672 369.721 143.172 369.721C143.755 369.721 144.339 368.983 144.506 367.671Z" fill="#A6F4C5"/>
<path d="M152.092 385.304C152.092 385.304 146.256 382.844 135.418 386.863" stroke="#22272E" stroke-width="1.8" stroke-miterlimit="10" stroke-linecap="round" stroke-linejoin="round"/>
<path d="M150.01 380.796C150.01 380.796 144.174 378.336 133.336 382.355" stroke="#22272E" stroke-width="1.8" stroke-miterlimit="10" stroke-linecap="round" stroke-linejoin="round"/>
<path d="M188.693 348.887C188.776 349.871 185.775 366.522 185.942 367.752C186.192 368.982 173.186 372.181 166.934 366.686C166.934 366.686 167.851 344.95 167.851 341.669C167.851 338.47 188.193 339.7 188.693 348.887Z" fill="#F4C2C9"/>
<path d="M186.273 364.718C186.273 364.718 187.691 370.869 189.775 374.642C191.859 378.415 203.364 388.996 202.114 392.605C200.863 396.214 190.275 396.542 182.105 396.214C173.935 395.886 170.266 393.097 167.015 387.356C163.68 381.614 165.931 377.759 166.348 366.604C166.348 366.604 166.598 364.718 167.098 364.389C167.098 364.389 168.766 367.26 170.683 367.506C172.601 367.67 174.518 363.159 179.187 362.667C183.856 362.257 184.439 366.768 184.939 366.768C185.523 366.85 186.107 366.112 186.273 364.718Z" fill="#A6F4C5"/>
<path d="M193.775 382.433C193.775 382.433 187.94 379.972 177.102 383.992" stroke="#22272E" stroke-width="1.8" stroke-miterlimit="10" stroke-linecap="round" stroke-linejoin="round"/>
<path d="M191.777 377.921C191.777 377.921 185.942 375.461 175.104 379.48" stroke="#22272E" stroke-width="1.8" stroke-miterlimit="10" stroke-linecap="round" stroke-linejoin="round"/>
<path d="M109.743 171.882C109.743 171.882 107.242 186.236 114.411 219.947C116.579 230.2 118.33 243.57 119.58 257.596C122.498 289.584 119.997 322.229 118.497 335.107C116.329 353.562 125.916 357.089 136.254 357.909C146.592 358.729 150.427 354.054 150.927 348.886C151.427 343.719 157.597 274.82 159.931 259.236C162.349 243.652 162.516 222.326 161.765 219.209C161.015 216.092 170.019 216.748 166.267 178.198C162.599 139.484 112.744 161.63 109.743 171.882Z" fill="#01A0C8"/>
<path d="M181.522 173.771C181.522 173.771 194.027 226.43 195.528 242.834C197.028 259.239 193.944 339.702 194.027 344.542C194.194 349.381 189.609 353.728 178.437 353.974C167.266 354.22 162.764 346.92 162.847 342.983C163.097 329.86 163.264 277.612 162.43 269.573C161.596 261.535 149.425 222 147.007 218.227C144.589 214.372 139.253 186.075 149.758 181.153C160.263 176.232 176.77 168.85 181.522 173.771Z" fill="#01A0C8"/>
<path d="M165.763 68.6979C165.763 68.6979 144.42 67.9597 134.499 66.6473C124.578 65.335 106.07 65.253 98.7338 79.9349C91.3972 94.6169 114.157 101.835 113.574 112.252C113.073 122.586 111.489 140.303 111.489 140.303C111.489 140.303 109.405 160.071 107.071 167.535C104.736 174.999 109.155 178.772 111.239 179.428C113.323 180.084 134.999 184.431 151.423 183.529C167.847 182.627 181.269 178.936 182.437 175.327C183.687 171.718 181.686 161.137 182.437 150.064C183.187 138.991 185.355 119.634 185.355 112.252C185.355 104.87 189.023 86.1686 185.355 78.4585C181.686 70.7484 172.849 68.944 165.763 68.6979Z" fill="#A6F4C5"/>
<path d="M137.755 60.004C137.755 60.004 134.337 60.4961 133.169 62.7107C132.419 64.1051 131.502 66.6478 131.585 69.2725C131.669 71.8972 135.67 79.1152 147.259 80.4276C158.931 81.7399 163.016 76.1624 163.516 74.0298C164.016 71.8972 163.182 66.1557 162.349 65.1714C161.598 64.1051 160.348 63.0388 156.179 62.5467C152.094 61.8905 139.089 59.5119 137.755 60.004Z" fill="#22272E"/>
<path d="M154.512 109.874C154.512 109.874 157.93 106.347 159.681 103.722C161.431 101.098 163.766 98.2267 165.683 97.1604C167.601 96.0121 171.602 95.356 172.686 94.7818C173.853 94.2076 175.021 96.2582 172.686 98.1447C170.352 100.031 171.352 105.527 168.101 108.48C164.766 111.432 155.679 113.237 154.512 109.874Z" fill="#B28D93"/>
<path d="M178.77 61.3166L220.871 58.6099C222.122 58.5279 223.122 59.5942 222.956 60.8245L212.618 123.325C212.368 124.72 211.284 125.786 209.867 125.95L169.599 131.364C168.349 131.528 167.265 130.461 167.348 129.231L175.852 64.1054C175.935 62.547 177.186 61.3987 178.77 61.3166Z" fill="#A6F4C5"/>
<path d="M208.533 61.48L192.609 62.3003C192.026 62.3003 191.525 61.8081 191.609 61.234L191.859 59.5935C191.942 58.9374 192.526 58.4452 193.109 58.4452L209.033 57.625C209.617 57.625 210.117 58.1171 210.033 58.6913L209.783 60.3317C209.7 60.9879 209.116 61.398 208.533 61.48Z" fill="#A6F4C5"/>
<path d="M115.66 124.801C115.66 124.801 120.913 104.05 122.246 96.0935C123.58 88.1373 118.495 79.2789 110.658 77.3104C101.487 75.0958 98.6529 79.8531 98.6529 79.8531C98.6529 79.8531 94.9846 86.1688 91.3164 106.018C87.6481 125.868 85.5639 144.323 98.6529 148.834C111.742 153.345 138.587 138.663 147.174 132.347C155.761 126.114 158.929 123.407 160.596 122.997C162.264 122.587 168.85 124.309 172.351 120.454C175.853 116.599 178.854 113.564 179.188 113.564C179.521 113.564 187.858 114.795 189.275 113.728C190.859 112.498 188.525 111.268 186.858 111.022C185.274 110.775 180.438 109.217 180.438 109.217C180.438 109.217 184.19 108.069 186.858 107.084C189.526 106.018 192.277 105.526 192.11 104.132C191.943 102.655 190.276 102.901 188.608 102.819C186.941 102.737 184.69 103.229 184.69 103.229C184.69 103.229 189.275 101.999 190.443 100.687C191.693 99.2924 190.609 98.2261 188.192 98.4721C186.274 98.6362 183.606 99.2924 183.606 99.2924C183.606 99.2924 188.275 98.8822 187.942 96.8317C187.691 95.4373 183.523 96.1755 180.772 96.5036C178.021 96.8317 174.519 97.4879 171.518 98.2261C169.517 98.7182 167.683 99.2924 166.432 99.8665C163.514 101.261 156.178 108.151 155.011 109.545C153.843 110.94 139.17 113.236 127.165 115.861C115.16 118.404 108.157 120.618 104.489 123.981L115.66 124.801Z" fill="#B28D93"/>
<path d="M180.941 96.4219C178.19 96.75 174.688 97.4061 171.687 98.1443C169.686 98.6365 167.852 99.2106 166.602 99.7848" stroke="#896068" stroke-width="1.8" stroke-miterlimit="10" stroke-linecap="round" stroke-linejoin="round"/>
<path d="M157.51 124.801C155.426 126.278 152.258 128.738 147.256 132.347C138.669 138.581 111.824 153.263 98.7347 148.834C85.7291 144.323 87.8133 125.868 91.3982 106.018C95.0665 86.1688 98.7347 79.8531 98.7347 79.8531C98.7347 79.8531 101.569 75.0958 110.74 77.3104C118.493 79.1969 123.662 88.0553 122.328 96.0935C121.495 101.097 119.077 111.268 117.409 118.075C120.327 117.255 123.662 116.517 127.497 115.697C136.001 113.892 145.922 112.17 151.341 110.857C151.257 111.104 150.174 115.533 152.258 119.716C154.175 123.981 157.51 124.801 157.51 124.801Z" fill="#22272E"/>
<path d="M90.565 141.043C90.565 141.043 90.3983 136.614 95.9006 137.188C101.32 137.762 115.659 142.848 111.574 148.835" stroke="#63737A" stroke-width="1.8" stroke-miterlimit="10" stroke-linecap="round" stroke-linejoin="round"/>
<path d="M144.669 112.336C144.669 112.336 143.418 117.093 145.669 121.933C147.92 126.69 152.005 128.986 152.005 128.986" stroke="#63737A" stroke-width="1.8" stroke-miterlimit="10" stroke-linecap="round" stroke-linejoin="round"/>
<path d="M137.087 47.1272C137.087 47.1272 136.837 57.626 136.17 64.1878C135.503 70.7496 147.925 73.4563 153.928 72.308C159.931 71.1597 160.848 69.3552 160.848 69.3552C160.848 69.3552 160.347 60.4968 160.848 57.2979C161.348 54.0991 137.171 43.6822 137.087 47.1272Z" fill="#B28D93"/>
<path d="M160.678 66.9751C160.595 65.6628 160.595 63.9403 160.595 62.2179C155.509 62.4639 151.007 57.8707 147.339 54.0977C146.338 61.9718 153.258 67.0572 160.678 66.9751Z" fill="#896068"/>
<path d="M170.515 33.1858C170.515 33.1858 174.683 31.0532 175.934 24.3274C177.184 17.5195 175.684 7.59484 171.015 6.44653C166.263 5.21619 169.598 19.406 166.43 22.0307C163.262 24.5734 170.515 29.4948 170.515 33.1858Z" fill="#22272E"/>
<path d="M170.35 21.6174C170.35 21.6174 171.767 27.2769 171.267 35.5611C170.767 43.9274 172.434 58.0352 163.18 62.1364C153.926 66.2375 141.671 61.9723 136.669 48.5207C131.666 35.069 131.583 21.6994 139.253 15.9578C147.006 10.1342 167.599 10.9545 170.35 21.6174Z" fill="#B28D93"/>
<path d="M137.67 37.7768C137.67 37.7768 140.504 36.8745 140.588 31.8712C140.588 26.7858 143.339 22.6027 148.841 24.0791C154.344 25.5555 162.014 29.7386 166.516 29.6566C171.851 29.4925 173.519 23.833 173.936 16.8611C174.352 9.80719 172.018 5.54203 169.267 6.28023C166.516 7.01843 164.181 9.31505 160.763 5.0499C156.094 -0.69166 151.926 -0.527616 148.591 2.17912C142.755 7.01843 144.089 9.56112 138.754 7.51056C135.669 6.28023 133.501 6.60832 132.001 12.2679C130.5 17.9274 131.084 19.4858 127.499 18.9937C123.83 18.5015 126.165 37.2026 132.001 41.3858C132.084 41.3858 136.586 37.3667 137.67 37.7768Z" fill="#22272E"/>
<path d="M166.351 39.168C166.684 40.0702 166.851 40.9725 167.101 41.7927C167.351 42.6129 167.601 43.5151 167.852 44.1713C168.018 44.5814 168.268 45.1556 168.268 45.7297C168.268 46.3039 168.185 46.9601 167.768 47.3702C167.018 48.2724 165.934 48.5185 164.934 48.4365C165.767 47.9444 166.518 47.3702 166.768 46.796C167.018 46.2219 166.851 45.5657 166.434 44.8275C166.017 43.8432 165.851 42.941 165.851 41.9567C165.934 40.9725 166.101 40.0702 166.351 39.168Z" fill="#22272E"/>
<path d="M158.263 32.0349C159.014 32.1169 159.597 31.4607 159.347 30.7225C159.097 29.9843 158.93 29.3282 158.097 29.1641C156.346 28.754 152.594 29.0821 150.343 30.7225C148.092 32.363 150.26 32.6911 153.094 32.1169C155.095 31.7888 156.929 31.8709 158.263 32.0349Z" fill="#22272E"/>
<path d="M154.437 48.5216C158.996 48.5216 162.691 44.7391 162.691 40.0733C162.691 35.4074 158.996 31.625 154.437 31.625C149.879 31.625 146.184 35.4074 146.184 40.0733C146.184 44.7391 149.879 48.5216 154.437 48.5216Z" stroke="#22272E" stroke-width="1.8" stroke-miterlimit="10" stroke-linecap="round" stroke-linejoin="round"/>
<path d="M171.693 47.7835C174.64 47.7835 177.029 44.3315 177.029 40.0734C177.029 35.8152 174.64 32.3633 171.693 32.3633C168.746 32.3633 166.357 35.8152 166.357 40.0734C166.357 44.3315 168.746 47.7835 171.693 47.7835Z" stroke="#22272E" stroke-width="1.8" stroke-miterlimit="10" stroke-linecap="round" stroke-linejoin="round"/>
<path d="M166.525 38.3515C166.525 38.3515 165.441 36.8751 162.523 38.3515" stroke="#22272E" stroke-width="1.8" stroke-miterlimit="10" stroke-linecap="round" stroke-linejoin="round"/>
<path d="M146.515 37.6952L136.594 36.957" stroke="#22272E" stroke-width="1.8" stroke-miterlimit="10" stroke-linecap="round" stroke-linejoin="round"/>
<path d="M159.429 54.2613C159.429 54.2613 155.677 54.0152 153.76 50.4062" stroke="#22272E" stroke-width="1.8" stroke-miterlimit="10" stroke-linecap="round" stroke-linejoin="round"/>
<path d="M155.676 43.1871C156.426 43.2691 157.093 42.695 157.176 41.8747L157.26 41.0545C157.343 40.3163 156.76 39.6601 155.926 39.5781C155.176 39.4961 154.509 40.0702 154.425 40.8905L154.342 41.7107C154.259 42.5309 154.842 43.1051 155.676 43.1871Z" fill="#22272E"/>
<path d="M168.01 43.4371C168.76 43.5191 169.427 42.9449 169.51 42.1247L169.594 41.3045C169.677 40.5663 169.093 39.9101 168.26 39.8281C167.509 39.7461 166.843 40.3202 166.759 41.1405L166.676 41.9607C166.676 42.6989 167.259 43.3551 168.01 43.4371Z" fill="#22272E"/>
<path d="M137.339 38.0243C137.339 38.0243 134.921 33.9232 131.669 34.9894C128.418 36.0557 128.501 40.9771 130.085 43.9299C132.086 47.7029 136.672 48.8512 139.089 48.4411" fill="#B28D93"/>
<path d="M131.588 40.9763C131.421 40.5662 131.338 40.1561 131.421 39.6639C131.421 39.4179 131.588 39.1718 131.755 38.9257C132.005 38.6797 132.338 38.5156 132.672 38.5156C133.256 38.5156 133.839 38.7617 134.173 39.1718C134.506 39.4999 134.756 39.91 135.006 40.3201C135.423 41.0583 135.59 41.7965 135.84 42.4527C136.007 42.7808 136.09 43.0268 136.257 43.1909C136.424 43.3549 136.84 43.3549 137.257 43.3549C137.007 43.683 136.59 44.0111 136.007 43.9291C135.423 43.7651 135.09 43.437 134.756 43.1089C134.256 42.3707 133.922 41.7145 133.589 41.0583C133.256 40.4021 132.922 39.91 132.589 39.828C132.505 39.828 132.422 39.746 132.338 39.828C132.255 39.828 132.172 39.91 132.088 40.074C131.922 40.1561 131.755 40.5662 131.588 40.9763Z" fill="#22272E"/>
<path d="M180.94 109.299C180.94 109.299 179.356 108.889 178.188 108.807C177.021 108.643 176.188 108.807 176.188 108.807" stroke="#896068" stroke-width="1.8" stroke-miterlimit="10" stroke-linecap="round" stroke-linejoin="round"/>
<path d="M184.772 103.148C184.772 103.148 176.268 104.953 175.518 105.527" stroke="#896068" stroke-width="1.8" stroke-miterlimit="10" stroke-linecap="round" stroke-linejoin="round"/>
<path d="M183.775 99.2109C183.775 99.2109 177.94 100.441 177.606 100.523C176.522 100.851 174.521 101.426 174.521 101.426" stroke="#896068" stroke-width="1.8" stroke-miterlimit="10" stroke-linecap="round" stroke-linejoin="round"/>
<path d="M117.414 205.596C117.414 205.596 127.168 201.495 127.168 187.551" stroke="#22272E" stroke-width="1.8" stroke-miterlimit="10" stroke-linecap="round" stroke-linejoin="round"/>
<path d="M412.849 253.33C412.849 253.33 438.277 284.663 439.027 295.08C439.778 305.497 397.259 305.086 397.176 302.954C397.009 300.821 390.006 288.682 386.671 288.436C384.504 288.272 381.169 288.108 380.585 290.733C379.752 294.424 380.585 302.134 380.585 302.134L343.986 319.03L340.401 304.02C340.401 304.02 334.232 294.259 334.232 278.183C334.232 262.107 338.984 238.402 338.984 238.402C338.984 238.402 408.681 245.62 412.849 253.33Z" fill="#22272E"/>
<path d="M382.836 404.417C382.836 404.417 385.087 405.893 385.588 409.584C386.088 413.275 388.089 418.771 389.423 423.282C390.757 427.793 394.675 436.57 392.674 438.046C389.839 440.261 382.336 441.819 373.666 442.557C364.995 443.295 360.827 442.803 359.493 440.343C358.242 437.882 360.994 423.774 361.494 418.443C361.994 413.111 361.494 407.534 362.494 405.647C363.495 403.843 378.835 399.331 382.836 404.417Z" fill="#22272E"/>
<path d="M413.598 399.658C413.598 399.658 414.598 401.216 415.599 404.497C416.599 407.696 425.436 421.148 425.353 425.413C425.186 429.76 416.849 429.76 413.598 429.924C409.679 430.088 399.759 429.35 396.507 427.135C393.256 424.921 393.172 417.293 392.922 414.832C392.422 409.911 392.505 406.958 393.673 399.576C394.006 397.197 397.674 396.541 399.675 397.936C401.676 399.248 412.097 396.459 413.598 399.658Z" fill="#22272E"/>
<path d="M381.504 394.656C381.504 394.656 383.005 405.401 383.172 406.713C383.338 407.944 380.921 410.896 373.918 412.373C367.915 413.685 364.33 411.471 363.747 410.65C363.163 409.83 360.412 396.132 359.495 393.016C358.578 389.981 379.587 390.965 381.504 394.656Z" fill="#F4C2C9"/>
<path d="M415.602 392.359C415.602 392.359 413.351 399.905 413.351 400.889C413.351 401.873 409.516 403.924 404.18 403.76C398.928 403.596 394.342 400.725 394.342 399.33C394.342 397.936 395.926 384.566 395.926 384.566C395.926 384.566 415.101 388.585 415.602 392.359Z" fill="#F4C2C9"/>
<path d="M384.586 423.526C384.586 423.526 374.331 420.163 364.661 428.037" stroke="white" stroke-width="1.8" stroke-miterlimit="10" stroke-linecap="round" stroke-linejoin="round"/>
<path d="M381.92 417.539C381.92 417.539 371.832 415.735 365.413 420.902" stroke="white" stroke-width="1.8" stroke-miterlimit="10" stroke-linecap="round" stroke-linejoin="round"/>
<path d="M382.756 408.762C382.756 408.762 381.088 409.747 379.171 408.762C377.253 407.778 375.253 405.974 371.334 406.712C366.582 407.614 365.665 412.453 363.081 410.321C363.081 410.321 362.997 413.602 369.5 413.93C376.003 414.258 382.672 409.829 382.756 408.762Z" fill="#22272E"/>
<path d="M413.683 401.053C413.683 401.053 412.766 402.037 411.265 400.643C409.764 399.33 409.931 397.69 405.846 397.116C403.178 396.788 400.927 398.674 398.926 400.233C396.925 401.791 394.925 399.658 394.508 397.854C394.508 397.854 393.174 402.529 395.008 404.826C396.342 406.548 401.511 405.318 404.595 405.4C407.597 405.482 414.35 404.006 414.35 404.006L413.683 401.053Z" fill="#22272E"/>
<path d="M419.352 413.111C419.352 413.111 411.515 408.354 400.76 414.751" stroke="white" stroke-width="1.8" stroke-miterlimit="10" stroke-linecap="round" stroke-linejoin="round"/>
<path d="M415.6 408.189C415.6 408.189 408.763 403.432 399.343 409.83" stroke="white" stroke-width="1.8" stroke-miterlimit="10" stroke-linecap="round" stroke-linejoin="round"/>
<path d="M370.751 285.977C370.751 285.977 380.839 287.372 381.506 312.142C382.173 336.913 384.257 376.694 387.091 382.271C389.843 387.849 388.926 394.411 383.673 397.035C378.421 399.66 372.335 402.695 364.665 401.875C356.995 401.137 353.327 396.707 353.327 387.931C353.327 379.073 350.075 354.548 345.073 334.535C340.154 314.521 336.736 294.754 346.907 287.618C357.078 280.482 370.751 285.977 370.751 285.977Z" fill="#22272E"/>
<path d="M430.524 284.005C430.524 284.005 445.697 285.891 437.11 322.883C428.523 359.793 422.771 379.314 424.105 384.974C425.438 390.633 421.27 393.668 416.518 394.735C411.849 395.801 402.679 395.637 397.51 392.766C392.257 389.895 391.757 385.302 393.841 376.526C395.926 367.749 396.426 332.644 396.676 320.586C396.926 308.529 393.841 288.024 408.681 282.118C423.604 276.13 430.524 284.005 430.524 284.005Z" fill="#22272E"/>
<path d="M421.021 308.447C414.344 308.447 408.932 303.195 408.932 296.717C408.932 290.24 414.344 284.988 421.021 284.988C427.697 284.988 433.109 290.24 433.109 296.717C433.109 303.195 427.697 308.447 421.021 308.447Z" stroke="#63737A" stroke-width="1.8" stroke-miterlimit="10" stroke-linecap="round" stroke-linejoin="round"/>
<path d="M361.243 317.474C354.567 317.474 349.155 312.223 349.155 305.745C349.155 299.267 354.567 294.016 361.243 294.016C367.92 294.016 373.332 299.267 373.332 305.745C373.332 312.223 367.92 317.474 361.243 317.474Z" stroke="#63737A" stroke-width="1.8" stroke-miterlimit="10" stroke-linecap="round" stroke-linejoin="round"/>
<path d="M333.4 131.037C333.4 131.037 328.481 129.478 326.897 125.951C325.23 122.424 325.48 111.761 328.398 108.398C331.316 105.035 339.486 106.512 344.655 105.035C349.824 103.559 353.409 100.278 362.996 102.083C372.583 103.887 381.421 112.335 381.838 116.929C382.254 121.522 379.503 123.408 380.504 126.361C381.587 129.232 382.838 132.185 378.169 136.696C373.501 141.207 375.335 144.16 371.833 144.16C368.332 144.16 374.668 133.661 370.166 124.639C365.58 115.698 335.901 120.866 333.4 131.037Z" fill="#22272E"/>
<path d="M430.274 185.334C430.274 185.334 441.278 199.606 443.196 210.351C445.113 221.096 439.194 228.068 431.858 229.216C424.521 230.364 399.927 198.786 398.76 192.388C397.676 185.99 426.772 180.331 430.274 185.334Z" fill="#F4C2C9"/>
<path d="M395.174 157.447C395.174 157.447 400.76 155.888 414.182 167.289C425.437 176.804 434.357 185.909 434.357 185.909C434.357 185.909 410.681 207.07 407.429 212.566C407.429 212.566 392.839 195.997 391.589 179.265C390.338 162.45 393.09 156.791 395.174 157.447Z" fill="#63737A"/>
<path d="M430.271 182.137C430.271 182.137 413.181 195.67 403.927 208.138" stroke="#22272E" stroke-width="1.8" stroke-miterlimit="10" stroke-linecap="round" stroke-linejoin="round"/>
<path d="M401.758 164.422C399.674 159.828 395.505 156.466 390.336 156.301C385.334 156.137 377.748 156.219 366.743 156.958C343.066 158.598 324.808 165.242 319.973 168.687C315.137 172.132 321.056 193.458 326.059 205.269C331.061 217.08 336.48 227.825 337.397 231.926C338.23 236.027 334.979 255.384 336.73 259.321C338.481 263.258 357.072 270.066 380.749 268.754C404.426 267.36 414.263 259.896 415.014 257.107C415.681 254.4 412.763 230.121 411.345 221.837C409.928 213.553 408.928 195.344 408.761 192.719C407.26 175.823 403.926 169.179 401.758 164.422Z" fill="#22272E"/>
<path d="M298.387 202.561C304.306 192.554 324.815 212.486 324.315 216.915C324.315 216.915 320.647 224.461 320.647 225.281C320.647 226.101 324.315 246.853 326.816 258.5C327.566 262.109 329.817 266.128 332.568 269.983C326.066 272.362 319.479 274.33 312.726 275.643C303.889 260.469 293.718 237.256 292.134 231.515C289.216 220.77 292.468 212.568 298.387 202.561Z" fill="#F4C2C9"/>
<path d="M320.646 225.281C320.646 225.281 319.146 221.754 315.311 220.195" stroke="#E26E85" stroke-width="1.8" stroke-miterlimit="10" stroke-linecap="round" stroke-linejoin="round"/>
<path d="M319.981 168.602C319.981 168.602 313.228 172.293 306.559 183.366C299.972 194.439 294.72 204.528 294.72 204.528L324.066 219.62C324.066 219.62 332.57 205.922 336.071 199.771C339.573 193.619 339.906 180.988 334.988 173.934C330.235 166.962 322.315 167.044 319.981 168.602Z" fill="#63737A"/>
<path d="M326.818 215.272C326.818 215.272 309.728 204.199 297.139 200.098" stroke="#22272E" stroke-width="1.8" stroke-miterlimit="10" stroke-linecap="round" stroke-linejoin="round"/>
<path d="M328.484 263.093C328.484 263.093 340.239 264.241 342.906 265.717C345.491 267.194 349.576 276.134 349.243 276.955C348.992 277.775 346.408 276.955 346.408 276.955C346.408 276.955 346.741 278.677 344.741 278.677C342.74 278.677 342.406 277.857 342.406 277.857C342.406 277.857 342.74 279.989 340.405 279.907C338.071 279.743 333.236 275.642 333.236 275.642C333.236 275.642 335.82 280.153 334.236 281.22C332.735 282.286 329.234 278.513 328.734 277.775C328.233 277.037 314.978 284.911 309.892 270.393C309.892 270.393 319.48 260.14 328.484 263.093Z" fill="#F4C2C9"/>
<path d="M377.921 155.809C377.921 155.809 381.922 156.219 382.756 156.957C383.59 157.695 386.091 164.093 382.756 170.737C379.421 177.298 369.75 180.661 359.913 177.627C350.075 174.674 345.907 165.323 346.24 162.452C346.574 159.582 348.324 158.679 351.909 157.777C355.494 156.875 377.921 155.809 377.921 155.809Z" fill="#63737A"/>
<path d="M373.163 135.22C373.163 135.22 372.913 142.766 374.831 148.918C375.664 151.707 376.998 154.249 377.832 155.726C378.499 156.956 378.999 158.269 379.166 159.581C379.666 162.944 379.416 168.767 373.163 171.556C363.159 175.985 352.654 167.865 351.237 161.385C351.237 161.385 350.654 154.66 349.153 151.953C347.652 149.328 368.328 132.678 373.163 135.22Z" fill="#F4C2C9"/>
<path d="M351.907 163.272C351.573 162.616 351.406 161.959 351.24 161.385C351.24 161.385 351.156 160.073 350.823 158.35C357.743 157.202 363.828 153.265 367.58 147.934C367.08 155.972 360.077 162.123 351.907 163.272Z" fill="#E26E85"/>
<path d="M435.942 227.903C435.942 227.903 431.857 232.414 413.683 227.903C395.591 223.392 372.081 210.924 368.58 209.694C365.078 208.382 363.744 209.038 359.993 209.038C351.072 209.202 347.404 208.382 346.237 207.808C343.902 206.659 342.819 204.937 343.235 203.46C343.652 201.984 342.402 201.574 342.152 200.262C341.735 197.801 342.652 197.473 342.402 197.309C342.152 197.145 339.651 196.406 339.15 195.75C337.9 193.864 338.9 192.633 338.9 192.633C338.9 192.633 335.732 191.813 331.981 191.485C328.229 191.157 325.978 189.845 327.062 188.532C328.146 187.22 335.482 187.63 340.234 187.63C344.986 187.63 346.654 187.712 346.987 187.548C348.821 186.974 352.406 185.908 354.157 186.072C355.908 186.236 357.908 187.63 361.327 189.435C364.745 191.239 368.58 192.715 373.582 193.946C377.417 194.93 403.178 196.899 419.102 199.851C421.353 200.262 423.437 200.672 425.188 201.164C427.355 201.738 429.106 202.312 430.273 202.886C438.944 207.479 446.53 219.537 435.942 227.903Z" fill="#F4C2C9"/>
<path d="M338.986 192.633C338.986 192.633 341.153 192.305 341.903 192.141C342.737 191.977 343.904 191.977 343.904 191.977" stroke="#E26E85" stroke-width="1.8" stroke-miterlimit="10" stroke-linecap="round" stroke-linejoin="round"/>
<path d="M342.402 197.309C342.402 197.309 343.903 197.719 344.486 197.965" stroke="#E26E85" stroke-width="1.8" stroke-miterlimit="10" stroke-linecap="round" stroke-linejoin="round"/>
<path d="M343.237 202.559C343.237 202.559 344.821 203.461 345.488 203.707" stroke="#E26E85" stroke-width="1.8" stroke-miterlimit="10" stroke-linecap="round" stroke-linejoin="round"/>
<path d="M368.58 209.694C375 202.23 371.748 193.453 371.748 193.453L378.918 194.765C383.003 204.69 375.75 213.056 375.75 213.056L368.58 209.694Z" fill="#22272E"/>
<path d="M347.068 187.547C347.068 187.547 351.57 187.629 352.32 187.957" stroke="#E26E85" stroke-width="1.8" stroke-miterlimit="10" stroke-linecap="round" stroke-linejoin="round"/>
<path d="M419.102 199.852C421.353 200.262 423.437 200.672 425.188 201.164C427.356 201.738 429.106 202.312 430.273 202.886" stroke="#E26E85" stroke-width="1.8" stroke-miterlimit="10" stroke-linecap="round" stroke-linejoin="round"/>
<path d="M371.914 202.558C371.914 200.179 373.831 198.293 376.249 198.293C378.667 198.293 380.584 200.179 380.584 202.558C380.584 204.937 378.667 206.823 376.249 206.823C373.914 206.741 371.914 204.855 371.914 202.558Z" fill="white"/>
<path d="M332.398 117.092C332.398 117.092 330.564 122.505 333.148 130.544C335.733 138.664 337.483 141.617 339.651 148.014C341.902 154.412 347.071 159.99 355.991 159.087C365.329 158.103 372.665 149.737 373.082 139.32C373.499 128.903 374.416 112.663 361.827 109.792C349.405 107.003 334.565 114.303 332.398 117.092Z" fill="#F4C2C9"/>
<path d="M340.653 134.484C340.653 135.469 340.653 136.371 340.486 137.273C340.403 137.683 340.319 138.175 340.236 138.585C340.153 138.832 340.153 138.996 340.069 139.242L339.986 139.57L339.902 139.98C339.736 140.554 339.736 141.128 339.902 141.784C340.153 142.359 340.569 142.933 341.07 143.179C342.07 143.753 343.154 143.835 344.154 143.589C343.237 143.179 342.32 142.769 341.82 142.276C341.236 141.702 341.153 141.128 341.403 140.39L341.486 140.144L341.57 139.734C341.653 139.488 341.653 139.242 341.737 138.996C341.82 138.503 341.82 137.929 341.82 137.437C341.57 136.289 341.236 135.223 340.653 134.484Z" fill="#22272E"/>
<path d="M370.914 130.052C370.914 130.052 368.163 129.396 366.412 122.26C366.412 122.26 365.829 120.62 362.911 122.834C360.076 125.049 355.157 128.658 346.654 124.721C338.15 120.784 337.066 119.471 335.899 120.866C335.899 120.866 334.648 127.1 330.313 125.131C325.978 123.244 328.312 112.089 342.652 108.48C356.991 104.872 367.163 106.102 371.748 113.976C376.417 121.932 374.582 129.56 370.914 130.052Z" fill="#22272E"/>
<path d="M344.738 127.427C344.238 126.853 343.738 125.54 344.405 124.638C345.322 123.244 351.575 122.259 353.075 123.49C354.576 124.72 350.824 124.884 349.074 125.704C347.323 126.606 345.238 128.001 344.738 127.427Z" fill="#22272E"/>
<path d="M336.983 130.956C336.816 130.463 336.316 129.889 335.732 129.643C334.815 129.233 332.898 131.12 333.231 132.35C333.565 133.58 334.482 132.186 335.316 132.022C336.149 131.694 337.233 131.448 336.983 130.956Z" fill="#22272E"/>
<path d="M349.494 132.182C349.244 131.526 349.578 130.788 350.328 130.542C350.995 130.296 351.745 130.624 351.995 131.362L352.162 131.772L349.744 132.674L349.494 132.182Z" fill="#22272E"/>
<path d="M336.979 136.772C336.729 136.116 337.062 135.378 337.812 135.132C338.479 134.886 339.23 135.214 339.48 135.952L339.646 136.362L337.229 137.264L336.979 136.772Z" fill="#22272E"/>
<path d="M369.413 131.446C369.413 131.446 370.83 125.868 374.999 125.95C379.167 126.032 381.085 137.187 371.497 138.91" fill="#F4C2C9"/>
<path d="M375.666 131.035C375.666 130.625 375.583 130.297 375.249 129.887C375.082 129.723 374.832 129.559 374.499 129.559C374.249 129.559 373.915 129.641 373.749 129.723C373.665 129.723 373.498 129.887 373.415 129.969C373.248 130.051 373.248 130.215 373.165 130.297C373.082 130.461 373.082 130.543 372.998 130.625C372.998 130.707 372.915 130.871 372.915 130.953C372.831 131.363 372.831 131.691 372.831 132.019C372.831 132.675 372.831 133.332 372.831 133.906C372.831 134.152 372.748 134.398 372.581 134.644C372.415 134.89 372.164 135.054 371.831 135.218C372.164 135.382 372.581 135.382 372.998 135.218C373.415 135.054 373.749 134.644 373.915 134.234C374.249 133.496 374.332 132.757 374.332 132.019C374.332 131.363 374.415 130.625 374.415 130.625C374.582 130.461 374.666 130.379 374.916 130.379C375.082 130.543 375.333 130.789 375.666 131.035Z" fill="#22272E"/>
<path d="M349.737 148.919C349.403 148.427 349.07 147.934 348.903 147.524C348.57 146.786 348.903 145.966 349.653 145.72C350.487 145.392 351.571 144.818 352.821 143.833C355.406 141.783 356.573 143.587 356.406 145.884C353.905 146.13 351.654 147.688 349.737 148.919Z" fill="#22272E"/>
<path d="M356.406 145.801C356.24 147.769 355.156 150.148 352.988 150.476C351.571 150.722 350.487 149.902 349.737 148.918C351.654 147.687 353.905 146.129 356.406 145.801Z" fill="#E26E85"/>
<path d="M49.5486 281.629L37.2933 449.775C37.2099 451.169 38.3771 452.399 39.7944 452.399C41.1283 452.399 42.2121 451.415 42.2954 450.185L57.0518 281.711H49.5486V281.629Z" fill="url(#paint39_linear_552_51301)"/>
<path d="M544.177 281.629L556.432 449.775C556.516 451.169 555.349 452.399 553.931 452.399C552.597 452.399 551.514 451.415 551.43 450.185L536.674 281.711H544.177V281.629Z" fill="url(#paint40_linear_552_51301)"/>
<path d="M570.277 278.103H23.457L85.9841 253.332H507.667L570.277 278.103Z" fill="white"/>
<path d="M570.36 278.102H23.457V284.253H570.36V278.102Z" fill="url(#paint41_linear_552_51301)"/>
<path d="M240.885 249.227H275.984C276.901 249.227 277.818 249.473 278.651 250.047L310.499 270.962C311.582 271.619 311.082 273.259 309.832 273.259H259.06C257.892 273.259 256.809 272.767 256.058 271.783L239.885 251.277C239.218 250.457 239.801 249.227 240.885 249.227Z" fill="#01A0C8"/>
<path d="M262.562 266.781H295.327" stroke="#A6F4C5" stroke-width="1.8" stroke-miterlimit="10" stroke-linecap="round" stroke-linejoin="round"/>
<path d="M286.241 260.628L279.405 255.543C279.071 255.297 278.738 255.215 278.404 255.215H269.484C269.15 255.215 269.067 255.543 269.234 255.789L274.403 260.71C274.736 261.038 275.153 261.202 275.57 261.202H286.074C286.408 261.202 286.491 260.874 286.241 260.628Z" fill="#22272E"/>
<path d="M267.734 261.203H258.73" stroke="#A6F4C5" stroke-width="1.8" stroke-miterlimit="10" stroke-linecap="round" stroke-linejoin="round"/>
<path d="M264.81 257.84H256.723" stroke="#A6F4C5" stroke-width="1.8" stroke-miterlimit="10" stroke-linecap="round" stroke-linejoin="round"/>
<path d="M443.561 276.627L433.557 277.365C432.723 277.447 431.806 277.365 430.972 277.119L385.286 264.816C384.285 264.57 383.535 263.586 383.535 262.519L461.235 260.633L443.561 276.627Z" fill="#63737A"/>
<path d="M432.391 273.838L451.733 223.23C452.4 221.426 454.234 220.195 456.151 220.277L535.519 221.754C537.27 221.754 538.52 223.558 537.77 225.199L519.429 269.409C518.762 271.049 517.178 272.115 515.427 272.279L434.892 277.283C433.141 277.283 431.807 275.478 432.391 273.838Z" fill="#22272E"/>
<path d="M435.224 277.284L433.557 277.366C432.723 277.448 431.806 277.366 430.972 277.119L385.286 264.816C384.285 264.488 383.535 263.586 383.535 262.52L433.64 274.331L435.224 277.284Z" fill="#22272E"/>
<path d="M499.502 247.591C498.585 250.708 495.333 253.251 492.165 253.251C488.997 253.251 487.163 250.708 488.08 247.591C488.997 244.474 492.249 241.932 495.417 241.932C498.585 241.85 500.419 244.474 499.502 247.591Z" fill="#63737A"/>
<path d="M259.559 93.224H230.213L227.212 95.1105C226.295 95.6846 224.961 95.0285 224.961 93.9622V73.5386C224.961 71.4881 226.628 69.7656 228.796 69.7656H259.476C261.56 69.7656 263.311 71.4061 263.311 73.5386V89.451C263.311 91.5835 261.643 93.224 259.559 93.224Z" fill="#F4C2C9"/>
<path d="M233.711 85.6788L236.629 82.808C238.213 81.2496 240.714 81.2496 242.298 82.808C243.882 84.3664 246.383 84.3664 247.967 82.808L253.553 77.3125" stroke="#22272E" stroke-width="1.8" stroke-linecap="round" stroke-linejoin="round"/>
<path d="M254.473 78.9527L255.474 75.4258L251.889 76.41L254.473 78.9527Z" fill="#22272E"/>
<path d="M517.173 188.536L440.307 179.678C438.056 179.432 436.722 177.463 437.222 175.249L454.98 95.3591C455.396 93.4726 457.231 91.9142 459.231 91.6681L539.433 83.3839C541.517 83.1378 543.101 84.7783 542.684 86.7468L521.425 185.502C520.925 187.388 519.091 188.782 517.173 188.536Z" fill="#63737A"/>
<path d="M514.089 188.536L436.556 179.596C434.305 179.35 432.887 177.381 433.388 175.167L451.312 94.7029C451.729 92.7343 453.563 91.1759 455.647 91.0119L536.432 82.6456C538.516 82.3995 540.1 84.04 539.684 86.0085L518.174 185.584C517.841 187.388 515.923 188.782 514.089 188.536Z" fill="#22272E"/>
<path d="M485.494 111.353L456.315 112.747C455.565 112.747 454.981 112.173 455.148 111.435L457.482 100.772C457.649 100.198 458.149 99.7059 458.816 99.6239L488.245 97.1632C489.079 97.0812 489.579 97.7374 489.413 98.4756L486.828 110.287C486.745 110.779 486.161 111.271 485.494 111.353Z" fill="#A6F4C5"/>
<path d="M446.889 171.143C446.222 171.061 445.806 170.487 445.972 169.913L450.307 149.899C450.474 149.243 451.058 148.751 451.725 148.833C452.392 148.915 452.809 149.407 452.642 150.063L448.307 170.159C448.223 170.733 447.556 171.225 446.889 171.143Z" fill="#F4C2C9"/>
<path d="M457.226 170.901L462.395 147.278C462.562 146.622 463.145 146.13 463.812 146.212H463.979C464.646 146.212 465.063 146.786 464.98 147.442L459.811 171.065C459.644 171.721 458.977 172.213 458.31 172.131H458.143C457.476 172.131 457.059 171.557 457.226 170.901Z" fill="#01A0C8"/>
<path d="M468.482 171.802L474.317 144.816C474.484 144.078 475.151 143.586 475.901 143.586C476.652 143.586 477.152 144.242 476.985 144.98L471.149 171.966C470.983 172.704 470.232 173.196 469.482 173.196C468.815 173.196 468.315 172.54 468.482 171.802Z" fill="#A6F4C5"/>
<path d="M510.166 120.869L512.084 124.889C509.749 127.513 506.915 129.154 504.247 129.154C499.078 129.154 496.327 123.002 497.994 115.374C499.661 107.746 505.164 101.266 510.416 100.856C513.167 100.61 515.252 102.004 516.502 104.465L512.834 108.73C512.084 107.254 510.833 106.352 509.249 106.516C506.081 106.762 502.746 110.617 501.662 115.292C500.662 119.885 502.329 123.658 505.497 123.576C507.165 123.412 508.832 122.428 510.166 120.869Z" fill="#A6F4C5"/>
<path d="M517.338 114.472C516.421 118.491 514.504 122.182 512.169 124.806L510.252 120.787C511.669 119.229 512.836 117.014 513.337 114.636C513.837 112.257 513.67 110.124 512.92 108.648L516.588 104.383C517.839 106.926 518.172 110.452 517.338 114.472Z" fill="#01A0C8"/>
<path d="M487.91 160.651C486.243 168.279 488.994 174.431 494.163 174.431C496.831 174.431 499.665 172.791 502 170.166L500.082 166.147C498.665 167.705 496.997 168.689 495.413 168.772C492.245 168.854 490.578 165.081 491.578 160.487C491.995 158.437 492.996 156.468 494.163 154.992L492.412 151.219C490.328 153.843 488.66 157.124 487.91 160.651Z" fill="#A6F4C5"/>
<path d="M499.166 151.793C500.75 151.711 502.084 152.531 502.751 154.008L506.42 149.742C505.169 147.282 503.001 145.887 500.334 146.133C497.499 146.379 494.664 148.348 492.33 151.219L494.081 154.992C495.581 153.187 497.332 151.875 499.166 151.793Z" fill="#01A0C8"/>
<path d="M507.166 159.913C506.249 163.932 504.332 167.623 501.998 170.248L500.08 166.229C501.497 164.67 502.665 162.456 503.165 160.077C503.665 157.698 503.498 155.566 502.748 154.089L506.416 149.824C507.667 152.285 508.084 155.894 507.166 159.913Z" fill="#F4C2C9"/>
<path d="M454.143 119.883L474.651 119.145" stroke="#63737A" stroke-width="1.8" stroke-miterlimit="10" stroke-linecap="round" stroke-linejoin="round"/>
<path d="M452.979 124.476L482.325 124.148" stroke="#63737A" stroke-width="1.8" stroke-miterlimit="10" stroke-linecap="round" stroke-linejoin="round"/>
<path d="M452.061 129.234H481.74" stroke="#63737A" stroke-width="1.8" stroke-miterlimit="10" stroke-linecap="round" stroke-linejoin="round"/>
<path d="M528.762 90.6014C528.929 89.9453 528.678 89.4531 528.178 89.4531C527.678 89.5351 527.178 90.1093 527.094 90.7655C526.928 91.4217 527.178 91.9138 527.678 91.9138C528.178 91.8318 528.678 91.2576 528.762 90.6014Z" fill="#63737A"/>
<path d="M533.599 90.1913C533.766 89.5351 533.433 89.043 533.016 89.043C532.515 89.125 532.015 89.6991 531.849 90.3553C531.682 91.0115 532.015 91.5036 532.432 91.5036C533.016 91.4216 533.516 90.8475 533.599 90.1913Z" fill="#63737A"/>
<path d="M224.966 271.865V272.112C224.966 272.932 224.299 273.588 223.465 273.588H152.768C151.935 273.588 151.268 272.932 151.268 272.112C151.268 271.619 151.518 271.127 151.851 270.717L165.524 257.43C166.191 256.773 167.024 256.445 167.858 256.445H214.295C215.462 256.445 216.629 257.101 217.213 258.086L224.716 270.799C224.799 271.209 224.966 271.537 224.966 271.865Z" fill="#22272E"/>
<path d="M189.7 268.34C189.7 268.586 189.199 268.832 188.532 268.832C187.865 268.832 187.365 268.586 187.365 268.34C187.365 268.094 187.865 267.848 188.532 267.848C189.199 267.848 189.7 268.094 189.7 268.34Z" fill="#63737A"/>
<path d="M470.735 344.786C470.735 344.786 464.316 331.252 480.406 322.722C496.496 314.191 518.839 322.639 516.838 325.592C515.588 327.397 512.336 332.646 506.25 339.126C501.165 344.621 486.575 353.152 470.735 344.786Z" fill="#A6F4C5"/>
<path d="M514.007 325.017C514.007 325.017 478.658 317.225 470.654 344.784C462.734 372.344 465.152 398.755 465.152 398.755" stroke="#22272E" stroke-width="1.8" stroke-miterlimit="10" stroke-linecap="round" stroke-linejoin="round"/>
<path d="M438.891 375.789L444.643 442.473C444.643 445.016 455.148 446.984 468.153 446.984C481.076 446.984 491.663 444.934 491.663 442.473L497.416 375.789H438.891Z" fill="#22272E"/>
<path d="M468.152 380.136C484.267 380.136 497.331 378.189 497.331 375.789C497.331 373.388 484.267 371.441 468.152 371.441C452.037 371.441 438.973 373.388 438.973 375.789C438.973 378.189 452.037 380.136 468.152 380.136Z" fill="#A6F4C5"/>
<path d="M460.732 361.927C460.732 361.927 451.311 357.334 445.225 367.669C439.139 378.086 443.641 393.588 447.81 395.885C451.978 398.181 469.319 390.389 469.319 374.723C469.319 360.779 460.732 361.927 460.732 361.927Z" fill="#A6F4C5"/>
<path d="M460.736 361.931C460.736 361.931 451.315 361.274 448.48 393.755" stroke="#22272E" stroke-width="1.8" stroke-miterlimit="10" stroke-linecap="round" stroke-linejoin="round"/>
<path d="M453.563 342.98C453.563 342.98 443.642 327.806 423.8 337.567C403.959 347.328 404.542 374.231 407.627 375.789C410.795 377.348 457.148 361.435 453.563 342.98Z" fill="#A6F4C5"/>
<path d="M469.318 374.725C469.318 374.725 463.149 353.399 453.562 342.901C443.891 332.402 414.211 344.459 408.959 369.804" stroke="#22272E" stroke-width="1.8" stroke-miterlimit="10" stroke-linecap="round" stroke-linejoin="round"/>
<path d="M480.407 351.513C480.407 351.513 471.987 348.642 468.152 358.895C464.4 368.902 468.819 391.704 490.495 398.594C491.662 398.922 492.913 398.594 493.663 397.692C496.331 394.657 501.917 386.701 501.917 374.725C501.833 358.075 492.496 346.017 480.407 351.513Z" fill="#A6F4C5"/>
<path d="M480.406 351.512C480.406 351.512 497.914 359.96 491.494 395.476" stroke="#22272E" stroke-width="1.8" stroke-miterlimit="10" stroke-linecap="round" stroke-linejoin="round"/>
</g>
<defs>
<linearGradient id="paint0_linear_552_51301" x1="-143.875" y1="215.964" x2="-27.9278" y2="394.949" gradientUnits="userSpaceOnUse">
<stop stop-color="#595CFF" stop-opacity="0.72"/>
<stop offset="1" stop-color="#C6F8FF"/>
</linearGradient>
<linearGradient id="paint1_linear_552_51301" x1="311.516" y1="124.857" x2="489.609" y2="321.587" gradientUnits="userSpaceOnUse">
<stop stop-color="#595CFF" stop-opacity="0.72"/>
<stop offset="1" stop-color="#C6F8FF"/>
</linearGradient>
<linearGradient id="paint2_linear_552_51301" x1="27.4605" y1="172.492" x2="38.1179" y2="186.205" gradientUnits="userSpaceOnUse">
<stop stop-color="#595CFF" stop-opacity="0.72"/>
<stop offset="1" stop-color="#C6F8FF"/>
</linearGradient>
<linearGradient id="paint3_linear_552_51301" x1="29.5763" y1="158.096" x2="37.3048" y2="168.538" gradientUnits="userSpaceOnUse">
<stop stop-color="#595CFF" stop-opacity="0.72"/>
<stop offset="1" stop-color="#C6F8FF"/>
</linearGradient>
<linearGradient id="paint4_linear_552_51301" x1="75.0063" y1="204.059" x2="86.6909" y2="233.687" gradientUnits="userSpaceOnUse">
<stop stop-color="#595CFF" stop-opacity="0.72"/>
<stop offset="1" stop-color="#C6F8FF"/>
</linearGradient>
<linearGradient id="paint5_linear_552_51301" x1="93.4382" y1="206.23" x2="93.8238" y2="209.046" gradientUnits="userSpaceOnUse">
<stop stop-color="#595CFF" stop-opacity="0.72"/>
<stop offset="1" stop-color="#C6F8FF"/>
</linearGradient>
<linearGradient id="paint6_linear_552_51301" x1="75.0063" y1="241.626" x2="86.6909" y2="271.254" gradientUnits="userSpaceOnUse">
<stop stop-color="#595CFF" stop-opacity="0.72"/>
<stop offset="1" stop-color="#C6F8FF"/>
</linearGradient>
<linearGradient id="paint7_linear_552_51301" x1="93.4382" y1="243.796" x2="93.8238" y2="246.613" gradientUnits="userSpaceOnUse">
<stop stop-color="#595CFF" stop-opacity="0.72"/>
<stop offset="1" stop-color="#C6F8FF"/>
</linearGradient>
<linearGradient id="paint8_linear_552_51301" x1="461.093" y1="268.2" x2="472.777" y2="297.828" gradientUnits="userSpaceOnUse">
<stop stop-color="#595CFF" stop-opacity="0.72"/>
<stop offset="1" stop-color="#C6F8FF"/>
</linearGradient>
<linearGradient id="paint9_linear_552_51301" x1="479.606" y1="270.289" x2="479.992" y2="273.105" gradientUnits="userSpaceOnUse">
<stop stop-color="#595CFF" stop-opacity="0.72"/>
<stop offset="1" stop-color="#C6F8FF"/>
</linearGradient>
<linearGradient id="paint10_linear_552_51301" x1="364.548" y1="268.2" x2="376.232" y2="297.828" gradientUnits="userSpaceOnUse">
<stop stop-color="#595CFF" stop-opacity="0.72"/>
<stop offset="1" stop-color="#C6F8FF"/>
</linearGradient>
<linearGradient id="paint11_linear_552_51301" x1="383.061" y1="270.289" x2="383.447" y2="273.105" gradientUnits="userSpaceOnUse">
<stop stop-color="#595CFF" stop-opacity="0.72"/>
<stop offset="1" stop-color="#C6F8FF"/>
</linearGradient>
<linearGradient id="paint12_linear_552_51301" x1="-20.8707" y1="204.059" x2="-9.18604" y2="233.687" gradientUnits="userSpaceOnUse">
<stop stop-color="#595CFF" stop-opacity="0.72"/>
<stop offset="1" stop-color="#C6F8FF"/>
</linearGradient>
<linearGradient id="paint13_linear_552_51301" x1="-2.43874" y1="206.23" x2="-2.05317" y2="209.046" gradientUnits="userSpaceOnUse">
<stop stop-color="#595CFF" stop-opacity="0.72"/>
<stop offset="1" stop-color="#C6F8FF"/>
</linearGradient>
<linearGradient id="paint14_linear_552_51301" x1="-20.8707" y1="241.626" x2="-9.18605" y2="271.254" gradientUnits="userSpaceOnUse">
<stop stop-color="#595CFF" stop-opacity="0.72"/>
<stop offset="1" stop-color="#C6F8FF"/>
</linearGradient>
<linearGradient id="paint15_linear_552_51301" x1="-2.43874" y1="243.796" x2="-2.05317" y2="246.613" gradientUnits="userSpaceOnUse">
<stop stop-color="#595CFF" stop-opacity="0.72"/>
<stop offset="1" stop-color="#C6F8FF"/>
</linearGradient>
<linearGradient id="paint16_linear_552_51301" x1="328.079" y1="109.048" x2="345.03" y2="190.539" gradientUnits="userSpaceOnUse">
<stop stop-color="#595CFF" stop-opacity="0.72"/>
<stop offset="1" stop-color="#C6F8FF"/>
</linearGradient>
<linearGradient id="paint17_linear_552_51301" x1="328.079" y1="190.165" x2="345.03" y2="271.656" gradientUnits="userSpaceOnUse">
<stop stop-color="#595CFF" stop-opacity="0.72"/>
<stop offset="1" stop-color="#C6F8FF"/>
</linearGradient>
<linearGradient id="paint18_linear_552_51301" x1="276.661" y1="136.795" x2="285.1" y2="138.324" gradientUnits="userSpaceOnUse">
<stop stop-color="#595CFF" stop-opacity="0.72"/>
<stop offset="1" stop-color="#C6F8FF"/>
</linearGradient>
<linearGradient id="paint19_linear_552_51301" x1="284.902" y1="146.64" x2="293.4" y2="148.842" gradientUnits="userSpaceOnUse">
<stop stop-color="#595CFF" stop-opacity="0.72"/>
<stop offset="1" stop-color="#C6F8FF"/>
</linearGradient>
<linearGradient id="paint20_linear_552_51301" x1="525.438" y1="217.834" x2="533.877" y2="219.363" gradientUnits="userSpaceOnUse">
<stop stop-color="#595CFF" stop-opacity="0.72"/>
<stop offset="1" stop-color="#C6F8FF"/>
</linearGradient>
<linearGradient id="paint21_linear_552_51301" x1="533.676" y1="227.679" x2="542.174" y2="229.881" gradientUnits="userSpaceOnUse">
<stop stop-color="#595CFF" stop-opacity="0.72"/>
<stop offset="1" stop-color="#C6F8FF"/>
</linearGradient>
<linearGradient id="paint22_linear_552_51301" x1="508.598" y1="217.834" x2="517.038" y2="219.363" gradientUnits="userSpaceOnUse">
<stop stop-color="#595CFF" stop-opacity="0.72"/>
<stop offset="1" stop-color="#C6F8FF"/>
</linearGradient>
<linearGradient id="paint23_linear_552_51301" x1="499.2" y1="217.176" x2="506.749" y2="221.192" gradientUnits="userSpaceOnUse">
<stop stop-color="#595CFF" stop-opacity="0.72"/>
<stop offset="1" stop-color="#C6F8FF"/>
</linearGradient>
<linearGradient id="paint24_linear_552_51301" x1="516.918" y1="227.679" x2="525.416" y2="229.881" gradientUnits="userSpaceOnUse">
<stop stop-color="#595CFF" stop-opacity="0.72"/>
<stop offset="1" stop-color="#C6F8FF"/>
</linearGradient>
<linearGradient id="paint25_linear_552_51301" x1="414.055" y1="136.795" x2="422.495" y2="138.324" gradientUnits="userSpaceOnUse">
<stop stop-color="#595CFF" stop-opacity="0.72"/>
<stop offset="1" stop-color="#C6F8FF"/>
</linearGradient>
<linearGradient id="paint26_linear_552_51301" x1="422.379" y1="146.64" x2="430.877" y2="148.842" gradientUnits="userSpaceOnUse">
<stop stop-color="#595CFF" stop-opacity="0.72"/>
<stop offset="1" stop-color="#C6F8FF"/>
</linearGradient>
<linearGradient id="paint27_linear_552_51301" x1="332.604" y1="136.795" x2="341.043" y2="138.324" gradientUnits="userSpaceOnUse">
<stop stop-color="#595CFF" stop-opacity="0.72"/>
<stop offset="1" stop-color="#C6F8FF"/>
</linearGradient>
<linearGradient id="paint28_linear_552_51301" x1="323.225" y1="136.07" x2="330.774" y2="140.087" gradientUnits="userSpaceOnUse">
<stop stop-color="#595CFF" stop-opacity="0.72"/>
<stop offset="1" stop-color="#C6F8FF"/>
</linearGradient>
<linearGradient id="paint29_linear_552_51301" x1="340.842" y1="146.64" x2="349.34" y2="148.842" gradientUnits="userSpaceOnUse">
<stop stop-color="#595CFF" stop-opacity="0.72"/>
<stop offset="1" stop-color="#C6F8FF"/>
</linearGradient>
<linearGradient id="paint30_linear_552_51301" x1="520.933" y1="129.441" x2="541.57" y2="138.138" gradientUnits="userSpaceOnUse">
<stop stop-color="#595CFF" stop-opacity="0.72"/>
<stop offset="1" stop-color="#C6F8FF"/>
</linearGradient>
<linearGradient id="paint31_linear_552_51301" x1="487.75" y1="129.441" x2="508.387" y2="138.138" gradientUnits="userSpaceOnUse">
<stop stop-color="#595CFF" stop-opacity="0.72"/>
<stop offset="1" stop-color="#C6F8FF"/>
</linearGradient>
<linearGradient id="paint32_linear_552_51301" x1="160.879" y1="331.624" x2="160.88" y2="332.79" gradientUnits="userSpaceOnUse">
<stop stop-color="#595CFF" stop-opacity="0.72"/>
<stop offset="1" stop-color="#C6F8FF"/>
</linearGradient>
<linearGradient id="paint33_linear_552_51301" x1="75.4488" y1="279.168" x2="93.3075" y2="281.037" gradientUnits="userSpaceOnUse">
<stop stop-color="#595CFF" stop-opacity="0.72"/>
<stop offset="1" stop-color="#C6F8FF"/>
</linearGradient>
<linearGradient id="paint34_linear_552_51301" x1="508.14" y1="279.168" x2="525.999" y2="281.037" gradientUnits="userSpaceOnUse">
<stop stop-color="#595CFF" stop-opacity="0.72"/>
<stop offset="1" stop-color="#C6F8FF"/>
</linearGradient>
<linearGradient id="paint35_linear_552_51301" x1="229.989" y1="289.03" x2="242.986" y2="290.317" gradientUnits="userSpaceOnUse">
<stop stop-color="#595CFF" stop-opacity="0.72"/>
<stop offset="1" stop-color="#C6F8FF"/>
</linearGradient>
<linearGradient id="paint36_linear_552_51301" x1="240.624" y1="275.379" x2="253.01" y2="276.609" gradientUnits="userSpaceOnUse">
<stop stop-color="#595CFF" stop-opacity="0.72"/>
<stop offset="1" stop-color="#C6F8FF"/>
</linearGradient>
<linearGradient id="paint37_linear_552_51301" x1="148.684" y1="289.093" x2="171.884" y2="293.322" gradientUnits="userSpaceOnUse">
<stop stop-color="#595CFF" stop-opacity="0.72"/>
<stop offset="1" stop-color="#C6F8FF"/>
</linearGradient>
<linearGradient id="paint38_linear_552_51301" x1="204.366" y1="173.107" x2="266.945" y2="203.709" gradientUnits="userSpaceOnUse">
<stop stop-color="#595CFF" stop-opacity="0.72"/>
<stop offset="1" stop-color="#C6F8FF"/>
</linearGradient>
<linearGradient id="paint39_linear_552_51301" x1="41.303" y1="302.737" x2="61.9472" y2="304.901" gradientUnits="userSpaceOnUse">
<stop stop-color="#595CFF" stop-opacity="0.72"/>
<stop offset="1" stop-color="#C6F8FF"/>
</linearGradient>
<linearGradient id="paint40_linear_552_51301" x1="540.688" y1="302.737" x2="561.332" y2="304.901" gradientUnits="userSpaceOnUse">
<stop stop-color="#595CFF" stop-opacity="0.72"/>
<stop offset="1" stop-color="#C6F8FF"/>
</linearGradient>
<linearGradient id="paint41_linear_552_51301" x1="134.536" y1="278.862" x2="134.625" y2="286.033" gradientUnits="userSpaceOnUse">
<stop stop-color="#595CFF" stop-opacity="0.72"/>
<stop offset="1" stop-color="#C6F8FF"/>
</linearGradient>
</defs>
</svg>
