<svg width="448" height="567" viewBox="0 0 448 567" fill="none" xmlns="http://www.w3.org/2000/svg">
<g clip-path="url(#clip0_166_9872)">
<path opacity="0.5" d="M35.2734 270.157C35.2734 247.215 50.3911 224.272 80.4637 206.754C109.073 190.103 146.298 181.37 183.957 180.448V224.76C146.027 225.628 109.073 234.415 80.4637 251.066C50.3911 268.584 35.3276 291.527 35.2734 314.469V270.157Z" fill="#D3D3F5"/>
<path d="M189.102 125.669V190.754C261.655 181.859 305.057 203.662 319.145 210.822C319.145 189.127 319.145 167.432 319.145 145.737C263.768 117.099 207.633 123.499 189.102 125.669Z" fill="#DADFF6"/>
<path d="M301.477 189.561C301.477 174.374 301.477 174.374 300.773 172.313C300.106 170.17 298.966 168.203 297.437 166.56C295.909 164.917 294.03 163.64 291.941 162.822C287.986 161.574 278.666 158.645 278.124 169.168C278.124 173.073 278.124 178.28 278.124 182.185C286.078 184.134 293.897 186.598 301.532 189.561H301.477ZM290.045 160.923C297.522 162.876 299.093 155.5 295.842 150.076C291.887 143.567 284.03 143.134 282.675 149.425C282.374 151.914 282.944 154.431 284.288 156.547C285.631 158.663 287.665 160.248 290.045 161.032V160.923ZM289.557 140.205C313.669 149.208 320.659 183.595 304.837 191.568C287.335 200.137 256.883 175.296 264.794 152.3C265.598 149.858 266.883 147.603 268.571 145.667C270.26 143.73 272.319 142.152 274.627 141.024C276.935 139.897 279.445 139.244 282.009 139.103C284.573 138.962 287.14 139.337 289.557 140.205Z" fill="#F4F4FA"/>
<path d="M196.578 132.72C216.869 130.572 237.35 130.991 257.536 133.968C257.536 137.547 257.536 142.32 257.536 145.9C237.368 142.925 216.905 142.506 196.632 144.652V132.72H196.578Z" fill="#F4F4FA"/>
<path d="M196.469 178.93C216.742 176.782 237.204 177.201 257.373 180.178V184.679C237.207 181.677 216.741 181.258 196.469 183.432V178.93Z" fill="#F4F4FA"/>
<path d="M196.523 152.028C216.814 149.879 237.295 150.298 257.481 153.275V157.777C237.316 154.773 216.849 154.354 196.578 156.53V152.028H196.523Z" fill="#F4F4FA"/>
<path d="M196.523 160.923C216.796 158.775 237.259 159.194 257.427 162.171V166.672C237.24 163.697 216.76 163.278 196.469 165.425V160.923H196.523Z" fill="#F4F4FA"/>
<path d="M196.469 169.927C216.761 167.806 237.238 168.225 257.427 171.174V175.676C237.238 172.729 216.761 172.31 196.469 174.428V169.927Z" fill="#F4F4FA"/>
<path d="M290.098 145.249C297.684 148.069 299.743 158.103 294.812 160.761C288.96 163.852 280.616 155.337 282.892 148.666C283.114 147.949 283.483 147.287 283.974 146.721C284.465 146.154 285.069 145.696 285.746 145.375C286.423 145.054 287.16 144.877 287.909 144.855C288.658 144.833 289.404 144.967 290.098 145.249Z" fill="#B4BCE2"/>
<path d="M288.149 161.629C291.732 162.264 294.998 164.085 297.425 166.799C299.851 169.513 301.298 172.964 301.533 176.598C301.533 180.503 301.533 185.656 301.533 189.561C293.9 186.591 286.081 184.127 278.125 182.185C278.125 166.998 278.125 166.998 278.992 165.371C279.774 163.7 281.157 162.387 282.865 161.693C284.573 160.999 286.479 160.976 288.203 161.629H288.149Z" fill="#B4BCE2"/>
<path d="M288.477 161.736L291.673 162.767L288.477 161.736Z" fill="#B4BCE2"/>
<path opacity="0.4" d="M170.954 116.827C154.088 121.932 137.841 128.9 122.513 137.6C116.908 140.829 111.482 144.36 106.258 148.176V205.235C111.479 201.331 116.905 197.71 122.513 194.387C137.841 185.687 154.088 178.719 170.954 173.614V116.827Z" fill="#5762E3"/>
<path d="M46.8203 441.983V460.152C46.8203 487.271 64.8098 514.715 100.626 535.543C172.692 577.468 289.839 577.468 362.393 535.543C398.913 514.444 417.119 486.729 417.065 459.122V440.952C417.065 468.613 398.913 496.274 362.393 517.373C289.839 559.299 172.746 559.299 100.626 517.373C64.8098 496.546 46.8745 469.318 46.8203 441.983Z" fill="#E7E6F1"/>
<mask id="mask0_166_9872" style="mask-type:luminance" maskUnits="userSpaceOnUse" x="46" y="440" width="372" height="127">
<path d="M46.8203 441.983V460.152C46.8203 487.271 64.8098 514.715 100.626 535.543C172.692 577.468 289.839 577.468 362.393 535.543C398.913 514.444 417.119 486.729 417.065 459.122V440.952C417.065 468.613 398.913 496.274 362.393 517.373C289.839 559.299 172.746 559.299 100.626 517.373C64.8098 496.546 46.8745 469.318 46.8203 441.983Z" fill="white"/>
</mask>
<g mask="url(#mask0_166_9872)">
<path d="M46.8203 441.982V460.152C46.8203 487.271 64.8098 514.715 100.626 535.542C115.48 544.018 131.286 550.7 147.712 555.447V537.278C131.277 532.554 115.469 525.871 100.626 517.373C64.8098 496.545 46.8745 469.318 46.8203 441.982Z" fill="#CFCDE2"/>
<path d="M147.71 537.278V555.448C173.512 562.85 200.197 566.718 227.037 566.946V548.777C200.16 548.558 173.438 544.69 147.602 537.278H147.71Z" fill="#CFCDE2"/>
<path d="M227.039 548.776V566.946C275.805 567.597 324.951 557.129 362.501 535.542C364.343 534.512 366.077 533.427 367.92 532.342V514.173C366.186 515.258 364.452 516.342 362.501 517.373C325.168 539.068 275.805 549.427 227.039 548.776Z" fill="#E7E6F1"/>
<path d="M367.922 514.173V532.342C384.941 522.427 399.079 508.237 408.94 491.176V473.061C399.06 490.093 384.924 504.261 367.922 514.173Z" fill="#CFCDE2"/>
<path d="M408.719 473.061V491.176C414.118 481.351 416.986 470.335 417.063 459.122V440.952C416.986 452.182 414.118 463.216 408.719 473.061Z" fill="#CFCDE2"/>
</g>
<path d="M101.436 365.616C28.8828 407.487 28.5578 475.447 100.624 517.481C172.689 559.515 289.837 559.407 362.39 517.481C434.944 475.555 435.323 407.596 363.257 365.616C291.192 323.636 173.99 323.636 101.436 365.616Z" fill="#F4F4FB"/>
<path d="M117.852 383.298C54.4019 415.461 54.0767 467.637 117.094 499.8C180.111 531.963 282.574 531.963 345.97 499.8C409.367 467.637 409.746 415.461 346.729 383.298C283.712 351.135 181.249 351.026 117.852 383.298Z" fill="#E7E6F1"/>
<path d="M65.4546 441.765C65.4006 442.813 65.4006 443.863 65.4546 444.911C66.8634 465.196 82.9021 485.589 109.832 501.21C141.367 519.596 185.691 530.119 231.152 530.119C276.613 530.119 320.611 519.868 352.905 501.21C380.268 485.372 396.578 464.816 398.041 444.315C398.094 443.267 398.094 442.217 398.041 441.169C398.041 419.908 381.786 398.213 353.555 381.779C321.966 363.392 277.697 352.87 232.181 352.87C186.666 352.87 142.722 363.121 110.428 381.779C82.0352 398.375 65.5087 420.287 65.4546 441.765ZM80.0303 444.965C79.9765 443.936 79.9765 442.904 80.0303 441.874C80.0303 425.603 93.9558 408.355 117.96 394.362C148.086 376.952 188.779 367.243 232.506 367.243C276.234 367.243 317.197 377.06 346.674 394.362C370.407 408.192 384.007 425.277 384.007 441.332C384.088 442.361 384.088 443.394 384.007 444.423C384.088 445.452 384.088 446.486 384.007 447.515C384.007 463.786 370.082 481.088 346.078 495.081C315.951 512.491 275.258 522.2 231.531 522.2C187.804 522.2 146.894 512.329 117.418 495.081C93.6306 481.25 80.0303 464.111 80.0303 448.111C79.9746 447.063 79.9746 446.013 80.0303 444.965Z" fill="#98A4E0"/>
<path d="M65.6172 444.911C67.026 465.196 83.0647 485.589 109.995 501.21C141.53 519.596 185.853 530.119 231.314 530.119C276.775 530.119 320.774 519.868 353.068 501.21C380.431 485.372 396.741 464.816 398.204 444.315C396.795 424.03 380.81 403.636 353.88 387.962C322.291 369.629 278.022 359.107 232.506 359.107C186.991 359.107 143.047 369.358 110.753 388.016C83.3899 403.853 67.0802 424.409 65.6172 444.911ZM79.8136 448.057C79.7598 447.027 79.7598 445.995 79.8136 444.965C79.7598 443.936 79.7598 442.904 79.8136 441.874C79.8136 425.603 93.7391 408.355 117.743 394.362C147.87 376.952 188.563 367.243 232.29 367.243C276.017 367.243 316.981 377.06 346.457 394.362C370.19 408.192 383.79 425.277 383.79 441.332C383.871 442.361 383.871 443.394 383.79 444.423C383.871 445.452 383.871 446.486 383.79 447.515C383.79 463.786 369.865 481.088 345.861 495.081C315.734 512.491 275.042 522.2 231.314 522.2C187.587 522.2 146.678 512.329 117.201 495.081C93.4141 481.196 79.8136 464.057 79.8136 448.057Z" fill="#185BCC"/>
<path d="M51.9062 374.456V434.877C51.9062 461.454 69.408 487.921 104.249 508.206C174.31 548.939 288.477 548.939 358.917 508.206C394.463 487.65 412.181 460.748 412.073 433.847V373.426C412.073 400.545 394.408 427.23 358.917 447.731C288.477 488.518 174.689 488.518 104.249 447.731C69.408 427.501 52.0146 400.979 51.9062 374.456Z" fill="#133AA5"/>
<mask id="mask1_166_9872" style="mask-type:luminance" maskUnits="userSpaceOnUse" x="51" y="373" width="362" height="166">
<path d="M51.9062 374.456V434.877C51.9062 461.454 69.408 487.921 104.249 508.206C174.31 548.939 288.477 548.939 358.917 508.206C394.463 487.65 412.181 460.748 412.073 433.847V373.426C412.073 400.545 394.408 427.23 358.917 447.731C288.477 488.518 174.689 488.518 104.249 447.731C69.408 427.501 52.0146 400.979 51.9062 374.456Z" fill="white"/>
</mask>
<g mask="url(#mask1_166_9872)">
<path d="M51.9062 374.456V434.877C51.9062 461.453 69.408 487.921 104.249 508.206C118.72 516.419 134.106 522.899 150.089 527.515V467.094C134.109 462.494 118.737 455.993 104.303 447.731C69.4622 427.5 52.0689 400.978 51.9605 374.456H51.9062Z" fill="#133AA5"/>
<path d="M150.039 467.094V527.514C175.158 534.703 201.128 538.479 227.252 538.742V478.267C201.11 478.049 175.119 474.291 149.984 467.094H150.039Z" fill="#185BCC"/>
<path d="M227.305 478.267V538.742C274.662 539.339 322.507 529.142 358.757 508.206L364.176 505.06V444.64L358.757 447.731C322.453 468.721 274.662 478.918 227.305 478.267Z" fill="#4281EE"/>
<path d="M363.953 444.64V505.06C380.487 495.427 394.231 481.65 403.833 465.087V404.612C394.235 421.192 380.491 434.987 363.953 444.64Z" fill="#185BCC"/>
<path d="M403.836 404.612V465.087C409.104 455.517 411.881 444.773 411.909 433.847V373.426C411.872 384.334 409.096 395.058 403.836 404.612Z" fill="#185BCC"/>
</g>
<path d="M105.064 300.151C34.6239 340.937 34.1904 406.999 104.251 447.731C174.312 488.464 288.48 488.518 358.92 447.731C429.36 406.945 429.848 340.937 359.787 300.151C289.726 259.364 175.559 259.418 105.064 300.151Z" fill="#4281EE"/>
<path d="M46.8203 374.837V392.952C46.8203 420.071 64.8098 447.515 100.626 468.342C172.692 510.268 289.839 510.268 362.393 468.342C398.913 447.244 417.119 419.529 417.065 391.922V373.752C417.065 401.413 398.913 429.129 362.393 450.173C289.839 492.098 172.746 492.098 100.626 450.173C64.8098 429.345 46.8745 402.118 46.8203 374.837Z" fill="#E7E6F1"/>
<mask id="mask2_166_9872" style="mask-type:luminance" maskUnits="userSpaceOnUse" x="46" y="373" width="372" height="127">
<path d="M46.8203 374.837V392.952C46.8203 420.071 64.8098 447.515 100.626 468.342C172.692 510.268 289.839 510.268 362.393 468.342C398.913 447.244 417.119 419.529 417.065 391.922V373.752C417.065 401.413 398.913 429.129 362.393 450.173C289.839 492.098 172.746 492.098 100.626 450.173C64.8098 429.345 46.8745 402.118 46.8203 374.837Z" fill="white"/>
</mask>
<g mask="url(#mask2_166_9872)">
<path d="M46.8203 374.837V392.952C46.8203 420.071 64.8098 447.515 100.626 468.343C115.469 476.841 131.277 483.524 147.712 488.248V470.078C131.269 465.378 115.458 458.693 100.626 450.173C64.8098 429.346 46.8745 402.118 46.8203 374.837Z" fill="#CFCDE2"/>
<path d="M147.711 470.078V488.248C173.513 495.65 200.198 499.518 227.038 499.746V481.631C200.198 481.358 173.516 477.472 147.711 470.078Z" fill="#CFCDE2"/>
<path d="M227.039 481.631V499.746C275.805 500.397 324.951 489.929 362.501 468.342C364.343 467.312 366.077 466.227 367.92 465.142V446.973C366.186 448.057 364.452 449.142 362.501 450.173C325.168 471.868 275.805 482.227 227.039 481.631Z" fill="#E7E6F1"/>
<path d="M367.922 446.972V465.142C384.924 455.23 399.06 441.062 408.94 424.03V405.86C399.076 422.905 384.937 437.076 367.922 446.972Z" fill="#CFCDE2"/>
<path d="M408.719 405.861V424.03C414.118 414.186 416.986 403.152 417.063 391.922V373.752C416.986 384.982 414.118 396.016 408.719 405.861Z" fill="#CFCDE2"/>
</g>
<path d="M101.436 298.416C28.8828 340.341 28.5578 408.301 100.624 450.281C172.689 492.261 289.837 492.207 362.39 450.281C434.944 408.355 435.323 340.45 363.257 298.416C291.192 256.381 173.99 256.49 101.436 298.416Z" fill="#F4F4FB"/>
<path d="M117.852 316.043C54.4019 348.206 54.0767 400.382 117.094 432.545C180.111 464.708 282.574 464.763 345.97 432.545C409.367 400.328 409.746 348.206 346.729 316.043C283.712 283.88 181.249 283.88 117.852 316.043Z" fill="#E7E6F1"/>
<path d="M65.4546 374.565C65.4006 375.613 65.4006 376.663 65.4546 377.711C66.8634 397.996 82.9021 418.389 109.832 434.01C141.367 452.396 185.691 462.918 231.152 462.918C276.613 462.918 320.611 452.668 352.905 434.01C380.268 418.172 396.578 397.616 398.041 377.114C398.096 376.067 398.096 375.017 398.041 373.969C398.041 352.708 381.786 331.012 353.555 314.578C321.966 296.192 277.697 285.67 232.181 285.67C186.666 285.67 142.722 295.921 110.428 314.633C82.0352 331.229 65.5087 353.087 65.4546 374.565ZM80.0303 377.82C79.9784 376.808 79.9784 375.794 80.0303 374.782C80.0303 358.511 93.9558 341.209 117.96 327.216C148.086 309.806 188.779 300.097 232.506 300.097C276.234 300.097 317.197 309.968 346.674 327.216C370.407 341.047 384.007 358.131 384.007 374.186C384.088 375.215 384.088 376.248 384.007 377.277C384.086 378.306 384.086 379.34 384.007 380.369C384.007 396.64 370.082 413.942 346.078 427.935C315.951 445.346 275.258 455.054 231.531 455.054C187.804 455.054 146.894 445.237 117.418 427.935C93.6306 414.105 80.0303 396.966 80.0303 380.965C79.9726 379.936 79.9726 378.904 80.0303 377.874V377.82Z" fill="#98A4E0"/>
<path d="M65.6172 377.873C67.026 398.158 83.0647 418.552 109.995 434.172C141.53 452.559 185.853 463.081 231.314 463.081C276.775 463.081 320.774 452.83 353.068 434.172C380.431 418.335 396.741 397.779 398.204 377.277C396.795 356.992 380.81 336.599 353.88 320.978C322.291 302.592 278.022 292.069 232.506 292.069C186.991 292.069 143.047 302.32 110.753 320.978C83.3899 336.653 67.0802 357.209 65.6172 377.873ZM79.8136 381.019C79.7579 380.007 79.7579 378.993 79.8136 377.982C79.7617 376.97 79.7617 375.956 79.8136 374.944C79.8136 358.673 93.7391 341.371 117.743 327.378C147.87 309.968 188.563 300.259 232.29 300.259C276.017 300.259 316.981 310.131 346.457 327.378C370.19 341.209 383.79 358.294 383.79 374.348C383.871 375.377 383.871 376.411 383.79 377.439C383.869 378.468 383.869 379.502 383.79 380.531C383.79 396.802 369.865 414.104 345.861 428.097C315.734 445.508 275.042 455.216 231.314 455.216C187.587 455.216 146.678 445.399 117.201 428.097C93.4141 413.996 79.8136 396.856 79.8136 380.856V381.019Z" fill="#185BCC"/>
<path opacity="0.5" d="M118.991 165.642C100.516 171.209 82.7223 178.832 65.9439 188.367C47.665 198.439 31.5822 212.066 18.6406 228.449V166.076C31.5727 149.698 47.6583 136.087 65.9439 126.048C82.7045 116.463 100.502 108.821 118.991 103.269V165.642Z" fill="#98A4E0"/>
<path opacity="0.5" d="M447.78 209.737C447.78 176.706 426.107 143.676 382.759 118.509C341.578 94.5905 288.044 81.9531 233.805 80.543V144.272C287.989 145.574 341.524 158.211 382.705 182.238C426.052 207.405 447.726 240.381 447.726 273.466V209.683L447.78 209.737Z" fill="#98A4E0"/>
<path opacity="0.5" d="M340.062 271.839C351.916 275.493 363.429 280.175 374.47 285.832C378.696 288.002 382.598 290.28 386.282 292.612V338.226C382.652 335.893 378.75 333.67 374.632 331.5C363.535 325.843 351.969 321.161 340.062 317.507V271.839Z" fill="#98A4E0"/>
<path opacity="0.5" d="M332.969 186.144C351.929 191.635 370.214 199.24 387.479 208.815V272.436C370.221 262.873 351.933 255.304 332.969 249.873V186.144Z" fill="#98A4E0"/>
<path opacity="0.5" d="M332.969 20.9355C351.935 26.3852 370.222 33.9727 387.479 43.5525V107.173C370.21 97.6339 351.925 90.0656 332.969 84.6105V20.9355Z" fill="#98A4E0"/>
<path opacity="0.3" d="M270.705 235.662V297.276C255.985 295.107 241.147 293.839 226.273 293.479V231.865C241.147 232.232 255.985 233.5 270.705 235.662Z" fill="#98A4E0"/>
<path d="M353.776 360.68C353.595 361.785 353.323 362.874 352.963 363.934C352.638 364.91 352.259 365.778 351.88 366.7C350.867 368.8 349.745 370.846 348.52 372.829L347.382 374.619C347.382 374.619 347.816 374.999 347.978 375.595C348.52 377.776 348.63 380.043 348.303 382.266C348.078 384.3 347.624 386.301 346.949 388.233C346.495 389.595 345.933 390.919 345.269 392.192C342.768 396.897 339.018 400.819 334.432 403.528C331.27 404.761 327.91 405.404 324.516 405.426H321.753C317.635 405.426 314.221 405.426 314.221 405.426L310.808 406.89C309.074 407.65 306.852 408.572 304.305 409.548C293.468 413.887 276.834 419.365 275.858 414.429C258.194 422.402 252.288 412.477 253.209 405.046C251.854 406.597 250.086 407.729 248.111 408.31C246.137 408.892 244.038 408.898 242.06 408.329C240.082 407.76 238.307 406.64 236.942 405.098C235.577 403.556 234.679 401.657 234.353 399.623C215.713 396.802 218.097 384.599 218.097 384.599C200.921 394.578 189.705 381.941 190.68 375.975C187.183 377.272 183.41 377.645 179.727 377.056C176.044 376.466 172.575 374.936 169.656 372.612C167.38 370.877 165.972 362.741 165.972 362.741C164.226 362.348 162.535 361.747 160.932 360.951C155.237 358.614 150.54 354.354 147.657 348.91C146.009 345.562 145.049 341.916 144.835 338.189C144.621 334.463 145.157 330.731 146.411 327.215C144.312 326.106 142.469 324.567 141.003 322.698C139.538 320.829 138.481 318.672 137.904 316.368C137.19 313.042 137.771 309.57 139.529 306.659C140.396 305.249 142.401 303.242 142.347 301.561C142.293 299.879 139.692 296.951 139.042 295.432C137.107 291.127 135.828 286.557 135.249 281.873C134.883 280.611 134.856 279.275 135.17 277.999C135.484 276.723 136.128 275.552 137.037 274.605C139.719 271.922 142.149 268.999 144.298 265.873C144.713 265.322 144.958 264.662 145.002 263.974C145 263.362 144.832 262.762 144.514 262.239C143.095 258.059 142.983 253.546 144.193 249.301C145.403 245.057 147.878 241.282 151.287 238.482C155.99 234.611 161.75 232.249 167.814 231.703C169.239 231.597 170.669 231.597 172.094 231.703C173.393 231.868 174.712 231.72 175.942 231.269C177.621 230.184 177.621 226.821 178.542 225.194C180.044 222.752 182.015 220.632 184.34 218.957C188.239 216.219 192.585 214.182 197.182 212.937C199.899 211.977 202.754 211.465 205.635 211.418C206.897 211.457 208.152 211.639 209.374 211.96L211.053 212.503C213.533 213.433 215.868 214.711 217.989 216.299L218.639 216.787C219.014 217.13 219.457 217.389 219.94 217.547H220.211C220.745 217.492 221.262 217.326 221.728 217.059L222.27 216.733C225.766 214.877 229.638 213.838 233.594 213.696C234.388 213.641 235.185 213.641 235.978 213.696H237.062C240.568 214.225 243.783 215.949 246.165 218.577C246.693 219.112 247.148 219.714 247.52 220.367C248.071 221.248 248.508 222.196 248.82 223.188C250.982 222.112 253.376 221.586 255.789 221.657C258.203 221.728 260.561 222.394 262.656 223.595C264.752 224.797 266.518 226.497 267.8 228.545C269.082 230.593 269.84 232.926 270.006 235.337V236.855C270.878 236.657 271.768 236.548 272.662 236.53H273.474C275.838 236.465 278.187 236.916 280.358 237.853C282.529 238.789 284.47 240.189 286.045 241.954C289.143 245.286 291.147 249.488 291.789 253.995C291.789 254.754 292.06 255.567 292.168 256.381H293.143C296.585 256.243 300.03 256.571 303.384 257.357C305.58 257.908 307.608 258.988 309.29 260.503C311.259 262.683 312.717 265.274 313.561 268.088C314.404 270.903 314.611 273.87 314.167 276.774C316.514 277.163 318.73 278.123 320.62 279.57C322.509 281.017 324.015 282.907 325.004 285.073C326.123 287.424 326.662 290.009 326.575 292.612C326.575 293.859 326.304 294.998 326.196 296.246C326.088 297.493 325.6 297.656 327.117 298.578C328.634 299.5 331.452 299.934 333.403 301.344C336.376 303.497 338.534 306.594 339.526 310.13C339.789 310.96 339.97 311.814 340.067 312.68C340.053 314.624 339.89 316.564 339.58 318.483C339.438 319.108 339.438 319.756 339.58 320.381C339.702 320.675 339.866 320.949 340.067 321.195C340.359 321.473 340.688 321.71 341.043 321.9C342.126 322.551 343.481 322.985 344.348 323.636C346.302 325.131 347.803 327.14 348.683 329.439C349.822 332.372 350.14 335.559 349.604 338.659C349.604 339.907 349.008 341.046 348.737 342.239C348.567 342.968 348.476 343.714 348.466 344.463C348.477 345.069 348.568 345.671 348.737 346.253C349.495 348.476 351.717 350.104 352.692 352.273C353.807 354.925 354.182 357.831 353.776 360.68Z" fill="#185BCC"/>
<g style="mix-blend-mode:multiply" opacity="0.4">
<path d="M255.424 348.747L254.286 349.615L253.202 350.428C247.585 354.967 240.59 357.454 233.371 357.479H231.691C223.197 357.491 214.934 354.709 208.175 349.561C201.526 343.011 196.418 335.063 193.22 326.293C190.996 321.025 188.351 315.946 185.309 311.106C180.92 304.282 174.52 298.993 166.994 295.974C160.778 293.61 153.93 293.514 147.65 295.703C147.65 295.16 147.271 294.401 147 293.587C153.737 291.227 161.093 291.343 167.753 293.913C170.605 294.953 173.303 296.376 175.772 298.143L178.048 299.825C181.571 302.69 184.64 306.073 187.151 309.859C190.267 314.778 192.967 319.948 195.224 325.316C198.278 333.808 203.204 341.502 209.638 347.825C216.007 352.676 223.796 355.288 231.799 355.256C238.989 355.649 246.071 353.37 251.685 348.856L252.877 347.879L254.069 347.011C254.307 346.888 254.582 346.852 254.844 346.911C255.106 346.97 255.339 347.12 255.501 347.334C255.663 347.549 255.744 347.813 255.73 348.082C255.716 348.35 255.607 348.605 255.424 348.801V348.747Z" fill="#185BCC"/>
<path d="M222.314 216.95C221.72 225.242 218.642 233.162 213.482 239.676C210.238 243.881 206.489 247.67 202.32 250.957C201.454 251.709 200.549 252.415 199.61 253.072C196.305 255.622 192.945 257.845 189.694 259.906L189.098 260.286C186.798 261.667 184.623 263.246 182.596 265.005C180.218 267.187 178.299 269.822 176.95 272.755C175.601 275.689 174.849 278.862 174.74 282.09C174.632 283.425 174.632 284.767 174.74 286.103C174.77 286.397 174.686 286.692 174.504 286.924C174.322 287.157 174.057 287.31 173.764 287.351C173.495 287.352 173.234 287.253 173.034 287.072C172.833 286.892 172.707 286.643 172.68 286.374C172.455 285.031 172.365 283.668 172.41 282.307C172.453 278.715 173.236 275.171 174.709 271.895C176.182 268.62 178.314 265.683 180.971 263.269C183.116 261.45 185.399 259.8 187.798 258.334L188.394 257.954C197.21 252.792 205.058 246.129 211.585 238.266C216.28 232.362 219.16 225.221 219.875 217.71H220.146C220.681 217.655 221.197 217.488 221.664 217.221L222.314 216.95Z" fill="#185BCC"/>
<path d="M212.127 284.801C211.086 284.731 210.087 284.36 209.25 283.735C208.414 283.11 207.776 282.256 207.413 281.276C205.629 277.051 205.011 272.424 205.625 267.879V266.577C206.272 262.056 205.125 257.461 202.428 253.777C201.832 253.126 200.911 252.638 200.423 252.964C200.176 253.064 199.901 253.074 199.647 252.991C199.393 252.909 199.176 252.74 199.034 252.514C198.892 252.288 198.834 252.018 198.87 251.754C198.906 251.489 199.034 251.245 199.231 251.065C200.044 250.677 200.966 250.578 201.843 250.786C202.72 250.993 203.5 251.493 204.054 252.204C205.616 254.234 206.756 256.556 207.407 259.034C208.059 261.512 208.208 264.095 207.846 266.632V267.988C207.289 272.136 207.812 276.358 209.364 280.245C209.689 280.788 210.718 282.523 212.127 282.523C212.429 282.523 212.718 282.643 212.932 282.857C213.145 283.07 213.265 283.36 213.265 283.662C213.265 283.964 213.145 284.254 212.932 284.468C212.718 284.681 212.429 284.801 212.127 284.801Z" fill="#185BCC"/>
<path d="M180.271 223.188C181.105 226.616 181.559 230.127 181.626 233.655C181.825 238.89 180.154 244.024 176.912 248.137C175.845 249.316 174.665 250.388 173.39 251.337L171.656 252.638C171.446 252.713 171.216 252.713 171.006 252.638C170.824 252.641 170.644 252.598 170.483 252.513C170.322 252.427 170.185 252.303 170.085 252.15C169.894 251.933 169.789 251.653 169.789 251.364C169.789 251.074 169.894 250.795 170.085 250.577C170.735 250.089 171.385 249.655 172.035 249.113C173.099 248.309 174.079 247.401 174.961 246.401C177.889 242.712 179.389 238.091 179.188 233.384C179.149 230.702 178.84 228.031 178.267 225.411L180.271 223.188Z" fill="#185BCC"/>
<path d="M297.034 395.229C296.944 395.43 296.8 395.603 296.619 395.727C296.437 395.852 296.224 395.923 296.005 395.934H295.571C291.008 393.826 287.203 390.363 284.673 386.017C282.143 381.67 281.011 376.649 281.429 371.636C282.136 366.884 283.58 362.273 285.709 357.968L286.631 356.178C290.402 348.11 292.644 339.411 293.241 330.524C294.108 308.069 284.897 299.879 275.956 291.961C269.288 287.008 264.144 280.28 261.11 272.544C259.564 266.494 259.45 260.167 260.776 254.066C262.102 247.965 264.833 242.257 268.75 237.398C269.213 236.817 269.72 236.273 270.267 235.771V236.855C271.139 236.657 272.028 236.548 272.922 236.53C272.037 237.325 271.204 238.176 270.429 239.079C266.778 243.652 264.233 249.008 262.992 254.728C261.751 260.449 261.849 266.379 263.277 272.055C266.176 279.405 271.075 285.794 277.419 290.496C279.586 292.395 281.7 294.293 283.705 296.354L285.222 297.981C291.345 304.815 296.059 313.981 295.463 330.795C294.843 339.947 292.527 348.904 288.635 357.209L287.931 358.89C285.911 363.015 284.523 367.422 283.813 371.961C283.443 376.499 284.476 381.041 286.774 384.971C289.071 388.901 292.521 392.028 296.655 393.927C296.856 394.069 297.004 394.275 297.073 394.512C297.142 394.748 297.128 395.001 297.034 395.229Z" fill="#185BCC"/>
<path d="M201.024 374.456C200.997 377.435 200.633 380.4 199.94 383.297C199.257 382.757 198.623 382.158 198.044 381.507C198.502 379.203 198.738 376.86 198.748 374.51C199.321 363.954 196.303 353.515 190.187 344.897C187.499 341.672 184.564 338.662 181.409 335.893C177.064 332.324 173.283 328.118 170.193 323.419C169.372 322.166 168.802 320.766 168.513 319.297C168.267 318.263 168.267 317.185 168.513 316.151C168.531 315.987 168.585 315.83 168.67 315.689C168.755 315.548 168.869 315.427 169.006 315.335C169.142 315.242 169.296 315.181 169.458 315.154C169.621 315.127 169.787 315.136 169.945 315.179C170.104 315.223 170.251 315.301 170.377 315.407C170.503 315.513 170.604 315.645 170.674 315.794C170.744 315.943 170.78 316.105 170.781 316.27C170.783 316.435 170.748 316.598 170.68 316.747C170.49 317.532 170.49 318.35 170.68 319.134C170.997 320.245 171.471 321.304 172.089 322.28C175.073 326.802 178.727 330.844 182.926 334.266C186.206 337.071 189.217 340.176 191.921 343.541C198.364 352.517 201.574 363.417 201.024 374.456Z" fill="#185BCC"/>
<path d="M341.628 367.785C341.286 373.209 339.945 378.523 337.673 383.459C334.947 389.603 331.607 395.455 327.702 400.924L326.456 402.714L324.506 405.48H321.742C322.663 404.015 323.639 402.605 324.614 401.249L325.86 399.46C329.699 394.112 332.985 388.387 335.668 382.375C337.798 377.687 339.065 372.652 339.406 367.514C339.611 363.458 338.811 359.415 337.076 355.744C336.635 354.857 336.128 354.005 335.559 353.195C335.402 352.946 335.343 352.647 335.393 352.356C335.443 352.066 335.599 351.804 335.83 351.622C336.079 351.465 336.378 351.406 336.668 351.456C336.958 351.506 337.219 351.662 337.402 351.893C338.063 352.837 338.643 353.835 339.135 354.876C341.012 358.909 341.867 363.343 341.628 367.785Z" fill="#185BCC"/>
<path d="M311.233 381.67C311.047 381.657 310.868 381.601 310.708 381.507C310.548 381.413 310.412 381.283 310.311 381.127C307.497 377.205 305.527 372.74 304.529 368.015C303.531 363.291 303.526 358.41 304.513 353.683C305.258 351.041 306.219 348.465 307.385 345.981L307.873 344.842C311.489 337.336 313.588 329.189 314.05 320.869C314.282 316.786 313.632 312.701 312.146 308.892C310.659 305.083 308.37 301.639 305.435 298.794C304.18 297.617 302.707 296.696 301.1 296.083C299.35 295.518 297.52 295.243 295.681 295.269C293.229 295.135 290.772 295.428 288.421 296.137C287.158 296.551 285.983 297.195 284.953 298.035C284.741 298.237 284.46 298.35 284.167 298.35C283.875 298.35 283.593 298.237 283.381 298.035C283.191 297.817 283.086 297.538 283.086 297.249C283.086 296.959 283.191 296.68 283.381 296.462C284.613 295.442 286.03 294.669 287.554 294.184C290.145 293.372 292.863 293.041 295.573 293.208C297.741 293.145 299.904 293.457 301.967 294.13C303.848 294.846 305.577 295.913 307.06 297.276C310.232 300.332 312.71 304.035 314.328 308.134C315.945 312.232 316.663 316.631 316.434 321.032C315.932 329.649 313.761 338.086 310.04 345.873L309.553 347.066C308.44 349.43 307.516 351.878 306.789 354.388C305.858 358.815 305.858 363.387 306.791 367.814C307.724 372.241 309.569 376.424 312.208 380.097C312.356 380.344 312.404 380.638 312.344 380.92C312.284 381.202 312.119 381.45 311.883 381.615C311.678 381.703 311.449 381.722 311.233 381.67Z" fill="#185BCC"/>
<path d="M163.582 284.475C163.582 285.94 162.552 286.862 161.469 286.862C161.326 286.842 161.188 286.794 161.064 286.72C160.94 286.646 160.832 286.548 160.746 286.432C160.66 286.316 160.598 286.184 160.564 286.043C160.53 285.903 160.525 285.757 160.548 285.614C160.589 285.37 160.705 285.145 160.88 284.971C161.055 284.796 161.279 284.679 161.523 284.638C161.568 284.497 161.568 284.345 161.523 284.204C162.597 278.386 162.707 272.431 161.848 266.577C161.075 261.013 158.913 255.734 155.562 251.228L156.429 250.468L157.242 249.709C160.872 254.56 163.221 260.25 164.07 266.252C164.869 272.314 164.704 278.465 163.582 284.475Z" fill="#185BCC"/>
<path d="M247.567 220.584C245.057 222.79 242.997 225.46 241.498 228.448C237.301 235.782 235.412 244.213 236.08 252.638C236.096 252.938 235.999 253.232 235.808 253.463C235.618 253.694 235.347 253.845 235.05 253.886C234.776 253.874 234.515 253.763 234.316 253.574C234.116 253.384 233.992 253.129 233.967 252.855C233.192 244.007 235.079 235.13 239.385 227.363C241.088 224.124 243.365 221.22 246.104 218.794C246.67 219.322 247.162 219.924 247.567 220.584Z" fill="#185BCC"/>
<path d="M271.298 357.208C270.332 361.995 268.213 366.473 265.125 370.254C262.037 374.035 258.074 377.004 253.579 378.903C249.617 380.409 245.409 381.163 241.171 381.127C235.999 381.048 230.861 380.282 225.891 378.849C219.639 377.437 213.821 374.534 208.931 370.388C208.009 369.519 207.14 368.595 206.33 367.621C206.143 367.384 206.058 367.082 206.094 366.782C206.129 366.482 206.283 366.208 206.52 366.021C206.757 365.834 207.058 365.749 207.358 365.785C207.658 365.82 207.931 365.974 208.118 366.211C208.859 367.144 209.675 368.014 210.556 368.815C215.17 372.661 220.63 375.357 226.487 376.679C234.985 379.601 244.214 379.601 252.712 376.679C256.816 374.936 260.438 372.226 263.268 368.779C266.099 365.331 268.054 361.25 268.968 356.882C269.805 352.474 269.609 347.932 268.396 343.612C267.184 339.293 264.987 335.314 261.978 331.987C257.099 327.245 251.457 323.358 245.289 320.489C238.83 317.476 232.93 313.386 227.841 308.394C221.832 301.161 218.468 292.092 218.305 282.685C218.305 281.709 218.305 280.678 218.305 279.702V278.889C218.575 270.994 219.628 263.145 221.448 255.458C224.11 241.283 228.157 227.404 233.531 214.021C234.325 213.966 235.121 213.966 235.915 214.021C230.424 227.526 226.321 241.555 223.669 255.892C221.88 263.401 220.828 271.067 220.526 278.78V281.438C220.555 281.799 220.555 282.162 220.526 282.523C220.683 291.409 223.855 299.978 229.521 306.821C234.426 311.611 240.105 315.535 246.318 318.428C252.732 321.416 258.594 325.469 263.658 330.414C266.807 333.947 269.138 338.133 270.485 342.672C270.485 343.432 270.918 344.245 271.081 345.004C271.958 349.018 272.032 353.166 271.298 357.208Z" fill="#185BCC"/>
<path d="M227.028 282.849C224.055 282.893 221.161 281.896 218.846 280.028C218.644 279.816 218.531 279.535 218.531 279.242C218.531 278.949 218.644 278.667 218.846 278.455C218.947 278.349 219.069 278.264 219.204 278.206C219.339 278.148 219.485 278.118 219.632 278.118C219.779 278.118 219.924 278.148 220.059 278.206C220.194 278.264 220.316 278.349 220.417 278.455C222.256 279.784 224.431 280.564 226.694 280.708C228.956 280.852 231.214 280.353 233.205 279.269C237.352 276.927 240.781 273.495 243.121 269.343C250.979 257.003 254.382 242.342 252.766 227.797C252.735 227.503 252.819 227.209 253.001 226.976C253.183 226.743 253.448 226.591 253.741 226.55C253.888 226.527 254.037 226.535 254.181 226.572C254.324 226.609 254.459 226.676 254.576 226.768C254.693 226.859 254.789 226.974 254.86 227.104C254.931 227.235 254.974 227.378 254.987 227.526C256.772 242.588 253.246 257.801 245.017 270.537C242.487 275.094 238.733 278.852 234.18 281.384C231.943 282.424 229.493 282.925 227.028 282.849Z" fill="#185BCC"/>
<path d="M270.381 345.33C270.191 345.337 270.002 345.296 269.831 345.21C269.661 345.125 269.515 344.998 269.406 344.842C269.255 344.586 269.204 344.283 269.265 343.992C269.325 343.701 269.491 343.443 269.731 343.269C271.702 341.869 273.316 340.026 274.446 337.887C275.575 335.749 276.187 333.375 276.233 330.957C276.266 325.947 274.814 321.039 272.061 316.855C269.241 312.61 265.951 308.699 262.254 305.194C258.743 301.599 254.976 298.263 250.983 295.214C250.793 294.997 250.688 294.717 250.688 294.428C250.688 294.138 250.793 293.859 250.983 293.641C251.195 293.439 251.476 293.326 251.769 293.326C252.061 293.326 252.343 293.439 252.554 293.641C256.66 296.735 260.519 300.144 264.096 303.838C267.954 307.441 271.357 311.502 274.228 315.933C277.225 320.465 278.792 325.794 278.726 331.228C278.676 334.009 277.973 336.74 276.674 339.199C275.375 341.658 273.516 343.777 271.248 345.384C270.962 345.471 270.654 345.451 270.381 345.33Z" fill="#185BCC"/>
<path d="M283.386 405.372C280.914 404.92 278.653 403.684 276.938 401.846C274.024 398.959 271.804 395.448 270.443 391.577C269.082 387.707 268.616 383.577 269.081 379.5C269.101 379.35 269.15 379.205 269.227 379.074C269.303 378.944 269.405 378.83 269.526 378.739C269.647 378.648 269.785 378.582 269.932 378.545C270.079 378.508 270.232 378.501 270.381 378.524C270.524 378.544 270.662 378.592 270.786 378.666C270.91 378.74 271.018 378.837 271.104 378.954C271.19 379.07 271.252 379.202 271.286 379.343C271.32 379.483 271.326 379.629 271.302 379.771C270.873 383.512 271.298 387.301 272.547 390.853C273.795 394.405 275.834 397.626 278.509 400.273C279.862 401.745 281.644 402.751 283.602 403.148C283.75 403.154 283.894 403.191 284.027 403.255C284.159 403.32 284.278 403.411 284.374 403.522C284.47 403.634 284.543 403.764 284.587 403.905C284.632 404.046 284.647 404.194 284.632 404.341C284.618 404.491 284.575 404.637 284.505 404.77C284.435 404.903 284.339 405.021 284.223 405.116C284.107 405.212 283.974 405.284 283.83 405.328C283.686 405.372 283.535 405.387 283.386 405.372Z" fill="#185BCC"/>
<path d="M228.437 343.107C224.623 343.052 220.889 342.005 217.6 340.069C213.072 337.219 209.343 333.262 206.763 328.571C206.684 328.443 206.632 328.301 206.608 328.152C206.584 328.004 206.59 327.852 206.625 327.705C206.661 327.559 206.725 327.421 206.813 327.3C206.902 327.179 207.014 327.076 207.143 326.998C207.411 326.857 207.722 326.824 208.014 326.904C208.306 326.985 208.556 327.174 208.714 327.432C211.088 331.871 214.581 335.611 218.847 338.28C220.933 339.561 223.251 340.416 225.669 340.798C228.087 341.18 230.556 341.079 232.935 340.503C233.215 340.424 233.515 340.46 233.769 340.602C234.023 340.745 234.21 340.982 234.289 341.263C234.368 341.543 234.333 341.844 234.19 342.098C234.048 342.352 233.811 342.54 233.531 342.619C231.864 343.02 230.15 343.184 228.437 343.107Z" fill="#185BCC"/>
<path d="M183.687 361.601C183.45 361.597 183.221 361.515 183.035 361.368C182.849 361.221 182.717 361.017 182.657 360.788C181.034 355.561 178.237 350.776 174.48 346.799C170.723 342.823 166.106 339.76 160.983 337.845C160.713 337.725 160.496 337.509 160.376 337.239C160.256 336.968 160.241 336.662 160.333 336.381C160.442 336.101 160.657 335.876 160.931 335.754C161.205 335.633 161.516 335.624 161.796 335.73C167.227 337.773 172.117 341.035 176.091 345.267C180.064 349.498 183.015 354.585 184.716 360.137C184.766 360.279 184.786 360.43 184.774 360.58C184.762 360.731 184.719 360.877 184.648 361.009C184.576 361.142 184.478 361.258 184.359 361.351C184.24 361.444 184.104 361.51 183.958 361.547L183.687 361.601Z" fill="#185BCC"/>
<path d="M321.804 302.211C321.811 302.358 321.789 302.505 321.737 302.643C321.686 302.781 321.608 302.907 321.506 303.014C321.405 303.12 321.283 303.205 321.148 303.263C321.013 303.321 320.867 303.35 320.72 303.35C320.423 303.337 320.141 303.213 319.93 303.002C319.72 302.791 319.595 302.509 319.582 302.211C319.637 301.163 319.637 300.113 319.582 299.065C319.293 296.962 318.691 294.915 317.794 292.991C314.347 286.981 309.251 282.087 303.11 278.889L302.243 278.347C299.556 276.928 297.106 275.098 294.982 272.923C293.635 271.287 292.539 269.459 291.731 267.499C290.643 265.042 290.107 262.376 290.16 259.689C290.35 257.593 290.977 255.56 292.002 253.723C292.002 254.482 292.273 255.296 292.381 256.109H293.357C292.835 257.294 292.524 258.56 292.436 259.852C292.351 262.192 292.834 264.519 293.844 266.631C294.528 268.421 295.498 270.088 296.716 271.567C298.684 273.568 300.951 275.252 303.435 276.557L304.302 277.099C310.812 280.5 316.195 285.719 319.799 292.123C320.835 294.315 321.511 296.659 321.804 299.065C321.905 300.112 321.905 301.165 321.804 302.211Z" fill="#185BCC"/>
<path d="M278.451 276.449C278.688 276.362 278.882 276.187 278.993 275.96C281.478 270.994 282.05 265.287 280.601 259.926C279.152 254.564 275.783 249.924 271.136 246.889C269.337 245.585 267.18 244.865 264.959 244.828C264.666 244.842 264.391 244.968 264.189 245.18C263.987 245.392 263.875 245.674 263.875 245.967C263.875 246.114 263.905 246.26 263.962 246.395C264.02 246.53 264.105 246.652 264.211 246.754C264.318 246.855 264.444 246.934 264.582 246.985C264.719 247.037 264.866 247.059 265.013 247.052C266.79 247.142 268.502 247.745 269.944 248.788C274.088 251.548 277.107 255.705 278.451 260.503C279.74 265.329 279.22 270.461 276.988 274.93C276.854 275.197 276.83 275.505 276.922 275.789C277.013 276.073 277.212 276.31 277.475 276.449C277.625 276.529 277.793 276.572 277.963 276.572C278.133 276.572 278.301 276.529 278.451 276.449Z" fill="#185BCC"/>
<path d="M241.122 329.71C233.457 329.249 226.21 326.055 220.694 320.707C217.551 317.398 214.772 313.762 212.404 309.859C209.344 304.501 205.077 299.933 199.942 296.517C197.073 294.961 193.956 293.915 190.73 293.425C187.89 292.704 184.904 292.798 182.115 293.696C180.866 294.134 179.796 294.972 179.071 296.08C178.347 297.188 178.007 298.504 178.105 299.825C178.113 300.1 178.022 300.368 177.848 300.581C177.674 300.793 177.43 300.936 177.159 300.982C176.889 301.028 176.611 300.975 176.376 300.832C176.142 300.689 175.967 300.467 175.883 300.205C175.703 298.376 176.139 296.54 177.121 294.988C178.102 293.435 179.574 292.255 181.302 291.635C184.505 290.583 187.935 290.433 191.218 291.201C194.686 291.765 198.037 292.902 201.134 294.564C206.598 298.283 211.124 303.222 214.355 308.991C216.636 312.733 219.306 316.224 222.32 319.405C227.448 324.358 234.172 327.319 241.285 327.758C241.582 327.785 241.858 327.922 242.058 328.143C242.259 328.364 242.369 328.652 242.368 328.951C242.282 329.204 242.11 329.418 241.883 329.557C241.655 329.696 241.386 329.75 241.122 329.71Z" fill="#185BCC"/>
<path d="M307.384 408.3C307.109 408.292 306.844 408.198 306.626 408.029C306.424 407.817 306.311 407.536 306.311 407.243C306.311 406.95 306.424 406.668 306.626 406.456C307.666 405.134 308.347 403.566 308.604 401.903C308.86 400.24 308.683 398.539 308.089 396.965C306.795 393.625 304.841 390.582 302.345 388.015L301.153 386.714C298.906 384.393 296.925 381.828 295.247 379.066C292.775 374.687 292.022 369.544 293.134 364.639C293.911 361.757 295.385 359.112 297.426 356.936C299.468 354.76 302.013 353.122 304.838 352.164C305.118 352.077 305.421 352.102 305.684 352.233C305.946 352.365 306.148 352.593 306.246 352.87C306.333 353.15 306.309 353.454 306.177 353.716C306.046 353.979 305.818 354.181 305.542 354.28C303.094 355.139 300.887 356.572 299.106 358.459C297.324 360.346 296.02 362.632 295.301 365.127C294.314 369.463 294.991 374.013 297.198 377.873C298.725 380.475 300.543 382.895 302.616 385.087L303.808 386.388C306.505 389.202 308.622 392.519 310.039 396.151C310.749 398.098 310.942 400.195 310.6 402.239C310.258 404.283 309.393 406.203 308.089 407.812C308.013 407.939 307.911 408.049 307.79 408.133C307.668 408.217 307.53 408.274 307.384 408.3Z" fill="#185BCC"/>
<path d="M348.835 341.805C348.665 342.535 348.575 343.28 348.564 344.029C343.618 343.606 338.853 341.967 334.693 339.256C328.819 335.413 324.439 329.67 322.285 322.985C322.214 322.697 322.252 322.394 322.392 322.133C322.533 321.873 322.765 321.674 323.043 321.574C323.331 321.49 323.64 321.522 323.904 321.665C324.167 321.807 324.365 322.047 324.452 322.334C326.404 328.606 330.462 334.009 335.939 337.629L337.24 338.388L339.299 339.473C342.316 340.806 345.544 341.596 348.835 341.805Z" fill="#185BCC"/>
<path d="M317.252 391.324C317.084 391.32 316.92 391.279 316.77 391.204C316.62 391.129 316.489 391.022 316.385 390.89C316.183 390.678 316.07 390.397 316.07 390.104C316.07 389.811 316.183 389.529 316.385 389.317C319.021 387.126 321.179 384.416 322.726 381.356C324.273 378.296 325.176 374.951 325.38 371.527C325.792 364.574 324.372 357.636 321.262 351.405C321.093 351.437 320.919 351.423 320.757 351.366C320.596 351.309 320.452 351.21 320.341 351.08C320.234 350.978 320.149 350.856 320.091 350.721C320.033 350.586 320.003 350.44 320.003 350.293C320.003 350.146 320.033 350 320.091 349.865C320.149 349.73 320.234 349.608 320.341 349.507C320.511 349.343 320.718 349.223 320.944 349.157C321.171 349.091 321.41 349.081 321.641 349.127C321.985 349.227 322.303 349.4 322.574 349.634C322.845 349.868 323.063 350.157 323.212 350.483C326.523 357.077 328.019 364.434 327.547 371.798C327.326 375.519 326.34 379.153 324.653 382.475C322.966 385.798 320.612 388.736 317.74 391.107C317.597 391.217 317.429 391.291 317.252 391.324Z" fill="#185BCC"/>
<path d="M211.102 212.394C210.489 216.796 209.305 221.099 207.58 225.194C205.346 230.811 201.593 235.694 196.743 239.296C196.532 239.366 196.303 239.366 196.092 239.296C195.91 239.298 195.73 239.255 195.569 239.17C195.408 239.084 195.271 238.96 195.171 238.807C195.001 238.562 194.935 238.26 194.985 237.966C195.036 237.671 195.2 237.409 195.442 237.235C200.011 233.9 203.558 229.354 205.683 224.109C207.291 220.211 208.419 216.131 209.042 211.96L211.102 212.394Z" fill="#185BCC"/>
<path d="M150.036 325.534C150.843 323.52 151.784 321.563 152.853 319.676C155.103 315.516 158.365 311.99 162.336 309.425C164.097 308.297 166.07 307.541 168.134 307.202C168.417 307.136 168.664 306.965 168.826 306.723C168.987 306.481 169.049 306.187 169.001 305.9C168.981 305.757 168.933 305.619 168.859 305.495C168.785 305.37 168.687 305.262 168.571 305.176C168.455 305.09 168.323 305.029 168.183 304.994C168.042 304.96 167.897 304.955 167.754 304.978C165.418 305.37 163.186 306.238 161.198 307.527C156.925 310.238 153.388 313.964 150.903 318.374C150.144 319.676 149.494 321.032 148.844 322.388L150.036 325.534Z" fill="#185BCC"/>
<path d="M256.077 388.72C255.974 391.916 255.185 395.052 253.764 397.916C252.343 400.779 250.323 403.304 247.841 405.317C247.004 406.081 246.117 406.788 245.186 407.432C244.54 407.086 243.924 406.687 243.344 406.239C244.475 405.536 245.545 404.738 246.541 403.853C248.701 402.086 250.475 399.894 251.752 397.412C253.029 394.93 253.782 392.211 253.964 389.425C254.07 388.524 254.07 387.614 253.964 386.713C253.932 386.571 253.93 386.423 253.957 386.28C253.984 386.136 254.039 385.999 254.12 385.878C254.201 385.756 254.306 385.652 254.428 385.572C254.55 385.492 254.687 385.438 254.831 385.412C255.117 385.363 255.412 385.425 255.654 385.587C255.895 385.748 256.066 385.996 256.131 386.279C256.158 387.093 256.14 387.908 256.077 388.72Z" fill="#185BCC"/>
<path d="M189.104 285.669C188.816 285.669 188.54 285.555 188.337 285.351C188.134 285.148 188.02 284.872 188.02 284.584C187.825 278.939 189.075 273.338 191.65 268.313C191.912 267.626 192.333 267.012 192.88 266.521C193.427 266.031 194.082 265.678 194.793 265.493C195.087 265.462 195.381 265.546 195.613 265.728C195.846 265.91 195.999 266.176 196.039 266.469C196.062 266.611 196.057 266.757 196.022 266.898C195.988 267.038 195.927 267.17 195.841 267.287C195.755 267.403 195.647 267.501 195.523 267.575C195.399 267.648 195.261 267.697 195.118 267.716C194.612 267.716 194.125 268.259 193.655 269.343C191.26 273.979 190.085 279.15 190.241 284.367C190.242 284.66 190.129 284.942 189.928 285.154C189.726 285.366 189.45 285.492 189.158 285.506L189.104 285.669Z" fill="#185BCC"/>
<path d="M250.116 312.354C249.926 312.361 249.737 312.32 249.566 312.235C249.396 312.149 249.25 312.022 249.141 311.866C244.74 304.808 238.674 298.941 231.477 294.781C231.345 294.713 231.229 294.619 231.136 294.505C231.042 294.39 230.973 294.258 230.932 294.115C230.892 293.973 230.881 293.824 230.9 293.677C230.919 293.531 230.968 293.389 231.043 293.262C231.111 293.131 231.205 293.015 231.32 292.921C231.434 292.827 231.566 292.758 231.708 292.717C231.85 292.677 231.999 292.666 232.146 292.685C232.292 292.704 232.433 292.753 232.56 292.829C240.078 297.183 246.421 303.308 251.037 310.673C251.117 310.793 251.173 310.928 251.2 311.071C251.227 311.213 251.225 311.359 251.195 311.501C251.164 311.642 251.106 311.776 251.023 311.895C250.94 312.013 250.835 312.114 250.712 312.191C250.53 312.295 250.326 312.351 250.116 312.354Z" fill="#185BCC"/>
<path d="M251.959 297.872C251.219 297.915 250.483 297.736 249.845 297.358C249.207 296.981 248.695 296.422 248.375 295.753C248.054 295.083 247.94 294.334 248.046 293.6C248.153 292.865 248.474 292.179 248.971 291.628C249.468 291.077 250.117 290.687 250.836 290.506C251.555 290.326 252.312 290.363 253.01 290.614C253.707 290.864 254.315 291.317 254.755 291.914C255.195 292.511 255.448 293.226 255.481 293.967C255.511 294.456 255.442 294.946 255.28 295.408C255.118 295.87 254.866 296.295 254.538 296.659C254.211 297.022 253.814 297.317 253.371 297.525C252.928 297.734 252.448 297.852 251.959 297.872Z" fill="#185BCC"/>
<path d="M255.21 350.754C254.721 350.783 254.232 350.714 253.77 350.552C253.309 350.39 252.884 350.138 252.521 349.81C252.157 349.481 251.863 349.084 251.655 348.641C251.447 348.198 251.329 347.717 251.308 347.228C251.287 346.737 251.362 346.245 251.53 345.783C251.698 345.321 251.955 344.896 252.287 344.533C252.619 344.17 253.02 343.877 253.465 343.669C253.911 343.462 254.393 343.344 254.885 343.323C255.37 343.294 255.857 343.362 256.315 343.525C256.774 343.688 257.195 343.941 257.554 344.27C257.913 344.599 258.202 344.997 258.404 345.439C258.607 345.882 258.718 346.362 258.732 346.848C258.761 347.337 258.693 347.827 258.531 348.289C258.369 348.751 258.116 349.177 257.789 349.54C257.461 349.904 257.064 350.198 256.621 350.406C256.178 350.615 255.699 350.733 255.21 350.754Z" fill="#185BCC"/>
<path d="M207.468 370.551C206.948 370.633 206.417 370.604 205.909 370.466C205.401 370.328 204.928 370.084 204.52 369.751C204.113 369.417 203.78 369.001 203.545 368.53C203.309 368.059 203.175 367.544 203.152 367.017C203.129 366.491 203.217 365.966 203.411 365.476C203.605 364.986 203.9 364.543 204.276 364.175C204.653 363.807 205.103 363.523 205.597 363.341C206.091 363.159 206.618 363.084 207.143 363.12C207.631 363.091 208.121 363.159 208.582 363.321C209.044 363.483 209.469 363.736 209.832 364.064C210.195 364.392 210.49 364.79 210.698 365.233C210.906 365.676 211.024 366.156 211.044 366.646C211.074 367.635 210.717 368.596 210.049 369.326C209.381 370.055 208.455 370.495 207.468 370.551Z" fill="#185BCC"/>
<path d="M169.65 319.296C169.159 319.318 168.668 319.242 168.206 319.074C167.745 318.906 167.32 318.648 166.958 318.316C166.595 317.983 166.302 317.583 166.095 317.137C165.887 316.69 165.77 316.208 165.749 315.716C165.72 315.23 165.788 314.743 165.951 314.284C166.113 313.825 166.366 313.403 166.695 313.044C167.023 312.685 167.421 312.395 167.863 312.193C168.306 311.99 168.784 311.879 169.271 311.865C170.19 311.919 171.058 312.31 171.707 312.964C172.356 313.619 172.741 314.49 172.788 315.41C172.835 316.331 172.54 317.237 171.961 317.954C171.382 318.671 170.559 319.149 169.65 319.296Z" fill="#185BCC"/>
<path d="M174.255 289.466C173.766 289.495 173.277 289.426 172.815 289.264C172.353 289.102 171.929 288.85 171.566 288.522C171.202 288.193 170.908 287.796 170.7 287.353C170.492 286.91 170.374 286.429 170.353 285.94C170.323 284.951 170.68 283.989 171.348 283.26C172.016 282.531 172.943 282.091 173.93 282.035C174.418 282.006 174.907 282.074 175.369 282.236C175.83 282.398 176.255 282.651 176.619 282.979C176.982 283.307 177.276 283.704 177.484 284.148C177.692 284.591 177.81 285.071 177.831 285.56C177.861 286.55 177.503 287.511 176.836 288.24C176.168 288.97 175.242 289.41 174.255 289.466Z" fill="#185BCC"/>
<path d="M241.335 332.204C240.817 332.288 240.286 332.262 239.778 332.127C239.271 331.992 238.797 331.751 238.389 331.421C237.98 331.09 237.646 330.677 237.407 330.208C237.169 329.74 237.032 329.226 237.005 328.701C236.978 328.176 237.062 327.651 237.252 327.16C237.441 326.67 237.732 326.225 238.105 325.854C238.477 325.484 238.924 325.196 239.415 325.01C239.906 324.824 240.432 324.743 240.956 324.774C241.447 324.752 241.938 324.827 242.4 324.996C242.862 325.164 243.286 325.421 243.648 325.754C244.011 326.086 244.304 326.487 244.511 326.933C244.719 327.379 244.836 327.862 244.857 328.354C244.887 328.84 244.818 329.327 244.655 329.786C244.493 330.245 244.24 330.667 243.911 331.026C243.583 331.385 243.185 331.675 242.743 331.877C242.3 332.079 241.822 332.191 241.335 332.204Z" fill="#185BCC"/>
<path d="M320.827 306.279C320.089 306.311 319.358 306.122 318.726 305.738C318.094 305.354 317.591 304.79 317.279 304.12C316.967 303.449 316.861 302.701 316.973 301.969C317.086 301.238 317.413 300.557 317.912 300.011C318.412 299.466 319.062 299.081 319.78 298.905C320.498 298.729 321.251 298.77 321.946 299.023C322.641 299.276 323.245 299.729 323.682 300.326C324.12 300.922 324.371 301.635 324.404 302.374C324.425 302.866 324.35 303.357 324.182 303.819C324.014 304.282 323.757 304.706 323.424 305.069C323.092 305.432 322.692 305.725 322.246 305.933C321.801 306.141 321.318 306.258 320.827 306.279Z" fill="#185BCC"/>
<path d="M277.695 278.89C277.175 278.971 276.643 278.942 276.135 278.805C275.627 278.667 275.154 278.423 274.747 278.09C274.339 277.756 274.007 277.34 273.771 276.869C273.535 276.398 273.402 275.883 273.379 275.356C273.356 274.83 273.444 274.305 273.638 273.815C273.831 273.325 274.126 272.882 274.503 272.514C274.88 272.146 275.33 271.862 275.824 271.68C276.318 271.498 276.845 271.423 277.37 271.459C277.855 271.43 278.342 271.498 278.801 271.661C279.259 271.824 279.68 272.077 280.039 272.406C280.398 272.735 280.687 273.133 280.89 273.575C281.092 274.018 281.203 274.498 281.217 274.984C281.246 275.473 281.178 275.963 281.016 276.425C280.854 276.887 280.602 277.313 280.274 277.676C279.946 278.04 279.549 278.334 279.106 278.542C278.663 278.751 278.184 278.869 277.695 278.89Z" fill="#185BCC"/>
<path d="M307.223 411.012C306.735 411.041 306.246 410.973 305.784 410.811C305.322 410.649 304.897 410.396 304.534 410.068C304.171 409.74 303.877 409.343 303.669 408.9C303.461 408.456 303.343 407.976 303.322 407.487C303.292 406.498 303.649 405.536 304.317 404.807C304.985 404.077 305.911 403.638 306.898 403.582C307.418 403.5 307.95 403.529 308.458 403.667C308.966 403.804 309.439 404.048 309.846 404.382C310.254 404.715 310.586 405.131 310.822 405.602C311.058 406.073 311.191 406.588 311.214 407.115C311.237 407.641 311.149 408.166 310.956 408.656C310.762 409.146 310.467 409.59 310.09 409.957C309.713 410.325 309.263 410.609 308.769 410.791C308.275 410.973 307.748 411.048 307.223 411.012Z" fill="#185BCC"/>
<path d="M254.124 389.317C253.633 389.339 253.142 389.263 252.681 389.095C252.219 388.927 251.794 388.669 251.432 388.336C250.701 387.665 250.265 386.73 250.222 385.738C250.179 384.745 250.532 383.776 251.202 383.044C251.873 382.311 252.807 381.876 253.799 381.833C254.79 381.789 255.758 382.142 256.49 382.814C257.221 383.485 257.657 384.42 257.7 385.412C257.743 386.405 257.39 387.374 256.72 388.106C256.049 388.839 255.115 389.274 254.124 389.317Z" fill="#185BCC"/>
<path d="M322.179 353.899C321.44 353.931 320.709 353.742 320.078 353.358C319.446 352.974 318.943 352.411 318.631 351.74C318.319 351.069 318.212 350.321 318.325 349.59C318.438 348.858 318.764 348.177 319.264 347.632C319.763 347.086 320.413 346.701 321.131 346.525C321.849 346.349 322.603 346.39 323.298 346.643C323.992 346.896 324.597 347.349 325.034 347.946C325.471 348.542 325.722 349.255 325.755 349.994C325.785 350.983 325.428 351.945 324.76 352.674C324.092 353.404 323.166 353.843 322.179 353.899Z" fill="#185BCC"/>
<path d="M173.983 255.838C173.495 255.868 173.006 255.799 172.544 255.637C172.082 255.475 171.657 255.223 171.294 254.895C170.931 254.566 170.637 254.169 170.429 253.726C170.22 253.283 170.103 252.802 170.082 252.313C170.06 251.822 170.135 251.33 170.303 250.868C170.471 250.405 170.729 249.981 171.061 249.618C171.393 249.255 171.793 248.962 172.239 248.754C172.685 248.547 173.167 248.429 173.658 248.408C174.146 248.386 174.634 248.462 175.093 248.631C175.552 248.799 175.973 249.058 176.331 249.391C176.689 249.724 176.977 250.125 177.179 250.571C177.38 251.017 177.491 251.499 177.505 251.988C177.534 252.474 177.466 252.961 177.303 253.42C177.141 253.879 176.888 254.301 176.559 254.66C176.231 255.019 175.833 255.308 175.391 255.511C174.948 255.713 174.469 255.825 173.983 255.838Z" fill="#185BCC"/>
</g>
<path d="M319.526 395.989C319.038 396.748 318.334 397.562 317.738 398.375C317.279 398.978 316.93 399.657 316.708 400.382C316.708 400.382 316.708 400.382 316.708 400.708C316.383 403.257 317.9 405.48 317.088 408.301C316.181 411.051 314.683 413.569 312.699 415.677C311.801 416.828 310.699 417.803 309.447 418.552C308.807 418.898 308.09 419.08 307.361 419.08C306.633 419.08 305.916 418.898 305.275 418.552C305.329 419.038 305.329 419.529 305.275 420.016C305.109 421.16 304.781 422.274 304.3 423.325C302.925 426.245 300.645 428.642 297.798 430.159C295.096 431.539 292.107 432.263 289.074 432.274C286.916 431.999 284.746 431.836 282.572 431.786C282.073 431.836 281.582 431.946 281.109 432.111C280.587 432.354 280.11 432.684 279.7 433.087L278.67 434.064C277.478 435.203 276.286 436.342 274.986 437.372C272.673 439.412 269.806 440.715 266.75 441.115C262.245 441.058 257.87 439.599 254.233 436.938C244.259 435.9 234.189 436.283 224.323 438.077C222.521 437.414 220.878 436.379 219.501 435.04C218.832 434.198 218.251 433.289 217.767 432.328C217.435 431.604 216.933 430.972 216.304 430.484C216.054 430.428 215.795 430.428 215.545 430.484C213.649 430.484 210.127 433.304 208.284 433.521C206.189 433.722 204.08 433.308 202.216 432.328C201.581 432.013 200.982 431.631 200.428 431.189C199.392 429.667 198.468 428.072 197.664 426.416C197.193 425.624 196.846 424.764 196.635 423.867H195.605C177.833 420.396 180.217 408.464 180.217 408.464C170.03 414.213 162.011 412.26 157.242 408.464C156.573 407.908 155.939 407.31 155.346 406.674C154.879 406.14 154.445 405.579 154.045 404.992C153.183 403.727 152.627 402.279 152.42 400.762C152.366 400.275 152.366 399.784 152.42 399.297C148.839 400.532 145.005 400.841 141.272 400.196C137.54 399.552 134.031 397.974 131.071 395.609C128.795 393.765 127.441 385.467 127.441 385.467C125.678 385.024 123.97 384.387 122.347 383.568C116.576 381.089 111.846 376.679 108.964 371.094C105.951 364.764 105.353 357.549 107.284 350.809C107.284 350.212 107.663 349.616 107.88 349.019L106.146 347.88C102.737 345.479 100.326 341.908 99.373 337.846C98.662 334.472 99.2835 330.954 101.107 328.029L104.954 322.172V321.846C104.97 321.557 104.97 321.267 104.954 320.978C104.954 320.436 104.521 319.677 104.25 318.863C104.274 318.719 104.274 318.573 104.25 318.429C103.741 316.566 103.07 314.751 102.245 313.005C100.165 308.724 99.2265 303.977 99.5208 299.225C99.8151 294.473 101.332 289.878 103.924 285.887C106.549 282.422 109.527 279.241 112.811 276.395L113.678 275.581L114.491 274.876C114.491 274.876 114.49 274.225 114.87 273.086C115.895 267.264 118.129 261.721 121.426 256.815C123.567 254.258 126.36 252.328 129.508 251.23C132.656 250.131 136.042 249.906 139.307 250.578H139.903H140.716C140.872 249.713 141.145 248.873 141.529 248.083C143.014 245.411 145.072 243.101 147.555 241.32C150.037 239.538 152.883 238.329 155.888 237.778C159.248 237.039 162.696 236.783 166.129 237.018H168.35C171.248 237.556 174.107 238.281 176.911 239.188L179.133 239.893H179.458H179.837C182.023 238.597 184.305 237.473 186.665 236.53C188.253 236.071 189.89 235.798 191.541 235.717H193.926C195.364 235.787 196.795 235.969 198.206 236.259C201.049 237.431 203.614 239.186 205.738 241.412L207.472 243.039L207.959 243.527C213.375 243.301 218.755 244.497 223.564 246.998C227.145 249.222 230.123 252.296 232.234 255.947C232.559 256.544 232.83 257.032 232.939 257.303V257.629H234.185H235.214C237.949 257.299 240.723 257.619 243.311 258.561C245.9 259.503 248.231 261.042 250.115 263.052C252.863 266.115 254.735 269.862 255.534 273.9C255.534 273.9 255.534 273.9 255.534 274.226C255.752 275.223 255.861 276.242 255.859 277.263C255.887 277.551 255.887 277.842 255.859 278.13H257.647C260.871 278.151 264.045 278.932 266.912 280.409C268.927 281.393 270.759 282.713 272.331 284.314C275.916 288.378 278.084 293.499 278.508 298.904C278.65 299.838 279.002 300.729 279.537 301.507C280.01 302.26 280.595 302.937 281.271 303.514C283.443 305.009 285.363 306.839 286.961 308.938C289.109 312.621 289.768 316.987 288.803 321.141C291.452 321.367 294.008 322.23 296.253 323.655C298.498 325.081 300.366 327.028 301.699 329.331C302.888 331.403 303.661 333.688 303.975 336.056C304.246 338.28 302.891 342.023 303.596 343.867C304.3 345.711 306.955 346.199 308.364 347.283C310.356 348.834 311.891 350.896 312.807 353.25C314.089 356.898 314.24 360.849 313.24 364.585C313.24 365.182 312.861 365.779 312.699 366.429C312.536 367.08 312.211 367.731 311.886 368.382H313.024C314.019 368.771 314.923 369.362 315.679 370.118C319.265 373.354 321.492 377.831 321.91 382.646C322.559 387.235 321.724 391.91 319.526 395.989Z" fill="#4281EE"/>
<g style="mix-blend-mode:multiply" opacity="0.4">
<path d="M212.189 373.751L211.051 374.619L209.968 375.432C204.373 379.975 197.394 382.463 190.19 382.483H188.457C179.98 382.488 171.737 379.705 164.994 374.565C158.312 368.032 153.183 360.08 149.985 351.297C147.784 346.019 145.137 340.938 142.074 336.11C137.7 329.274 131.295 323.982 123.76 320.978C117.544 318.614 110.695 318.518 104.416 320.706C104.416 320.164 104.037 319.405 103.766 318.591C110.503 316.231 117.859 316.346 124.518 318.917C127.376 319.945 130.075 321.369 132.538 323.147C133.328 323.664 134.088 324.225 134.814 324.829C138.34 327.707 141.425 331.088 143.971 334.863C147.069 339.783 149.752 344.953 151.99 350.32C155.043 358.812 159.97 366.506 166.403 372.829C172.776 377.672 180.563 380.283 188.565 380.259C195.755 380.653 202.837 378.374 208.451 373.859L209.697 372.883L210.889 372.015C210.985 371.91 211.103 371.826 211.233 371.769C211.364 371.711 211.505 371.681 211.648 371.681C211.79 371.681 211.931 371.711 212.062 371.769C212.193 371.826 212.31 371.91 212.406 372.015C212.52 372.137 212.606 372.283 212.657 372.441C212.708 372.6 212.724 372.768 212.704 372.934C212.683 373.099 212.626 373.258 212.537 373.4C212.448 373.541 212.33 373.661 212.189 373.751Z" fill="#185BCC"/>
<path d="M179.14 240.326C178.902 249.186 175.804 257.73 170.308 264.679C167.049 268.871 163.302 272.658 159.146 275.96C158.242 276.72 157.321 277.425 156.382 278.076C153.077 280.625 149.717 282.848 146.521 284.909L145.87 285.289C143.583 286.67 141.409 288.229 139.368 289.954C136.991 292.145 135.076 294.79 133.736 297.734C132.396 300.677 131.658 303.859 131.565 307.093C131.431 308.427 131.431 309.772 131.565 311.106C131.588 311.253 131.581 311.403 131.543 311.547C131.506 311.69 131.439 311.825 131.348 311.942C131.257 312.059 131.142 312.156 131.012 312.226C130.881 312.297 130.738 312.341 130.59 312.354C130.315 312.357 130.047 312.259 129.838 312.079C129.629 311.9 129.492 311.65 129.452 311.377C129.366 310.04 129.384 308.698 129.506 307.364C129.56 303.774 130.347 300.233 131.819 296.959C133.292 293.685 135.418 290.747 138.068 288.326C140.213 286.507 142.495 284.857 144.895 283.391L145.545 283.011C154.341 277.82 162.184 271.162 168.736 263.323C174.125 256.6 177.068 248.241 177.081 239.621L179.14 240.326Z" fill="#185BCC"/>
<path d="M168.896 309.805C167.855 309.734 166.856 309.364 166.02 308.738C165.183 308.113 164.545 307.259 164.182 306.279C162.423 302.048 161.807 297.428 162.394 292.883V291.581C163.057 287.067 161.929 282.473 159.251 278.781C158.601 278.13 157.68 277.642 157.247 277.967C157.123 278.063 156.98 278.132 156.828 278.17C156.676 278.208 156.518 278.214 156.364 278.189C156.209 278.163 156.062 278.105 155.93 278.019C155.799 277.934 155.687 277.822 155.601 277.691C155.515 277.56 155.457 277.412 155.43 277.258C155.404 277.103 155.41 276.945 155.447 276.793C155.485 276.64 155.553 276.497 155.648 276.373C155.743 276.248 155.863 276.145 156 276.069C156.822 275.677 157.752 275.576 158.638 275.783C159.524 275.99 160.314 276.492 160.877 277.208C163.983 281.333 165.345 286.514 164.67 291.635V292.937C164.082 297.103 164.606 301.35 166.187 305.249C166.458 305.791 167.487 307.527 168.896 307.527C169.198 307.527 169.488 307.647 169.701 307.86C169.914 308.074 170.034 308.364 170.034 308.666C170.021 308.964 169.897 309.246 169.686 309.456C169.476 309.667 169.194 309.792 168.896 309.805Z" fill="#185BCC"/>
<path d="M141.096 248.19C141.921 251.622 142.393 255.13 142.505 258.658C142.684 263.899 140.994 269.033 137.736 273.14C136.669 274.319 135.49 275.391 134.214 276.34C133.672 276.828 133.076 277.208 132.535 277.641C132.337 277.809 132.089 277.905 131.83 277.913C131.656 277.911 131.485 277.866 131.334 277.78C131.182 277.695 131.055 277.573 130.963 277.425C130.761 277.213 130.648 276.931 130.648 276.638C130.648 276.345 130.761 276.064 130.963 275.852C131.613 275.364 132.264 274.93 132.86 274.387C133.94 273.584 134.938 272.676 135.84 271.675C138.894 267.999 140.494 263.329 140.337 258.55C140.298 255.868 139.989 253.197 139.416 250.577L141.096 248.19Z" fill="#185BCC"/>
<path d="M253.801 420.232C253.714 420.432 253.569 420.6 253.386 420.716C253.202 420.832 252.988 420.89 252.771 420.883H252.338C247.784 418.762 243.989 415.297 241.46 410.954C238.932 406.61 237.793 401.596 238.195 396.585C238.928 391.84 240.371 387.232 242.476 382.917L243.235 381.236C247.006 373.168 249.248 364.469 249.845 355.581C250.712 333.127 241.447 324.937 232.506 317.018C225.856 312.06 220.73 305.333 217.714 297.601C216.156 291.556 216.031 285.231 217.348 279.129C218.665 273.027 221.388 267.318 225.299 262.455C227.234 260.124 229.586 258.174 232.235 256.706L232.94 258.062V258.387H234.186C231.425 259.708 228.984 261.614 227.033 263.974C223.373 268.542 220.818 273.896 219.567 279.616C218.317 285.337 218.406 291.27 219.827 296.95C222.743 304.305 227.661 310.694 234.023 315.391C236.137 317.29 238.25 319.188 240.309 321.249C240.796 321.791 241.338 322.334 241.826 322.93C248.003 329.764 252.663 338.93 252.067 355.473C251.469 364.622 249.172 373.58 245.294 381.886L244.535 383.568C242.539 387.703 241.152 392.106 240.417 396.639C240.055 401.176 241.092 405.715 243.388 409.643C245.685 413.571 249.13 416.699 253.259 418.605C253.415 418.66 253.556 418.75 253.672 418.868C253.788 418.986 253.876 419.129 253.928 419.286C253.981 419.443 253.996 419.61 253.974 419.774C253.952 419.938 253.893 420.095 253.801 420.232Z" fill="#185BCC"/>
<path d="M157.791 399.568C157.783 402.512 157.419 405.444 156.708 408.3C156.042 407.759 155.425 407.16 154.865 406.51C155.27 404.198 155.505 401.86 155.57 399.514C156.097 388.954 153.063 378.525 146.954 369.9C144.28 366.663 141.345 363.651 138.177 360.896C133.86 357.298 130.083 353.096 126.96 348.422C126.162 347.158 125.593 345.762 125.281 344.3C125.063 343.262 125.063 342.191 125.281 341.154C125.369 340.865 125.563 340.62 125.825 340.469C126.086 340.318 126.395 340.272 126.689 340.34C126.976 340.428 127.216 340.626 127.358 340.89C127.5 341.154 127.532 341.463 127.448 341.751C127.259 342.535 127.259 343.353 127.448 344.137C127.719 345.255 128.177 346.318 128.803 347.283C131.786 351.805 135.441 355.847 139.639 359.269C142.924 362.087 145.952 365.191 148.688 368.544C155.156 377.55 158.366 388.492 157.791 399.568Z" fill="#185BCC"/>
<path d="M298.399 392.788C298.077 398.21 296.754 403.524 294.497 408.463C291.751 414.596 288.411 420.445 284.527 425.927L283.227 427.717C281.98 429.507 280.68 431.351 279.488 433.141L278.513 434.117C277.321 435.256 276.074 436.395 274.828 437.426C275.158 436.546 275.557 435.694 276.02 434.877C277.635 431.869 279.445 428.97 281.439 426.199L282.685 424.409C286.523 419.061 289.809 413.337 292.492 407.324C294.648 402.645 295.916 397.606 296.231 392.463C296.436 388.407 295.635 384.364 293.901 380.693C293.478 379.808 292.989 378.956 292.438 378.144C292.347 378.025 292.281 377.889 292.245 377.743C292.209 377.598 292.204 377.446 292.229 377.298C292.254 377.151 292.31 377.009 292.393 376.884C292.476 376.759 292.583 376.653 292.709 376.571C292.826 376.489 292.959 376.43 293.098 376.399C293.238 376.368 293.383 376.365 293.524 376.39C293.665 376.415 293.8 376.468 293.92 376.546C294.041 376.623 294.145 376.724 294.226 376.842C294.876 377.793 295.455 378.79 295.96 379.825C297.826 383.88 298.664 388.332 298.399 392.788Z" fill="#185BCC"/>
<path d="M268.055 406.673C267.86 406.669 267.67 406.617 267.5 406.523C267.33 406.428 267.185 406.293 267.079 406.13C264.288 402.196 262.333 397.731 261.336 393.01C260.339 388.29 260.32 383.414 261.282 378.686C262.026 376.044 262.987 373.469 264.153 370.984L264.695 369.845C268.26 362.321 270.357 354.184 270.872 345.872C271.103 341.765 270.453 337.656 268.968 333.821C267.482 329.986 265.194 326.513 262.257 323.635C260.969 322.46 259.483 321.523 257.868 320.869C256.111 320.343 254.284 320.087 252.449 320.11C249.998 319.985 247.542 320.279 245.189 320.977C243.926 321.392 242.751 322.035 241.721 322.876C241.488 323 241.219 323.04 240.96 322.988C240.701 322.935 240.468 322.794 240.302 322.589C240.135 322.384 240.045 322.127 240.047 321.863C240.049 321.598 240.143 321.343 240.312 321.14C241.537 320.109 242.955 319.335 244.484 318.862C247.075 318.048 249.793 317.717 252.504 317.886C254.654 317.822 256.8 318.134 258.843 318.808C260.737 319.498 262.471 320.569 263.937 321.954C267.108 325.01 269.587 328.713 271.204 332.811C272.821 336.91 273.54 341.309 273.311 345.71C272.826 354.323 270.673 362.76 266.971 370.55L266.429 371.744C265.317 374.108 264.393 376.556 263.666 379.066C262.77 383.494 262.789 388.059 263.721 392.481C264.653 396.902 266.478 401.085 269.084 404.774C269.164 404.895 269.219 405.03 269.246 405.172C269.273 405.315 269.272 405.461 269.242 405.602C269.211 405.744 269.153 405.878 269.07 405.997C268.987 406.115 268.882 406.216 268.759 406.293C268.678 406.405 268.572 406.498 268.45 406.563C268.328 406.629 268.193 406.666 268.055 406.673Z" fill="#185BCC"/>
<path d="M120.399 309.479C120.128 310.944 119.315 311.866 118.285 311.866H118.015C117.722 311.825 117.457 311.672 117.275 311.439C117.093 311.207 117.008 310.912 117.039 310.618C117.081 310.374 117.197 310.149 117.372 309.974C117.546 309.8 117.771 309.683 118.015 309.642C118.041 309.499 118.041 309.351 118.015 309.208C119.034 303.384 119.143 297.438 118.34 291.581C117.549 286.012 115.368 280.733 112 276.232L112.921 275.472L113.68 274.713C117.286 279.482 119.651 285.073 120.561 290.984C121.497 297.118 121.442 303.363 120.399 309.479Z" fill="#185BCC"/>
<path d="M207.476 243.743C203.467 246.035 200.253 249.498 198.265 253.669C194.092 261.012 192.206 269.435 192.846 277.859C192.861 278.008 192.847 278.16 192.803 278.304C192.759 278.447 192.687 278.581 192.591 278.697C192.496 278.813 192.378 278.909 192.245 278.979C192.112 279.05 191.967 279.093 191.817 279.106C191.542 279.094 191.282 278.984 191.082 278.794C190.883 278.605 190.759 278.35 190.733 278.076C189.935 269.226 191.824 260.342 196.152 252.584C198.259 248.284 201.524 244.658 205.58 242.116L207.476 243.743Z" fill="#185BCC"/>
<path d="M197.936 405.914C192.765 405.832 187.627 405.066 182.656 403.636C175.11 402.11 168.263 398.17 163.15 392.408C163.021 392.301 162.918 392.166 162.847 392.013C162.777 391.861 162.741 391.695 162.742 391.527C162.743 391.359 162.782 391.193 162.854 391.042C162.927 390.89 163.032 390.757 163.162 390.651C163.293 390.545 163.445 390.469 163.608 390.429C163.771 390.389 163.94 390.385 164.105 390.419C164.269 390.452 164.424 390.521 164.559 390.621C164.694 390.721 164.805 390.85 164.884 390.998C169.727 396.369 176.166 400.039 183.252 401.466C191.769 404.388 201.015 404.388 209.532 401.466C213.633 399.72 217.253 397.008 220.083 393.561C222.913 390.115 224.87 386.035 225.787 381.669C226.642 377.262 226.454 372.715 225.241 368.392C224.027 364.07 221.821 360.091 218.798 356.774C213.916 352.02 208.275 348.116 202.109 345.222C195.658 342.247 189.772 338.173 184.715 333.181C178.686 325.955 175.303 316.885 175.125 307.472C175.035 298.34 176.073 289.231 178.213 280.353C181.028 265.033 185.554 250.079 191.705 235.77C191.763 235.629 191.849 235.503 191.959 235.398C192.069 235.293 192.2 235.212 192.343 235.161C192.486 235.11 192.638 235.089 192.79 235.101C192.941 235.112 193.089 235.156 193.222 235.228C193.482 235.357 193.683 235.58 193.783 235.852C193.884 236.125 193.877 236.425 193.764 236.692C187.652 250.851 183.18 265.664 180.435 280.842C178.283 289.551 177.263 298.502 177.4 307.472C177.511 316.358 180.667 324.936 186.341 331.771C191.255 336.574 196.955 340.499 203.192 343.378C209.581 346.381 215.423 350.433 220.477 355.364C223.721 358.952 226.089 363.243 227.396 367.902C228.702 372.56 228.912 377.458 228.009 382.212C227.025 386.999 224.893 391.475 221.797 395.254C218.701 399.033 214.733 402.003 210.236 403.907C206.297 405.335 202.125 406.016 197.936 405.914Z" fill="#185BCC"/>
<path d="M183.685 307.852C180.728 307.898 177.851 306.899 175.557 305.032C175.355 304.82 175.242 304.538 175.242 304.245C175.242 303.952 175.355 303.67 175.557 303.459C175.663 303.35 175.789 303.264 175.929 303.206C176.068 303.147 176.218 303.117 176.37 303.117C176.521 303.117 176.671 303.147 176.811 303.206C176.95 303.264 177.077 303.35 177.183 303.459C179.01 304.788 181.177 305.57 183.431 305.714C185.686 305.858 187.935 305.358 189.916 304.272C194.07 301.921 197.514 298.492 199.886 294.347C207.696 281.986 211.095 267.342 209.531 252.801C209.499 252.653 209.5 252.5 209.534 252.353C209.568 252.205 209.633 252.067 209.726 251.948C209.82 251.829 209.938 251.732 210.072 251.664C210.207 251.595 210.355 251.558 210.506 251.553C210.8 251.522 211.094 251.607 211.327 251.789C211.559 251.971 211.712 252.237 211.752 252.53C213.471 267.595 209.929 282.791 201.728 295.54C199.198 300.097 195.444 303.855 190.891 306.387C188.639 307.441 186.169 307.943 183.685 307.852Z" fill="#185BCC"/>
<path d="M227.033 370.388C226.851 370.391 226.671 370.348 226.51 370.262C226.349 370.177 226.212 370.053 226.112 369.9C226.023 369.778 225.961 369.638 225.929 369.491C225.897 369.343 225.896 369.19 225.927 369.042C225.957 368.894 226.019 368.754 226.107 368.631C226.194 368.508 226.307 368.404 226.437 368.327C228.392 366.916 229.991 365.069 231.11 362.932C232.23 360.795 232.837 358.427 232.885 356.015C232.918 351.005 231.466 346.098 228.713 341.914C225.911 337.656 222.62 333.742 218.906 330.253C215.407 326.644 211.64 323.308 207.635 320.273C207.433 320.061 207.32 319.779 207.32 319.486C207.32 319.193 207.433 318.912 207.635 318.7C207.736 318.593 207.858 318.508 207.993 318.45C208.128 318.392 208.274 318.362 208.421 318.362C208.568 318.362 208.713 318.392 208.848 318.45C208.983 318.508 209.105 318.593 209.206 318.7C213.284 321.808 217.123 325.216 220.694 328.897C224.554 332.512 227.974 336.572 230.88 340.992C233.842 345.537 235.389 350.86 235.324 356.287C235.273 359.068 234.571 361.798 233.272 364.257C231.973 366.716 230.114 368.835 227.846 370.443C227.578 370.531 227.287 370.512 227.033 370.388Z" fill="#185BCC"/>
<path d="M240.152 430.375C237.692 429.935 235.445 428.696 233.758 426.85C230.845 423.963 228.624 420.452 227.263 416.581C225.902 412.71 225.436 408.581 225.901 404.504C225.914 404.356 225.958 404.212 226.028 404.082C226.099 403.951 226.196 403.837 226.313 403.745C226.43 403.654 226.564 403.587 226.707 403.55C226.851 403.512 227.001 403.505 227.147 403.528C227.44 403.568 227.705 403.721 227.887 403.954C228.069 404.187 228.154 404.481 228.123 404.775C227.67 408.512 228.079 412.304 229.319 415.858C230.559 419.412 232.597 422.634 235.275 425.277C236.633 426.76 238.443 427.752 240.423 428.097C240.71 428.15 240.967 428.306 241.147 428.536C241.327 428.765 241.416 429.053 241.398 429.345C241.384 429.494 241.341 429.64 241.271 429.773C241.201 429.906 241.105 430.024 240.99 430.12C240.874 430.216 240.74 430.288 240.596 430.331C240.452 430.375 240.301 430.39 240.152 430.375Z" fill="#185BCC"/>
<path d="M185.203 368.11C181.387 368.07 177.648 367.022 174.366 365.072C169.829 362.233 166.097 358.273 163.529 353.574C163.42 353.319 163.408 353.032 163.495 352.769C163.582 352.505 163.762 352.282 164.002 352.142C164.242 352.002 164.524 351.955 164.796 352.009C165.068 352.063 165.311 352.214 165.48 352.435C167.854 356.874 171.347 360.614 175.612 363.283C177.699 364.563 180.017 365.419 182.435 365.801C184.852 366.183 187.321 366.082 189.7 365.506C189.839 365.467 189.984 365.456 190.127 365.473C190.271 365.49 190.409 365.535 190.535 365.605C190.661 365.676 190.771 365.77 190.86 365.884C190.95 365.997 191.016 366.127 191.055 366.266C191.094 366.404 191.106 366.55 191.089 366.693C191.072 366.836 191.027 366.975 190.956 367.101C190.886 367.227 190.791 367.337 190.678 367.427C190.565 367.516 190.435 367.582 190.296 367.621C188.63 368.023 186.915 368.187 185.203 368.11Z" fill="#185BCC"/>
<path d="M140.719 386.768C140.475 386.766 140.238 386.686 140.043 386.54C139.848 386.393 139.705 386.188 139.635 385.954C138.008 380.729 135.209 375.946 131.453 371.97C127.696 367.993 123.081 364.929 117.961 363.011C117.68 362.902 117.452 362.689 117.321 362.418C117.19 362.146 117.167 361.835 117.257 361.547C117.366 361.267 117.58 361.042 117.854 360.92C118.128 360.799 118.439 360.79 118.72 360.896C124.15 362.95 129.041 366.215 133.022 370.444C137.003 374.673 139.969 379.755 141.694 385.303C141.778 385.591 141.746 385.9 141.604 386.164C141.462 386.428 141.222 386.625 140.935 386.713L140.719 386.768Z" fill="#185BCC"/>
<path d="M281.979 328.353C281.979 328.501 281.949 328.646 281.891 328.781C281.833 328.917 281.749 329.039 281.642 329.14C281.536 329.242 281.41 329.32 281.272 329.372C281.134 329.423 280.987 329.446 280.841 329.438C280.691 329.447 280.542 329.423 280.403 329.368C280.264 329.313 280.138 329.229 280.035 329.12C279.932 329.012 279.854 328.882 279.806 328.74C279.758 328.599 279.741 328.448 279.757 328.299C279.765 325.134 279.08 322.006 277.752 319.133C274.357 313.102 269.271 308.2 263.122 305.031L262.255 304.489C259.548 303.102 257.093 301.268 254.994 299.065C253.628 297.443 252.53 295.612 251.743 293.641C250.629 291.193 250.091 288.521 250.172 285.831C250.71 281.514 252.742 277.522 255.916 274.55C256.081 275.555 256.189 276.569 256.241 277.587C254.113 279.919 252.768 282.858 252.394 285.994C252.347 288.331 252.828 290.649 253.802 292.774C254.507 294.554 255.475 296.217 256.674 297.709C258.642 299.711 260.909 301.394 263.393 302.699L264.26 303.187C270.784 306.612 276.184 311.847 279.811 318.265C280.829 320.464 281.505 322.805 281.816 325.208C281.924 326.22 281.979 327.269 281.979 328.353Z" fill="#185BCC"/>
<path d="M237.551 304.76C237.322 304.831 237.076 304.831 236.847 304.76C232.555 301.248 229.703 296.279 228.834 290.798C227.965 285.318 229.139 279.709 232.133 275.038C233.262 273.108 234.941 271.559 236.955 270.591C237.23 270.494 237.53 270.502 237.799 270.612C238.069 270.721 238.289 270.926 238.418 271.187C238.527 271.461 238.526 271.767 238.415 272.04C238.304 272.313 238.091 272.532 237.822 272.652C236.232 273.444 234.913 274.69 234.029 276.232C231.329 280.439 230.267 285.494 231.047 290.433C231.826 295.373 234.392 299.855 238.256 303.025C238.458 303.237 238.57 303.518 238.57 303.811C238.57 304.104 238.458 304.386 238.256 304.598C238.046 304.731 237.798 304.788 237.551 304.76Z" fill="#185BCC"/>
<path d="M197.884 354.713C190.227 354.219 182.991 351.03 177.456 345.709C174.313 342.414 171.55 338.775 169.22 334.862C166.175 329.39 161.911 324.694 156.758 321.14C153.882 319.601 150.768 318.556 147.546 318.048C144.688 317.326 141.684 317.419 138.877 318.319C137.638 318.772 136.579 319.614 135.856 320.718C135.134 321.822 134.787 323.131 134.867 324.448C134.898 324.595 134.899 324.746 134.868 324.893C134.838 325.04 134.778 325.179 134.691 325.301C134.605 325.423 134.494 325.526 134.366 325.604C134.237 325.681 134.094 325.731 133.946 325.75C133.652 325.797 133.351 325.727 133.107 325.555C132.864 325.382 132.698 325.121 132.645 324.828C132.475 323.001 132.914 321.169 133.895 319.618C134.875 318.068 136.341 316.886 138.064 316.258C141.267 315.206 144.697 315.056 147.98 315.824C151.45 316.38 154.803 317.516 157.895 319.187C163.36 322.906 167.886 327.845 171.117 333.614C173.398 337.356 176.068 340.847 179.082 344.028C184.218 348.969 190.937 351.928 198.046 352.381C198.196 352.388 198.343 352.424 198.478 352.488C198.613 352.552 198.735 352.641 198.836 352.752C198.936 352.863 199.014 352.993 199.065 353.134C199.115 353.275 199.137 353.424 199.13 353.574C199.131 353.733 199.098 353.89 199.034 354.036C198.971 354.182 198.877 354.313 198.759 354.42C198.642 354.527 198.503 354.609 198.353 354.659C198.202 354.71 198.042 354.728 197.884 354.713Z" fill="#185BCC"/>
<path d="M264.151 433.304C263.876 433.296 263.61 433.201 263.393 433.033C263.191 432.821 263.078 432.539 263.078 432.246C263.078 431.953 263.191 431.672 263.393 431.46C264.41 430.126 265.077 428.559 265.332 426.9C265.588 425.242 265.424 423.547 264.856 421.968C263.562 418.616 261.588 415.569 259.058 413.019L257.92 411.717C255.64 409.411 253.64 406.844 251.96 404.07C249.481 399.692 248.746 394.54 249.901 389.643C250.655 386.759 252.115 384.108 254.149 381.93C256.183 379.752 258.726 378.115 261.55 377.168C261.697 377.082 261.86 377.031 262.028 377.017C262.197 377.003 262.367 377.026 262.525 377.086C262.683 377.146 262.826 377.24 262.944 377.362C263.061 377.484 263.15 377.631 263.203 377.791C263.257 377.952 263.274 378.123 263.253 378.291C263.232 378.459 263.174 378.62 263.084 378.763C262.993 378.906 262.871 379.027 262.728 379.117C262.584 379.207 262.423 379.264 262.255 379.283C259.796 380.113 257.58 381.537 255.803 383.429C254.027 385.321 252.743 387.623 252.068 390.131C251.054 394.466 251.732 399.025 253.965 402.876C255.507 405.468 257.324 407.887 259.383 410.09L260.575 411.392C263.307 414.177 265.429 417.502 266.806 421.155C267.532 423.099 267.734 425.2 267.392 427.247C267.049 429.294 266.175 431.214 264.856 432.816C264.783 432.945 264.682 433.057 264.56 433.141C264.438 433.226 264.298 433.281 264.151 433.304Z" fill="#185BCC"/>
<path d="M313.73 368.652L311.888 368.924C310.715 369.003 309.539 369.003 308.366 368.924C301.882 368.951 295.561 366.888 290.34 363.039C285.118 359.19 281.275 353.761 279.377 347.554C279.291 347.274 279.319 346.97 279.457 346.711C279.594 346.452 279.828 346.257 280.109 346.171C280.389 346.085 280.692 346.113 280.951 346.251C281.21 346.388 281.404 346.623 281.49 346.903C283.442 353.175 287.5 358.579 292.977 362.198L294.278 362.958L296.337 364.042C301.109 366.248 306.396 367.093 311.617 366.483L313.297 366.212C313.297 366.863 312.809 367.513 312.538 368.164H313.622L313.73 368.652Z" fill="#185BCC"/>
<path d="M274.016 416.327C273.79 416.311 273.575 416.227 273.397 416.088C273.219 415.948 273.086 415.758 273.016 415.543C272.947 415.327 272.943 415.096 273.005 414.878C273.067 414.661 273.192 414.466 273.365 414.32C275.994 412.126 278.143 409.415 279.681 406.355C281.219 403.295 282.113 399.951 282.306 396.531C282.721 389.863 281.434 383.2 278.567 377.168C278.567 376.896 276.887 375.378 277.429 374.51C277.553 374.303 277.746 374.146 277.974 374.067C278.202 373.988 278.45 373.991 278.676 374.076C279.019 374.176 279.338 374.349 279.609 374.583C279.88 374.817 280.098 375.106 280.247 375.432C283.507 382.043 285 389.387 284.582 396.748C284.335 400.476 283.334 404.115 281.639 407.443C279.943 410.772 277.589 413.721 274.72 416.11C274.507 416.239 274.265 416.314 274.016 416.327Z" fill="#185BCC"/>
<path d="M167.918 237.398C167.263 241.797 166.062 246.097 164.342 250.198C162.136 255.831 158.378 260.721 153.505 264.3C153.295 264.379 153.064 264.379 152.854 264.3C152.673 264.298 152.495 264.252 152.335 264.167C152.174 264.083 152.037 263.96 151.933 263.812C151.776 263.562 151.717 263.263 151.767 262.973C151.817 262.683 151.973 262.421 152.204 262.239C156.787 258.919 160.338 254.368 162.445 249.113C164.053 245.215 165.182 241.135 165.805 236.964L167.918 237.398Z" fill="#185BCC"/>
<path d="M106.802 350.754C107.609 348.74 108.55 346.783 109.619 344.896C111.903 340.743 115.18 337.221 119.156 334.645C120.894 333.51 122.851 332.753 124.9 332.422C125.161 332.338 125.384 332.163 125.526 331.928C125.669 331.694 125.722 331.415 125.676 331.145C125.63 330.874 125.487 330.629 125.275 330.455C125.063 330.281 124.795 330.19 124.52 330.198C122.184 330.59 119.952 331.458 117.964 332.747C113.695 335.445 110.173 339.175 107.723 343.594C106.962 344.893 106.275 346.233 105.664 347.608L106.802 350.754Z" fill="#185BCC"/>
<path d="M317.739 398.429C317.259 399.018 316.908 399.702 316.709 400.436C312.73 397.718 309.565 393.968 307.552 389.588C306.292 387.153 305.818 384.386 306.197 381.669C306.28 381.4 306.459 381.171 306.7 381.026C306.941 380.881 307.228 380.83 307.504 380.884C307.78 380.938 308.026 381.093 308.195 381.318C308.364 381.543 308.444 381.823 308.419 382.103C308.118 384.362 308.535 386.658 309.611 388.666C311.382 392.6 314.192 395.976 317.739 398.429Z" fill="#185BCC"/>
<path d="M212.843 413.778C212.74 416.968 211.956 420.099 210.545 422.962C209.134 425.824 207.128 428.351 204.661 430.374C203.795 431.126 202.891 431.832 201.952 432.49C201.316 432.156 200.717 431.756 200.164 431.297C201.304 430.581 202.391 429.783 203.415 428.91C205.556 427.127 207.317 424.931 208.592 422.452C209.868 419.974 210.632 417.263 210.838 414.483C210.917 413.581 210.917 412.673 210.838 411.771C210.807 411.624 210.807 411.473 210.837 411.326C210.867 411.179 210.928 411.04 211.014 410.918C211.101 410.796 211.212 410.693 211.34 410.616C211.468 410.538 211.611 410.489 211.76 410.469C212.046 410.42 212.34 410.483 212.582 410.644C212.824 410.806 212.995 411.054 213.06 411.337C213.034 412.154 212.961 412.969 212.843 413.778Z" fill="#185BCC"/>
<path d="M294.655 365.236C294.491 365.242 294.328 365.211 294.178 365.146C294.028 365.08 293.894 364.981 293.788 364.856C293.586 364.644 293.473 364.363 293.473 364.07C293.473 363.777 293.586 363.495 293.788 363.283C294.814 362.09 295.389 360.573 295.413 358.998C296.181 351.309 294.694 343.563 291.133 336.707C291.059 336.576 291.013 336.432 290.998 336.283C290.983 336.134 290.998 335.983 291.044 335.841C291.09 335.698 291.165 335.566 291.264 335.454C291.363 335.342 291.485 335.251 291.621 335.188C291.743 335.113 291.88 335.065 292.023 335.047C292.165 335.028 292.31 335.04 292.448 335.08C292.586 335.121 292.714 335.191 292.823 335.284C292.932 335.377 293.021 335.492 293.083 335.622C296.869 342.893 298.451 351.112 297.635 359.27C297.596 361.43 296.722 363.49 295.197 365.019C295.039 365.139 294.852 365.215 294.655 365.236Z" fill="#185BCC"/>
<path d="M145.759 310.727C145.612 310.734 145.466 310.711 145.328 310.66C145.19 310.609 145.064 310.53 144.958 310.429C144.851 310.327 144.766 310.205 144.709 310.07C144.651 309.935 144.621 309.789 144.621 309.642C144.426 303.997 145.676 298.396 148.252 293.371C148.522 292.68 148.953 292.064 149.509 291.573C150.065 291.083 150.73 290.732 151.448 290.55C151.74 290.532 152.027 290.621 152.257 290.801C152.487 290.981 152.642 291.239 152.695 291.526C152.726 291.82 152.641 292.115 152.459 292.348C152.277 292.58 152.012 292.733 151.72 292.774C151.232 292.774 150.798 293.37 150.256 294.401C147.861 299.037 146.686 304.208 146.843 309.425C146.85 309.572 146.828 309.719 146.776 309.857C146.725 309.995 146.647 310.121 146.545 310.227C146.444 310.334 146.322 310.419 146.187 310.476C146.052 310.534 145.906 310.564 145.759 310.564V310.727Z" fill="#185BCC"/>
<path d="M206.882 337.357C206.7 337.36 206.52 337.316 206.359 337.231C206.198 337.146 206.061 337.021 205.96 336.869C201.524 329.821 195.444 323.958 188.242 319.784C187.984 319.626 187.795 319.375 187.715 319.083C187.634 318.791 187.668 318.479 187.809 318.211C187.975 317.962 188.229 317.784 188.52 317.714C188.811 317.644 189.118 317.686 189.38 317.831C196.898 322.186 203.24 328.311 207.857 335.676C207.95 335.847 207.997 336.04 207.994 336.235C207.992 336.43 207.939 336.622 207.841 336.79C207.743 336.959 207.603 337.1 207.435 337.199C207.267 337.298 207.077 337.353 206.882 337.357Z" fill="#185BCC"/>
<path d="M305.062 420.178C304.902 421.323 304.574 422.439 304.086 423.487C303.24 421.924 302.637 420.242 302.298 418.497C301.432 414.84 301.158 411.068 301.485 407.324C301.55 406.104 301.695 404.891 301.919 403.69C301.945 403.546 301.999 403.409 302.079 403.287C302.159 403.165 302.263 403.06 302.385 402.979C302.506 402.898 302.643 402.842 302.786 402.815C302.929 402.789 303.077 402.791 303.219 402.822C303.362 402.842 303.5 402.89 303.624 402.964C303.748 403.038 303.856 403.136 303.942 403.252C304.028 403.368 304.09 403.5 304.124 403.641C304.158 403.781 304.164 403.927 304.141 404.07C304.141 405.317 303.761 406.511 303.653 407.758C303.436 411.196 303.709 414.648 304.466 418.009C304.618 418.744 304.817 419.469 305.062 420.178Z" fill="#185BCC"/>
<path d="M208.725 322.876C208.237 322.905 207.748 322.837 207.286 322.674C206.824 322.512 206.399 322.26 206.036 321.932C205.673 321.603 205.379 321.206 205.171 320.763C204.963 320.32 204.845 319.839 204.824 319.35C204.802 318.859 204.877 318.368 205.045 317.905C205.213 317.443 205.471 317.018 205.803 316.655C206.135 316.293 206.536 315.999 206.981 315.791C207.427 315.584 207.909 315.466 208.4 315.445C208.886 315.416 209.372 315.485 209.831 315.647C210.29 315.81 210.711 316.063 211.07 316.392C211.429 316.721 211.718 317.119 211.92 317.562C212.122 318.005 212.234 318.484 212.247 318.971C212.277 319.459 212.208 319.949 212.046 320.411C211.884 320.873 211.632 321.299 211.304 321.662C210.976 322.026 210.58 322.32 210.137 322.529C209.694 322.737 209.214 322.855 208.725 322.876Z" fill="#185BCC"/>
<path d="M211.973 375.921C211.485 375.95 210.996 375.881 210.534 375.719C210.072 375.557 209.647 375.305 209.284 374.977C208.921 374.648 208.627 374.251 208.419 373.808C208.211 373.365 208.093 372.884 208.072 372.395C208.042 371.406 208.399 370.445 209.067 369.715C209.735 368.986 210.661 368.546 211.648 368.49C212.137 368.461 212.626 368.529 213.088 368.691C213.549 368.853 213.974 369.106 214.337 369.434C214.7 369.762 214.995 370.159 215.203 370.603C215.411 371.046 215.529 371.526 215.55 372.016C215.579 373.005 215.222 373.966 214.554 374.695C213.886 375.425 212.96 375.865 211.973 375.921Z" fill="#185BCC"/>
<path d="M164.291 395.555C163.8 395.576 163.309 395.501 162.847 395.333C162.385 395.165 161.961 394.907 161.598 394.575C161.236 394.242 160.943 393.841 160.735 393.395C160.528 392.949 160.41 392.466 160.389 391.975C160.36 391.489 160.429 391.002 160.591 390.543C160.754 390.084 161.007 389.662 161.335 389.303C161.664 388.943 162.061 388.654 162.504 388.451C162.946 388.249 163.425 388.138 163.911 388.124C164.831 388.178 165.698 388.569 166.347 389.223C166.996 389.877 167.381 390.748 167.428 391.669C167.475 392.59 167.181 393.495 166.602 394.213C166.023 394.93 165.2 395.407 164.291 395.555Z" fill="#185BCC"/>
<path d="M126.413 344.299C125.921 344.321 125.431 344.246 124.969 344.078C124.507 343.91 124.083 343.652 123.72 343.319C123.358 342.987 123.065 342.586 122.857 342.14C122.65 341.694 122.532 341.211 122.511 340.72C122.48 339.981 122.668 339.249 123.052 338.616C123.436 337.984 123.999 337.48 124.669 337.168C125.339 336.856 126.086 336.749 126.817 336.862C127.547 336.975 128.228 337.302 128.773 337.802C129.318 338.302 129.702 338.952 129.878 339.671C130.054 340.39 130.013 341.144 129.76 341.84C129.508 342.535 129.055 343.14 128.459 343.578C127.863 344.015 127.151 344.267 126.413 344.299Z" fill="#185BCC"/>
<path d="M131.077 314.469C130.337 314.511 129.601 314.332 128.962 313.955C128.324 313.577 127.812 313.019 127.492 312.349C127.172 311.68 127.057 310.931 127.164 310.196C127.27 309.462 127.592 308.776 128.088 308.225C128.585 307.674 129.235 307.283 129.954 307.103C130.673 306.922 131.429 306.96 132.127 307.21C132.824 307.461 133.432 307.914 133.872 308.511C134.312 309.108 134.565 309.823 134.599 310.564C134.628 311.053 134.559 311.543 134.398 312.005C134.236 312.467 133.983 312.892 133.656 313.256C133.328 313.619 132.931 313.914 132.488 314.122C132.045 314.33 131.565 314.448 131.077 314.469Z" fill="#185BCC"/>
<path d="M198.1 357.209C197.612 357.238 197.123 357.169 196.661 357.007C196.199 356.845 195.774 356.593 195.411 356.265C195.048 355.936 194.754 355.539 194.546 355.096C194.338 354.653 194.22 354.172 194.199 353.683C194.177 353.192 194.252 352.7 194.42 352.238C194.588 351.776 194.846 351.351 195.178 350.988C195.51 350.625 195.911 350.332 196.356 350.124C196.802 349.917 197.284 349.799 197.775 349.778C198.264 349.756 198.751 349.832 199.21 350.001C199.669 350.169 200.09 350.428 200.448 350.761C200.806 351.094 201.094 351.495 201.296 351.941C201.497 352.387 201.608 352.869 201.622 353.358C201.652 353.844 201.583 354.331 201.42 354.79C201.258 355.249 201.005 355.671 200.676 356.03C200.348 356.389 199.95 356.679 199.508 356.881C199.065 357.084 198.587 357.195 198.1 357.209Z" fill="#185BCC"/>
<path d="M210.781 256.489C210.261 256.571 209.73 256.542 209.222 256.404C208.714 256.266 208.24 256.023 207.833 255.689C207.425 255.356 207.093 254.94 206.857 254.469C206.621 253.998 206.488 253.482 206.465 252.956C206.441 252.43 206.53 251.904 206.723 251.415C206.917 250.925 207.212 250.481 207.589 250.113C207.966 249.746 208.416 249.461 208.91 249.28C209.404 249.098 209.931 249.023 210.456 249.059C210.941 249.029 211.428 249.098 211.886 249.261C212.345 249.423 212.766 249.677 213.125 250.006C213.484 250.335 213.773 250.732 213.975 251.175C214.178 251.618 214.289 252.097 214.303 252.584C214.332 253.073 214.264 253.563 214.102 254.025C213.94 254.487 213.688 254.912 213.36 255.276C213.032 255.639 212.635 255.934 212.192 256.142C211.749 256.351 211.27 256.468 210.781 256.489Z" fill="#185BCC"/>
<path d="M281.217 332.422C280.726 332.443 280.236 332.368 279.774 332.2C279.312 332.032 278.887 331.774 278.525 331.442C278.162 331.109 277.869 330.708 277.662 330.262C277.454 329.816 277.337 329.333 277.316 328.842C277.284 328.103 277.473 327.371 277.857 326.739C278.241 326.106 278.803 325.602 279.473 325.29C280.144 324.978 280.891 324.871 281.621 324.984C282.352 325.097 283.033 325.424 283.578 325.924C284.123 326.424 284.507 327.074 284.683 327.793C284.859 328.512 284.817 329.266 284.565 329.962C284.312 330.657 283.86 331.262 283.264 331.7C282.668 332.138 281.956 332.389 281.217 332.422Z" fill="#185BCC"/>
<path d="M263.994 436.015C263.508 436.045 263.022 435.976 262.563 435.813C262.105 435.65 261.683 435.397 261.324 435.068C260.965 434.739 260.676 434.342 260.474 433.899C260.272 433.456 260.16 432.977 260.147 432.49C260.104 431.747 260.284 431.008 260.663 430.367C261.042 429.727 261.603 429.214 262.275 428.894C262.947 428.575 263.699 428.463 264.434 428.574C265.17 428.684 265.855 429.012 266.404 429.514C266.953 430.017 267.339 430.672 267.514 431.396C267.688 432.119 267.643 432.879 267.385 433.577C267.126 434.275 266.665 434.879 266.061 435.314C265.457 435.748 264.737 435.992 263.994 436.015Z" fill="#185BCC"/>
<path d="M211.163 414.321C210.175 414.35 209.214 413.993 208.485 413.324C207.757 412.656 207.318 411.729 207.262 410.741C207.217 409.757 207.562 408.795 208.221 408.064C208.881 407.333 209.801 406.892 210.784 406.836C211.772 406.806 212.732 407.163 213.461 407.832C214.19 408.501 214.629 409.428 214.685 410.415C214.714 410.904 214.646 411.394 214.484 411.856C214.322 412.318 214.07 412.744 213.742 413.107C213.414 413.471 213.017 413.765 212.574 413.973C212.131 414.182 211.652 414.3 211.163 414.321Z" fill="#185BCC"/>
<path d="M293.739 380.91C292.756 380.954 291.795 380.609 291.065 379.949C290.335 379.289 289.894 378.368 289.838 377.384C289.808 376.395 290.165 375.434 290.833 374.704C291.501 373.975 292.427 373.535 293.414 373.479C293.902 373.45 294.392 373.518 294.853 373.681C295.315 373.843 295.74 374.095 296.103 374.423C296.466 374.751 296.76 375.149 296.968 375.592C297.177 376.035 297.294 376.515 297.315 377.005C297.345 377.994 296.988 378.955 296.32 379.685C295.652 380.414 294.726 380.854 293.739 380.91Z" fill="#185BCC"/>
<path d="M303.381 407.812C302.89 407.834 302.4 407.758 301.938 407.59C301.477 407.421 301.052 407.164 300.69 406.831C299.959 406.16 299.523 405.225 299.48 404.233C299.437 403.24 299.79 402.271 300.46 401.539C301.131 400.807 302.065 400.371 303.056 400.328C304.048 400.285 305.016 400.637 305.748 401.309C306.479 401.98 306.915 402.915 306.958 403.907C307.001 404.9 306.648 405.869 305.978 406.601C305.307 407.334 304.373 407.769 303.381 407.812Z" fill="#185BCC"/>
<path d="M130.749 280.841C130.26 280.871 129.771 280.802 129.309 280.64C128.847 280.478 128.423 280.226 128.06 279.897C127.696 279.569 127.402 279.172 127.194 278.729C126.986 278.286 126.868 277.805 126.847 277.316C126.804 276.323 127.157 275.354 127.827 274.622C128.498 273.89 129.432 273.454 130.424 273.411C131.415 273.368 132.383 273.72 133.115 274.392C133.846 275.063 134.282 275.998 134.325 276.99C134.354 277.974 133.995 278.93 133.326 279.65C132.657 280.371 131.731 280.799 130.749 280.841Z" fill="#185BCC"/>
</g>
<path opacity="0.4" d="M41.3432 295.378C13.7089 317.941 -0.0540254 344.517 0.000159366 370.985V433.358C0.000159366 406.836 13.7631 380.314 41.3432 357.751V295.378Z" fill="#D3D3F5"/>
<path opacity="0.5" d="M447.672 256.761C447.625 251.493 447.062 246.243 445.992 241.086V274.767C447.071 279.941 447.616 285.212 447.618 290.496C447.618 279.269 447.618 267.988 447.618 256.761H447.672Z" fill="#D3D3F5"/>
<path opacity="0.5" d="M383.734 496.003C419.93 474.633 440.845 447.84 446.48 420.07V388.883C444.088 399.955 439.64 410.479 433.368 419.907V388.721C420.451 407.246 403.474 422.57 383.734 433.521V495.894V496.003Z" fill="#D3D3F5"/>
<path opacity="0.5" d="M432.938 356.178C442.363 342.44 447.476 326.198 447.622 309.533V373.262C447.611 378.526 447.085 383.776 446.05 388.937V357.751C443.692 368.833 439.241 379.363 432.938 388.774V356.232V356.178Z" fill="#D3D3F5"/>
<path opacity="0.75" d="M433.312 420.015C439.585 410.587 444.033 400.063 446.425 388.991V357.805C444.067 368.887 439.616 379.417 433.312 388.829V420.015Z" fill="#D3D3F5"/>
<path opacity="0.5" d="M426.164 312.788C439.71 297.243 447.379 277.436 447.838 256.814C447.838 262.238 447.838 269.235 447.838 274.604V290.55C447.413 311.162 439.738 330.963 426.164 346.469V312.788Z" fill="#D3D3F5"/>
<path opacity="0.5" d="M27.3614 286.537C13.7919 271.007 6.11861 251.191 5.6875 230.563C5.6875 235.987 5.6875 242.984 5.6875 248.299C5.6875 253.614 5.6875 259.472 5.6875 264.299C6.13586 284.907 13.8078 304.7 27.3614 320.218V286.537Z" fill="#D3D3F5"/>
<path opacity="0.5" d="M447.672 256.761C447.625 251.493 447.062 246.243 445.992 241.086V274.767C447.071 279.941 447.616 285.212 447.618 290.496C447.618 279.269 447.618 267.988 447.618 256.761H447.672Z" fill="#D3D3F5"/>
<path opacity="0.5" d="M59.0625 329.71C66.4723 335.73 74.3342 341.17 82.5787 345.981C112.444 362.598 145.032 373.747 178.811 378.903V337.52C145.02 332.381 112.426 321.212 82.5787 304.544C74.3222 299.751 66.4588 294.31 59.0625 288.272V329.71Z" fill="#D3D3F5"/>
<path opacity="0.6" d="M264.149 408.3C193.708 415.839 118.716 403.961 64.7483 372.557C45.9086 362.152 29.4901 347.862 16.5781 330.632V394.415C23.6075 404.068 31.8995 412.733 41.2321 420.178V399.242C48.6419 405.262 56.5039 410.702 64.7483 415.514C94.6358 432.157 127.268 443.29 161.089 448.382V469.372C195.125 474.919 229.752 475.868 264.04 472.192L264.149 408.3Z" fill="#D3D3F5"/>
<path opacity="0.75" d="M41.3438 399.242C48.7535 405.262 56.6155 410.702 64.8599 415.513C94.7142 432.145 127.308 443.277 161.092 448.381V469.371V510.755C127.304 505.607 94.7111 494.438 64.8599 477.778C56.5914 473.005 48.7265 467.563 41.3438 461.507V420.124V399.242Z" fill="#D3D3F5"/>
<path opacity="0.8" d="M256.616 536.681C296.758 533.753 335.97 523.167 372.138 505.494V471.216C335.951 488.977 296.701 499.637 256.508 502.619V536.898L256.616 536.681Z" fill="#D3D3F5"/>
<g opacity="0.6">
<path d="M275.477 387.04C275.477 414.411 275.477 441.765 275.477 469.101C298.559 464.925 368.945 452.07 399.18 399.46C399.18 372.124 399.18 344.77 399.18 317.398C391.215 330.687 367.049 371.094 275.477 387.04Z" fill="#0C2F90"/>
<path d="M301.92 447.244C301.92 428.206 301.92 428.206 303.003 425.549C303.996 422.938 305.542 420.572 307.534 418.616C309.526 416.659 311.918 415.157 314.545 414.213C320.938 412.098 330.8 408.789 331.179 421.209C331.179 426.091 331.179 432.654 331.179 437.481C321.668 441.342 311.912 444.567 301.974 447.135L301.92 447.244ZM316.929 411.935C308.584 414.213 305.171 406.132 309.126 398.918C313.623 390.782 323.539 388.992 325.761 395.989C326.369 399.26 325.82 402.641 324.208 405.551C322.596 408.461 320.023 410.718 316.929 411.935ZM316.929 386.064C278.999 400.165 276.94 441.277 298.994 450.715C326.086 462.376 355.021 419.311 344.184 394.796C339.903 385.142 329.716 381.833 317.091 386.064H316.929Z" fill="#DADFF6"/>
<path d="M396.199 333.019C386.609 346.578 378.373 356.558 352.852 371.744C352.852 376.246 352.852 382.212 352.852 386.768C370.516 375.921 383.087 367.514 396.199 348.042C396.199 343.541 396.199 337.52 396.199 333.019Z" fill="#DADFF6"/>
<path d="M396.035 391.215C386.445 404.775 378.209 414.755 352.688 429.941V435.365C370.352 424.517 382.977 416.111 396.035 396.639V390.944V391.215Z" fill="#DADFF6"/>
<path d="M396.09 357.317C386.499 370.877 378.317 380.857 352.742 396.043V401.467C370.406 390.619 382.977 382.213 396.09 362.795V357.101V357.317Z" fill="#DADFF6"/>
<path d="M396.09 368.599C386.499 382.158 378.263 392.192 352.742 407.324V413.019C370.461 402.172 383.031 393.765 396.09 374.294V368.87V368.599Z" fill="#DADFF6"/>
<path d="M396.035 379.935C386.445 393.44 378.263 403.474 352.688 418.606V424.301C370.352 413.453 382.923 405.047 396.035 385.575V380.152V379.935Z" fill="#DADFF6"/>
<path d="M316.981 392.138C306.578 396.097 304.465 409.006 311.563 411.88C318.661 414.755 328.902 403.094 325.326 395.175C324.588 393.668 323.292 392.508 321.714 391.941C320.136 391.374 318.4 391.445 316.873 392.138H316.981Z" fill="#0C2F90"/>
<path d="M319.152 412.694C313.354 414.646 302.517 418.118 301.867 430.918C301.867 435.799 301.867 442.362 301.867 447.189C311.815 444.654 321.574 441.429 331.073 437.535C331.073 418.443 331.073 418.443 330.206 416.545C329.279 414.595 327.62 413.091 325.59 412.36C323.561 411.629 321.325 411.729 319.369 412.64L319.152 412.694Z" fill="#0C2F90"/>
<path d="M318.877 412.856L314.922 414.158L318.877 412.856Z" fill="#B4BCE2"/>
</g>
</g>
<defs>
<clipPath id="clip0_166_9872">
<rect width="448" height="567" fill="white"/>
</clipPath>
</defs>
</svg>
